{"glyphs":{"0":{"ha":731,"x_min":60,"x_max":671,"o":"m 320 309 q 349 334 336 309 l 349 335 q 399 633 399 426 q 365 749 399 696 q 347 766 353 766 q 335 760 345 766 q 271 623 293 724 l 266 606 q 241 500 250 544 l 240 498 q 231 422 231 460 q 233 387 231 404 q 282 321 240 342 q 320 309 308 309 m 320 255 q 258 273 293 255 q 179 378 191 307 q 176 422 176 397 q 187 510 176 467 q 286 787 225 718 q 347 821 316 821 q 411 779 381 821 q 453 633 453 716 q 397 309 453 410 q 320 255 368 255 m 365 54 q 552 170 496 54 q 617 399 617 300 q 605 551 617 473 l 605 566 l 604 570 q 362 987 579 880 q 293 1005 327 1005 q 225 977 255 1005 q 155 830 160 917 q 136 650 146 718 q 114 406 114 511 q 365 54 114 54 m 365 0 q 191 51 260 0 q 90 202 121 102 q 60 406 60 302 q 81 658 60 515 q 100 834 94 746 q 187 1017 109 941 q 293 1059 233 1059 q 387 1036 340 1059 q 583 845 514 972 q 658 575 646 730 q 671 399 671 487 q 600 144 671 288 q 365 0 528 0 z "},"1":{"ha":859,"x_min":30,"x_max":799,"o":"m 549 68 q 610 93 583 68 q 636 153 636 118 l 635 214 q 640 328 635 285 l 640 335 q 685 555 662 473 q 745 943 741 788 q 709 1012 739 1002 q 652 1031 669 1031 q 595 1004 623 1031 q 491 872 541 940 l 467 838 q 240 585 332 659 q 174 541 229 570 l 170 540 q 148 532 161 532 q 84 448 84 503 q 122 374 84 397 q 170 358 149 358 q 193 362 180 358 q 450 544 343 420 q 469 553 460 553 q 485 549 477 553 q 495 538 492 545 q 498 524 498 532 l 498 519 q 460 214 460 368 l 461 157 q 488 93 465 118 q 549 68 511 68 m 549 14 q 450 55 488 14 q 407 153 412 96 q 406 213 406 170 q 426 441 406 328 q 212 311 331 357 q 170 304 193 304 q 93 329 134 304 q 35 408 52 354 q 30 448 30 426 q 54 523 30 484 q 132 583 79 562 q 136 584 134 583 q 142 587 138 585 q 152 591 146 590 q 198 620 178 605 l 202 624 q 343 768 271 680 l 343 769 q 434 884 378 812 l 446 903 q 556 1042 533 1019 q 652 1085 601 1085 q 732 1062 681 1085 q 799 944 792 1034 l 799 941 q 738 541 795 781 l 736 541 q 696 332 715 465 l 694 324 q 693 308 693 313 q 691 296 693 302 q 689 214 689 290 l 690 152 q 647 54 690 95 q 549 14 604 14 z "},"2":{"ha":937,"x_min":60,"x_max":878,"o":"m 681 68 q 800 102 755 68 q 823 157 823 118 q 818 198 823 176 q 811 258 811 225 q 818 290 811 274 q 821 312 821 300 q 746 293 802 312 q 582 259 658 259 q 491 278 536 259 q 475 304 475 285 q 480 319 475 312 q 545 396 509 361 l 547 397 q 642 612 642 481 q 522 800 642 751 q 353 838 431 838 q 183 768 252 838 q 114 621 121 704 q 129 562 114 594 q 161 515 144 529 q 184 505 174 505 q 198 507 190 505 q 199 509 198 509 q 213 532 210 513 l 235 583 q 313 636 266 636 q 393 594 358 636 l 395 591 q 415 533 415 563 q 300 368 415 457 q 225 293 259 335 q 205 222 205 262 q 235 121 205 163 q 301 84 258 87 q 361 89 361 87 q 441 96 361 91 q 537 83 490 94 l 566 80 l 566 79 q 681 68 631 68 m 681 14 q 528 30 608 14 q 438 42 484 39 q 370 37 403 42 q 302 30 336 31 l 300 30 q 190 91 229 35 q 151 222 151 146 q 182 324 151 279 q 267 410 209 365 q 361 533 361 486 q 351 560 361 545 q 313 582 334 582 q 283 559 297 582 l 266 521 q 248 480 262 494 q 184 450 222 450 q 129 472 157 450 q 80 538 100 494 q 60 623 60 583 l 60 624 q 144 806 68 728 q 353 892 232 892 q 543 850 442 892 q 696 612 696 785 q 583 357 696 460 q 547 317 563 338 q 582 313 564 313 q 727 343 647 313 q 817 366 784 366 q 875 308 875 366 q 869 274 875 292 l 865 256 q 871 210 865 232 q 878 157 878 183 q 833 58 878 91 q 681 14 773 14 z "},"3":{"ha":840,"x_min":60,"x_max":780,"o":"m 393 -33 q 581 41 525 -33 q 720 362 686 186 q 726 419 726 389 q 666 635 726 543 q 567 709 629 690 q 548 736 548 716 q 551 747 548 742 q 579 850 579 800 q 529 983 579 917 q 444 1042 486 1034 q 370 1050 392 1050 q 278 1031 321 1050 q 133 842 155 975 q 130 814 130 826 q 195 731 130 736 q 264 757 210 731 l 267 758 q 355 783 336 783 q 416 731 408 783 q 369 612 416 665 l 395 612 q 495 552 484 612 q 506 483 506 514 l 505 458 l 503 445 q 449 240 503 313 q 448 239 449 239 q 353 179 401 186 q 290 174 312 174 q 195 190 237 174 q 152 198 168 198 q 118 186 133 198 q 114 182 114 183 q 146 77 114 118 q 393 -33 240 -33 m 393 -87 q 104 42 217 -87 q 60 184 60 94 q 102 241 60 217 q 152 252 123 252 q 216 240 186 252 q 290 228 247 228 q 346 233 308 228 q 406 274 374 237 q 449 445 449 332 l 452 483 q 444 538 452 507 l 444 540 q 395 557 438 557 q 311 572 323 557 q 298 606 298 586 q 316 638 298 627 q 345 671 334 650 l 346 673 q 362 727 362 697 l 362 728 l 355 728 q 288 708 342 728 q 194 677 224 677 l 191 677 q 76 814 76 694 q 79 850 76 831 q 256 1080 104 1012 q 370 1104 311 1104 q 452 1095 397 1104 q 572 1016 521 1084 q 633 850 633 935 q 612 750 633 800 q 712 665 673 723 q 780 419 780 559 q 774 351 780 381 q 624 8 738 164 q 393 -87 555 -87 z "},"4":{"ha":774,"x_min":60,"x_max":715,"o":"m 349 109 q 401 118 357 109 l 408 121 q 467 130 437 130 q 540 119 502 130 q 594 113 575 113 q 631 127 625 113 l 639 163 q 661 351 661 258 q 652 468 661 416 q 639 589 639 549 q 647 686 639 639 q 515 647 608 647 q 359 704 431 647 l 358 705 q 285 838 297 758 l 283 857 q 305 924 283 894 q 362 964 327 954 q 277 968 323 968 q 267 967 273 967 l 241 968 q 119 871 132 968 q 115 852 119 864 l 114 826 q 151 635 114 719 q 153 624 153 629 l 155 618 q 264 532 176 532 q 297 536 281 532 q 312 539 298 537 q 327 541 326 541 q 348 532 340 541 q 355 514 355 524 q 335 456 355 499 q 323 399 327 427 l 321 395 q 316 317 316 355 q 319 263 316 290 q 324 123 319 132 l 324 122 q 328 114 326 119 q 349 109 330 109 m 351 54 l 350 54 q 293 73 309 54 q 264 180 264 103 l 264 259 q 262 317 262 289 q 269 406 262 378 q 286 479 277 460 l 264 477 q 132 545 171 477 q 107 591 114 575 q 60 826 60 708 q 64 868 60 856 l 65 878 q 241 1023 85 1023 l 269 1023 q 387 1016 359 1023 q 425 966 425 1005 q 406 929 425 945 q 381 914 396 918 q 338 859 338 902 q 393 746 345 789 q 515 701 450 701 q 604 722 574 701 l 610 726 l 616 742 q 656 772 629 772 q 692 758 675 772 q 709 722 709 743 q 704 693 709 707 q 693 589 693 644 q 707 476 693 555 q 715 351 715 429 q 693 152 715 252 q 682 110 689 130 q 594 58 663 58 q 527 67 559 58 q 467 76 495 76 q 426 69 446 76 q 351 54 393 57 z "},"5":{"ha":941,"x_min":60,"x_max":971,"o":"m 487 81 q 655 160 590 81 q 739 410 739 255 q 735 479 739 444 q 673 623 727 557 q 517 682 620 682 q 446 674 483 682 l 444 674 q 422 682 431 674 q 414 703 414 690 l 414 707 q 423 779 420 739 q 426 792 423 785 q 427 812 426 810 q 429 817 429 815 q 454 853 429 849 q 612 860 522 860 l 632 859 q 739 864 685 859 q 848 869 793 869 q 900 890 883 869 q 917 935 917 910 q 900 979 917 959 q 848 998 883 998 q 735 993 791 998 q 600 987 666 987 l 545 989 q 308 909 353 989 q 279 770 279 845 l 279 769 q 260 646 277 720 q 245 560 245 582 q 259 528 245 543 q 317 503 286 503 q 380 517 359 503 l 380 518 q 510 553 435 553 q 563 536 537 553 q 578 521 574 530 q 589 471 585 506 q 593 437 591 467 l 593 407 q 587 330 593 338 q 586 315 587 319 q 529 229 568 258 q 486 209 509 209 q 349 293 442 209 l 334 305 q 236 393 285 345 l 236 395 q 189 414 220 414 q 134 395 157 414 q 114 351 114 373 q 146 294 114 328 q 217 227 179 259 q 277 178 255 194 q 278 176 278 178 q 487 81 393 81 m 487 27 q 243 134 374 27 q 60 351 60 274 q 95 431 60 395 q 189 468 130 468 q 277 431 243 468 q 368 347 312 393 l 384 334 q 486 264 460 269 l 488 264 l 488 266 q 492 269 490 267 q 500 275 496 273 q 533 327 521 290 q 536 347 533 339 q 538 430 538 377 q 530 492 534 476 q 510 499 519 499 q 410 472 452 499 q 317 449 376 449 q 221 488 264 449 q 191 560 191 517 q 207 659 191 591 q 225 772 222 727 q 259 935 225 871 q 545 1043 319 1043 l 600 1042 q 730 1047 665 1042 q 848 1053 788 1053 q 939 1015 907 1053 q 971 935 971 978 q 939 853 971 891 q 848 815 907 815 q 742 810 796 815 q 631 804 688 804 l 620 806 q 480 800 538 806 q 477 777 480 784 q 473 734 476 754 q 517 736 495 736 q 713 658 642 736 q 789 484 779 587 q 793 410 793 446 q 696 125 793 235 q 487 27 614 27 z "},"6":{"ha":1047,"x_min":60,"x_max":987,"o":"m 682 250 q 703 255 696 251 l 704 255 l 711 266 l 719 288 l 723 305 q 722 330 723 327 q 721 337 722 334 q 719 343 720 340 q 662 347 715 345 q 629 345 646 345 q 536 321 582 340 l 522 317 l 503 307 q 540 288 521 296 l 563 278 q 647 251 625 251 q 656 250 652 251 q 682 250 661 250 m 685 195 q 650 197 652 195 q 547 225 614 197 l 540 228 q 438 283 496 245 q 426 307 426 293 q 434 327 426 317 q 496 365 442 336 l 502 368 q 606 397 552 389 l 628 399 q 656 401 642 399 q 728 397 708 401 q 768 368 758 389 q 770 363 769 366 q 772 356 772 359 q 774 349 773 353 q 776 340 776 345 l 777 302 l 773 282 q 742 216 761 235 q 722 203 738 210 q 685 195 705 195 m 667 41 q 884 148 808 41 q 933 312 933 222 q 810 532 933 469 q 678 557 746 557 q 343 450 480 555 q 327 445 336 445 q 301 463 309 445 q 269 647 269 553 q 273 700 269 696 q 296 781 285 758 q 334 848 324 838 l 335 850 q 362 880 340 859 l 370 887 l 372 887 q 380 892 374 890 q 390 898 385 895 q 403 903 395 901 q 412 905 411 905 q 470 928 448 907 q 492 982 492 948 q 471 1037 492 1013 q 416 1061 449 1061 q 228 963 300 1050 q 114 637 114 826 q 133 487 114 563 l 134 486 q 373 140 179 258 q 667 41 536 41 m 667 -14 q 346 94 521 -14 q 80 475 132 222 q 60 637 60 556 q 187 998 60 846 q 412 1115 273 1101 l 415 1115 q 509 1075 471 1115 q 547 982 547 1035 q 509 890 547 925 q 416 850 472 856 q 406 845 407 846 q 403 843 404 844 q 401 841 401 842 q 399 840 400 840 q 385 825 391 833 q 374 811 380 818 q 346 758 363 796 l 336 735 q 323 646 326 700 q 342 515 323 579 q 678 612 483 609 q 833 581 770 612 q 987 312 987 502 q 929 117 987 198 q 667 -14 836 -14 z "},"7":{"ha":916,"x_min":60,"x_max":945,"o":"m 490 12 q 541 35 517 12 q 557 77 557 54 l 557 125 q 568 215 557 208 q 589 222 578 222 q 713 218 632 218 l 826 213 q 872 233 852 213 q 891 282 891 256 q 872 330 891 311 q 822 350 853 349 l 613 358 q 587 385 587 361 q 593 412 587 401 l 595 429 q 632 680 605 469 q 640 696 633 689 q 708 867 708 757 q 624 967 708 967 q 511 803 544 967 q 484 781 505 781 q 423 799 456 781 q 327 875 363 830 q 324 878 326 875 q 258 1012 273 947 q 254 1029 254 1020 q 251 1040 251 1035 l 252 1063 q 236 1104 252 1086 q 184 1128 212 1128 q 137 1111 155 1128 q 114 1044 114 1088 q 180 845 114 959 q 331 694 233 755 q 463 646 395 654 q 486 620 486 643 l 477 555 q 441 389 449 395 q 396 382 433 382 q 331 315 331 382 q 347 266 331 286 q 397 244 363 245 q 416 236 408 244 q 423 218 423 228 l 423 216 q 419 129 419 170 q 420 81 419 104 q 442 31 423 50 q 490 12 461 12 m 490 -42 q 406 -8 441 -42 q 366 77 370 26 l 365 129 q 368 194 365 160 q 305 232 328 202 q 277 315 277 269 q 307 399 277 361 q 401 437 338 437 q 429 597 420 537 q 302 648 363 609 q 134 818 193 716 q 60 1044 60 944 q 98 1149 60 1109 q 184 1183 133 1183 q 275 1142 233 1183 q 307 1063 307 1111 l 307 1053 q 307 1036 307 1039 q 309 1031 308 1034 q 449 846 335 906 l 464 840 q 624 1021 509 1021 q 704 997 666 1021 q 762 867 762 960 q 684 663 762 739 q 648 411 655 442 q 825 405 773 407 q 911 368 876 403 q 945 282 945 332 q 912 197 945 236 q 826 159 879 159 l 711 164 q 612 165 652 164 l 612 102 l 613 79 q 579 -1 613 33 q 490 -42 541 -42 z "},"8":{"ha":735,"x_min":60,"x_max":675,"o":"m 316 264 q 365 278 342 264 q 381 331 381 289 q 339 407 381 393 l 336 408 q 301 419 316 419 q 293 418 297 419 q 285 415 289 416 q 237 380 255 407 l 237 378 q 225 339 225 361 q 266 277 225 294 q 316 264 292 264 m 401 637 q 443 659 426 637 q 460 704 460 680 q 426 777 460 730 l 422 781 q 361 822 400 814 q 341 822 343 822 q 331 814 339 822 q 304 750 304 791 q 335 675 305 707 q 401 637 369 637 m 316 210 q 243 228 279 210 q 171 339 171 263 q 193 410 171 377 q 274 469 222 456 q 301 473 293 473 q 361 456 328 473 q 435 331 435 429 q 316 210 435 210 m 401 583 q 296 639 346 583 q 250 750 250 688 q 280 840 250 804 q 343 876 311 876 q 468 811 423 876 l 471 807 q 514 704 514 747 q 482 623 514 662 q 401 583 450 583 m 363 54 q 473 94 425 54 q 563 320 563 179 q 553 420 563 376 q 518 465 545 450 q 460 487 491 479 q 439 511 439 492 q 454 536 439 528 q 472 548 469 545 q 597 627 544 576 q 621 690 621 654 q 608 768 621 730 q 507 933 572 860 l 506 935 q 363 1020 439 1020 q 247 954 302 1015 q 175 750 175 868 q 229 591 175 650 q 256 569 241 578 q 271 544 271 560 q 229 498 271 518 l 222 494 q 126 332 159 442 q 114 259 114 292 q 193 114 119 168 q 363 54 273 54 m 363 0 q 160 71 255 0 q 61 227 81 130 q 60 258 60 236 q 75 349 60 300 q 189 537 113 475 l 199 544 q 121 750 121 613 q 206 989 121 894 q 362 1074 283 1074 q 548 968 464 1074 q 659 787 618 887 q 675 690 675 745 q 636 589 675 632 q 536 517 601 552 q 605 434 590 491 q 617 331 617 391 q 510 54 617 157 l 509 52 q 363 0 444 0 z "},"9":{"ha":872,"x_min":60,"x_max":812,"o":"m 494 623 q 534 635 521 623 l 551 662 q 572 753 572 708 q 540 789 566 783 l 537 791 q 373 821 484 811 l 350 822 q 305 803 338 822 q 300 768 300 788 q 302 746 300 757 q 354 652 319 675 q 446 623 408 627 l 494 623 m 445 567 q 328 604 404 567 q 250 734 274 631 q 245 768 245 750 q 259 833 245 806 q 270 845 263 841 q 350 876 320 876 l 377 875 q 555 841 496 864 q 627 761 613 825 l 627 745 q 587 617 627 680 l 579 605 q 552 581 574 594 q 494 568 530 568 l 445 567 m 387 -7 q 487 62 456 -7 q 507 164 502 107 l 515 228 q 530 318 522 279 q 544 400 538 357 q 560 422 547 415 q 699 544 647 460 q 758 742 758 643 q 637 949 758 882 q 430 1004 538 994 l 357 1009 q 189 955 266 1009 q 129 869 138 910 q 114 768 114 803 q 212 552 114 640 q 385 448 285 486 q 403 423 403 442 q 392 336 403 416 q 381 254 385 300 q 372 163 377 209 q 345 140 368 140 q 307 156 339 140 l 279 168 q 174 206 210 206 q 115 144 115 206 q 176 73 115 83 q 248 39 212 65 q 387 -7 332 -7 m 387 -61 q 220 -7 317 -61 l 217 -5 q 165 20 190 15 q 61 148 61 43 l 61 156 q 174 260 75 260 q 305 216 225 260 l 321 208 l 327 260 l 338 346 q 346 404 343 373 q 175 513 248 445 q 60 768 60 618 q 76 880 60 810 q 155 997 90 940 l 156 998 q 357 1063 247 1063 q 661 998 519 1063 l 663 997 q 812 742 812 913 q 745 515 812 627 q 595 378 689 425 q 583 308 590 340 q 562 159 572 252 q 387 -61 541 -61 z "},"\u0000":{"ha":1042,"x_min":87,"x_max":955,"o":"m 87 0 l 87 1042 l 955 1042 l 955 0 l 87 0 z "}," ":{"ha":434,"x_min":0,"x_max":0,"o":""},"A":{"ha":726,"x_min":60,"x_max":666,"o":"m 426 427 q 430 437 429 430 l 430 453 q 427 593 427 507 q 396 736 427 686 q 380 750 388 750 q 353 719 370 750 q 339 669 339 682 q 328 623 339 656 q 315 491 315 567 l 315 444 q 376 434 347 441 q 423 427 404 427 l 426 427 m 425 373 q 367 380 397 373 q 308 389 336 388 q 296 388 302 389 q 288 387 290 387 q 267 395 275 387 q 259 416 259 404 l 260 444 q 277 636 260 574 l 285 673 q 302 739 286 694 l 304 742 q 380 804 336 804 q 442 766 415 804 q 481 593 481 701 l 481 559 q 484 454 481 507 l 484 430 q 449 378 476 393 q 425 373 444 373 m 164 43 q 195 91 184 43 q 220 145 203 125 q 376 217 279 217 q 473 184 425 217 q 505 155 492 176 l 511 126 l 522 104 q 547 73 522 100 q 576 54 564 54 q 590 65 581 54 q 612 159 612 94 q 611 306 612 232 q 605 460 610 380 q 600 620 600 541 q 564 883 600 754 q 384 1029 533 1029 q 274 1002 327 1029 q 168 848 195 952 q 137 624 149 777 q 127 380 132 513 q 126 353 127 355 q 122 328 122 340 q 121 304 122 315 q 114 205 114 254 q 127 86 114 119 q 151 48 140 53 q 164 43 161 43 m 164 -11 q 60 205 60 -11 q 66 312 60 269 l 68 326 q 73 365 68 346 q 84 628 81 589 q 117 861 91 773 q 245 1048 149 987 q 384 1084 302 1084 q 616 897 571 1084 q 654 620 654 761 q 659 463 654 543 q 666 243 662 418 l 666 159 q 633 31 666 73 q 576 0 609 0 q 507 37 540 0 q 473 81 477 69 q 461 104 468 92 l 458 111 q 450 136 454 134 q 445 138 446 137 q 374 163 414 160 q 266 115 308 163 l 264 114 q 247 77 254 99 q 164 -11 224 -11 z "},"B":{"ha":720,"x_min":60,"x_max":661,"o":"m 197 38 l 155 39 q 88 88 117 41 q 60 225 60 136 q 79 506 60 376 q 92 689 92 597 l 92 727 q 88 784 88 757 q 109 907 88 848 q 151 986 115 951 q 319 1057 221 1057 q 498 999 414 1057 q 583 834 583 941 q 537 705 583 761 q 585 680 562 694 q 644 595 628 650 q 661 452 661 540 q 511 114 661 202 q 270 45 408 54 l 269 45 l 252 42 q 197 38 233 38 m 197 92 q 241 95 220 92 q 267 99 256 99 q 483 160 392 109 q 606 452 606 233 q 593 581 606 515 q 481 670 575 637 q 463 693 463 677 q 472 716 463 707 q 529 834 529 765 q 469 954 529 914 q 319 1002 397 1002 q 189 947 245 1002 q 161 898 165 924 l 160 892 q 142 784 142 840 q 146 732 142 760 q 133 498 146 593 q 114 225 114 336 q 136 114 114 160 q 153 96 144 99 q 197 92 161 92 m 339 227 q 290 250 312 227 q 269 311 269 274 q 271 349 269 321 l 274 373 q 279 444 279 408 q 277 496 279 468 l 277 502 q 286 536 277 519 q 331 557 298 557 l 334 557 q 468 488 434 545 q 498 400 498 437 q 420 262 498 321 q 339 227 376 227 m 339 281 q 388 304 357 281 q 444 400 444 347 q 331 503 444 490 l 331 502 q 334 444 334 472 q 328 365 334 404 q 323 311 324 338 q 334 282 323 290 l 339 281 m 347 669 q 290 703 315 669 q 260 827 260 745 q 258 865 260 846 l 258 869 q 307 936 258 936 l 309 936 q 438 795 438 918 q 414 711 438 754 q 347 669 389 669 m 347 723 q 368 741 355 723 q 384 795 384 769 q 313 880 384 873 l 312 871 q 315 825 315 849 q 318 776 315 800 q 334 735 321 751 q 347 723 343 723 z "},"C":{"ha":898,"x_min":60,"x_max":838,"o":"m 530 126 q 621 134 574 126 q 741 181 704 149 q 777 243 777 213 q 761 308 777 271 q 743 320 754 319 q 682 324 722 324 l 662 323 q 612 328 628 323 q 556 341 585 336 q 495 355 528 346 q 393 469 393 382 q 420 579 393 532 q 502 633 453 633 q 522 629 515 633 l 600 586 q 650 572 624 572 q 765 637 730 575 q 784 722 784 675 q 776 787 784 751 q 696 911 755 872 q 581 943 640 943 q 537 939 559 943 q 370 883 448 924 q 114 499 114 760 q 160 324 114 401 q 331 170 227 213 q 530 126 435 126 m 530 72 q 307 121 425 72 q 114 297 189 170 q 60 499 60 387 q 69 600 60 547 q 346 932 117 819 q 529 993 431 975 q 581 997 555 997 q 724 958 655 997 l 726 958 q 827 800 802 905 q 838 722 838 758 q 814 613 838 663 l 812 612 q 665 518 766 529 q 587 532 617 518 q 583 532 585 532 q 574 538 581 533 q 500 579 568 543 q 481 571 492 579 q 448 469 448 537 q 457 435 448 442 q 510 407 469 418 q 568 395 540 400 q 625 381 597 389 q 663 378 639 378 l 681 378 q 753 374 727 378 q 808 334 788 368 l 810 331 q 831 243 831 283 q 780 143 831 189 q 629 80 728 98 q 530 72 579 72 z "},"D":{"ha":854,"x_min":60,"x_max":795,"o":"m 366 434 q 412 457 387 434 q 491 602 491 525 q 446 678 491 643 q 368 713 400 713 q 362 576 362 694 l 362 567 q 358 510 362 537 q 354 456 354 483 q 366 434 357 434 m 366 380 q 300 444 313 380 l 300 461 q 304 514 300 487 q 308 576 308 541 q 309 669 308 637 q 317 736 311 722 q 366 768 330 768 q 482 718 419 768 q 545 602 545 669 q 448 416 545 500 q 366 380 408 380 m 269 133 q 391 157 330 133 q 631 315 528 212 q 741 548 731 412 q 609 789 739 669 q 369 918 488 905 q 324 921 347 921 q 129 852 183 921 q 114 802 114 829 q 137 697 114 764 q 161 602 156 648 q 164 521 164 586 q 144 269 164 396 q 132 161 132 174 q 269 133 201 133 m 269 79 q 100 117 184 79 q 77 152 77 126 q 83 217 77 168 l 90 277 q 110 521 109 399 l 107 597 q 85 678 102 636 q 60 802 60 746 q 84 884 60 853 q 324 975 156 975 q 647 829 492 975 q 795 547 795 692 l 795 544 q 670 276 783 387 q 411 106 557 165 q 269 79 339 79 z "},"E":{"ha":903,"x_min":60,"x_max":844,"o":"m 583 54 q 731 87 686 54 q 789 193 789 137 q 736 228 789 228 q 647 189 689 216 q 488 132 566 132 q 374 180 420 132 q 336 288 336 221 q 388 420 336 365 q 472 464 423 458 q 529 467 507 467 q 584 465 556 467 q 637 463 612 463 q 670 467 661 463 q 685 517 685 475 q 556 606 685 602 l 511 609 q 323 703 370 609 q 300 799 300 749 q 368 926 300 882 q 435 943 393 943 q 597 861 515 943 q 688 807 659 807 q 703 810 697 807 l 703 811 q 747 871 741 830 q 724 941 747 907 q 661 996 700 974 q 578 1021 623 1019 q 494 1024 536 1024 q 296 1006 395 1024 l 293 1006 q 146 955 195 997 q 137 940 137 945 l 137 936 q 142 923 138 932 q 155 898 146 914 q 201 667 201 826 q 164 328 201 505 q 129 160 148 231 q 114 83 114 99 l 115 73 q 183 61 133 61 q 282 60 233 61 l 403 61 q 530 57 510 61 q 583 54 557 54 m 583 0 q 524 3 555 0 l 522 3 q 442 7 513 7 l 282 5 l 184 7 q 76 35 107 7 q 60 83 60 52 q 76 174 60 107 l 76 175 q 111 338 88 217 l 114 355 q 146 667 146 510 q 109 869 146 808 l 109 871 q 83 940 83 914 q 111 996 83 970 q 273 1059 167 1044 l 281 1059 q 494 1078 391 1078 q 582 1076 537 1078 q 689 1043 639 1073 q 802 864 802 978 q 741 769 791 803 l 734 765 q 688 753 711 753 q 560 821 636 753 l 559 822 q 435 888 492 888 q 397 880 403 888 q 354 799 354 853 q 372 727 354 762 q 513 663 403 663 l 557 661 q 658 639 608 659 q 739 517 739 604 q 719 441 739 473 l 719 439 q 637 408 699 408 q 581 410 609 408 q 529 412 553 412 q 479 410 510 412 q 426 382 454 407 q 391 288 391 343 q 414 217 391 248 q 488 186 444 186 q 617 233 543 186 q 723 281 667 267 q 736 283 728 283 q 791 271 761 283 q 844 193 844 250 q 765 45 844 113 q 764 43 765 43 q 583 0 707 0 z "},"F":{"ha":606,"x_min":60,"x_max":547,"o":"m 201 52 l 205 54 q 245 115 235 72 q 258 191 254 153 q 283 388 274 353 q 292 452 292 416 l 292 460 q 332 529 292 505 q 407 560 362 548 q 492 631 492 586 q 442 705 492 685 q 416 709 430 709 q 336 726 351 709 q 327 749 327 736 q 365 799 327 773 q 401 821 395 819 q 473 884 453 842 q 479 901 479 897 q 457 940 479 918 q 328 989 397 989 q 151 932 239 989 l 149 930 q 141 878 141 911 q 145 708 145 736 q 129 502 145 586 q 114 376 115 439 q 149 141 118 256 q 182 68 161 95 q 201 52 193 54 m 201 -3 q 159 14 182 -3 q 120 68 137 31 q 98 127 103 104 q 60 374 64 248 l 60 377 q 75 513 61 445 q 91 708 91 591 q 88 833 91 770 l 87 878 q 119 977 87 954 q 328 1043 221 1043 q 492 982 416 1043 q 533 901 533 948 q 507 834 533 873 q 420 770 480 795 l 411 765 q 463 755 448 762 q 547 631 547 718 q 503 545 547 575 q 422 509 467 522 q 359 483 384 498 q 346 460 346 475 l 346 445 q 336 373 346 410 q 312 186 330 350 q 297 103 308 144 q 251 22 286 57 q 201 -3 227 -3 z "},"G":{"ha":1063,"x_min":60,"x_max":1004,"o":"m 632 54 q 321 151 454 54 l 320 152 q 156 362 218 240 l 142 388 q 60 627 60 525 q 156 873 60 768 q 157 875 157 873 q 300 972 212 924 q 514 1050 422 1050 q 557 1047 534 1050 q 718 952 686 1027 q 731 883 731 918 q 712 811 731 830 q 652 774 693 792 q 648 773 650 774 q 600 769 624 769 q 521 781 560 769 q 456 791 488 791 q 430 789 442 791 q 423 787 427 787 q 404 773 412 783 q 385 745 385 749 q 381 739 384 742 q 320 581 320 639 q 376 465 320 529 l 377 464 q 563 330 452 370 q 642 319 601 319 l 686 321 q 755 351 715 324 q 788 380 773 363 q 766 381 781 381 q 709 374 738 381 q 631 365 661 365 q 556 381 591 365 l 555 382 q 490 491 492 418 q 510 567 490 525 q 692 654 552 654 q 856 616 785 654 l 859 614 q 1004 330 1004 522 l 1002 293 q 968 202 1001 255 l 967 199 q 632 54 861 54 m 632 109 q 922 231 837 109 q 948 293 948 277 l 949 321 q 830 568 949 495 q 745 597 781 593 l 692 600 q 544 490 551 600 q 581 430 545 450 q 631 419 604 419 q 699 429 655 419 q 766 435 732 435 q 810 430 792 435 l 811 430 q 848 385 848 415 q 785 307 848 349 q 692 267 734 270 q 642 264 655 264 q 547 278 593 264 l 545 278 q 335 430 419 324 q 270 544 290 480 l 269 547 q 266 581 266 563 q 332 764 266 654 q 363 808 335 774 q 411 840 381 830 l 419 842 q 456 845 438 845 q 537 833 496 845 q 600 823 568 823 q 636 826 617 823 q 675 855 675 844 q 677 875 675 867 l 677 887 q 669 928 677 906 q 549 993 650 978 q 514 996 532 996 q 328 926 438 996 l 327 926 q 195 836 244 880 q 114 627 114 749 q 137 516 114 568 q 189 415 160 464 l 197 403 q 205 388 205 389 q 354 194 262 275 q 632 109 473 109 z "},"H":{"ha":1046,"x_min":60,"x_max":986,"o":"m 345 41 q 365 44 353 41 q 387 63 377 47 q 396 117 396 79 l 395 330 l 393 343 q 391 416 393 406 q 388 453 388 437 q 446 517 388 509 l 477 518 q 563 521 536 518 q 614 524 590 524 q 724 496 692 524 q 755 407 755 465 q 763 322 755 365 q 770 236 770 279 l 769 179 q 781 114 769 136 q 809 85 792 92 q 845 79 826 79 q 910 106 888 79 q 932 220 932 133 q 926 414 932 286 q 924 517 924 465 q 929 680 924 663 q 932 773 932 727 q 929 871 932 822 l 929 872 q 907 989 929 932 q 853 1020 888 1020 q 761 910 772 1020 q 758 734 758 879 l 760 713 q 703 681 760 681 q 591 680 646 681 q 469 671 499 671 q 393 700 412 671 l 393 701 q 387 724 388 712 q 385 728 385 726 q 357 854 368 791 q 243 1009 335 1009 q 191 989 206 1006 q 168 892 168 960 q 213 705 168 818 l 221 680 q 229 650 229 654 q 206 623 229 628 q 134 572 160 616 l 134 571 q 114 510 114 540 q 130 469 114 480 q 163 465 137 465 q 193 469 189 465 q 224 472 198 472 q 255 425 255 464 q 253 395 255 410 q 251 163 251 381 q 292 61 251 103 q 345 41 313 41 m 345 -14 q 254 23 292 -14 q 197 163 197 77 q 199 400 197 384 l 201 414 q 163 411 187 411 l 133 412 q 75 452 100 415 q 60 510 60 475 q 88 601 60 556 q 167 669 118 650 l 161 686 q 114 892 114 808 q 127 981 114 930 q 213 1061 140 1039 q 241 1063 221 1063 q 342 1024 296 1063 q 388 956 374 996 q 411 863 401 917 q 437 745 420 803 q 439 736 438 741 q 441 729 439 732 q 469 726 444 726 q 587 734 496 726 q 670 735 604 735 l 704 735 q 707 918 704 883 q 723 986 709 952 q 853 1074 762 1074 q 955 1015 918 1074 l 958 1010 q 983 873 983 944 q 986 773 986 823 q 982 667 986 681 q 978 517 978 654 q 981 416 978 467 q 986 220 986 315 q 975 121 986 174 q 886 30 966 57 q 845 24 868 24 q 715 179 715 24 l 716 236 q 709 312 716 274 q 701 401 701 361 q 690 454 701 441 q 614 469 673 469 q 570 467 593 469 q 464 464 540 464 q 444 462 445 463 q 442 453 442 461 q 445 423 442 439 q 450 117 450 387 q 432 32 450 60 q 389 -5 414 4 q 345 -14 365 -14 z "},"I":{"ha":418,"x_min":60,"x_max":358,"o":"m 221 826 q 304 920 304 826 q 298 949 304 935 q 259 993 282 986 q 212 1001 222 1001 q 165 990 187 1001 q 134 955 134 972 l 133 917 q 221 826 144 826 m 222 54 q 282 156 282 54 l 282 160 q 285 240 285 171 l 281 452 q 260 681 281 621 q 205 726 244 726 q 161 709 184 726 q 115 503 115 678 q 118 426 115 464 l 118 420 q 114 336 114 378 q 122 213 114 275 q 198 62 133 115 q 222 54 210 54 m 222 0 q 164 20 189 0 q 68 206 83 87 q 60 336 60 271 q 64 423 60 380 q 61 503 61 463 q 72 644 61 590 q 178 777 98 765 q 79 913 91 804 l 80 958 q 140 1038 81 1005 q 212 1055 172 1055 q 273 1044 235 1055 q 349 970 321 1032 q 358 920 358 951 q 339 842 358 886 q 245 773 319 784 q 286 745 269 764 q 335 452 334 708 l 339 240 q 336 155 339 180 q 313 50 336 81 q 264 9 289 19 q 222 0 240 0 z "},"J":{"ha":742,"x_min":0,"x_max":682,"o":"m 189 -98 q 444 71 332 -85 q 510 231 499 151 q 521 385 521 311 l 519 431 q 526 524 519 468 q 533 663 533 591 q 513 798 533 762 q 437 844 488 844 q 403 840 422 844 q 320 788 332 825 q 305 654 305 741 q 302 374 305 514 l 302 331 q 254 130 302 191 q 243 122 250 125 q 108 46 156 83 q 54 -52 60 9 q 97 -88 57 -79 q 189 -98 137 -98 m 555 914 q 624 958 600 914 q 628 978 628 968 q 621 1000 628 990 q 502 1048 586 1048 q 449 1020 465 1048 q 441 989 441 1004 q 458 951 441 968 q 496 923 481 930 q 519 916 511 916 l 555 914 m 193 -152 l 184 -152 q 0 -50 0 -152 l 0 -47 q 76 90 8 38 q 214 168 126 127 q 248 331 248 218 l 248 374 q 251 654 251 514 q 270 806 251 751 q 392 894 292 871 q 437 898 412 898 l 420 911 q 387 989 387 944 q 401 1048 387 1024 q 502 1103 437 1103 q 665 1032 612 1103 q 682 978 682 1008 q 671 932 682 951 q 555 860 631 860 l 534 861 q 587 663 586 815 q 581 518 587 575 q 574 431 574 465 l 575 385 q 563 220 575 308 q 487 41 551 132 q 193 -152 362 -138 z "},"K":{"ha":882,"x_min":60,"x_max":822,"o":"m 209 81 q 283 159 259 81 q 326 252 294 195 q 366 349 357 308 q 373 370 368 362 q 414 391 387 391 q 469 359 442 391 q 514 293 479 349 q 543 250 528 271 q 568 203 557 228 q 689 113 610 113 q 765 175 751 117 q 768 198 768 187 q 751 250 768 225 l 738 273 q 722 298 726 297 q 669 363 704 309 l 667 363 q 634 406 650 389 q 600 448 618 423 q 521 528 566 491 q 511 547 513 534 q 519 567 511 559 q 575 643 555 601 l 576 646 q 650 798 621 718 l 650 799 q 669 879 669 844 q 661 913 669 897 q 647 932 654 929 l 629 933 q 519 838 568 932 l 518 836 q 463 723 486 785 q 407 620 446 665 q 362 600 389 600 q 308 627 335 600 q 260 720 267 666 q 258 817 258 746 q 222 977 258 910 q 182 1010 202 1010 q 164 1005 178 1010 q 129 966 130 983 l 127 924 q 136 841 127 884 q 145 690 145 798 q 125 388 145 557 q 114 237 114 290 q 157 103 114 144 q 209 81 186 81 m 209 27 q 123 61 167 27 q 60 237 60 110 q 71 393 60 304 q 79 480 76 438 l 79 481 q 91 690 91 613 q 82 835 91 791 q 73 924 73 879 l 75 967 q 136 1051 77 1013 q 182 1065 157 1065 q 269 1004 233 1065 q 312 817 312 929 q 315 726 312 749 q 346 665 319 692 q 362 654 358 654 q 366 656 365 654 q 411 738 397 692 q 472 864 426 792 q 628 986 537 986 l 650 986 q 711 936 688 986 q 723 879 723 911 q 701 779 723 833 q 623 617 670 694 q 578 549 605 581 q 643 480 613 518 q 676 441 659 458 q 713 393 693 425 q 755 342 742 353 q 787 298 769 332 l 798 279 q 822 198 822 241 q 817 161 822 180 q 720 61 798 83 q 690 58 712 58 q 519 180 578 58 q 496 221 510 201 q 468 263 481 241 q 418 334 425 330 q 372 224 407 285 q 335 142 350 184 q 209 27 297 27 z "},"L":{"ha":742,"x_min":60,"x_max":682,"o":"m 458 41 q 594 53 567 41 q 628 123 628 61 q 627 143 628 132 q 625 176 625 155 q 620 227 625 205 q 496 259 609 259 q 467 258 481 259 q 445 256 452 256 q 400 274 412 256 q 393 296 393 283 l 397 377 q 393 544 393 476 l 393 566 q 396 680 396 614 l 397 728 q 396 811 397 785 q 361 873 393 850 q 334 884 345 883 l 305 886 q 259 883 282 886 l 208 884 q 152 878 178 884 q 121 802 121 868 q 115 697 121 780 l 114 671 q 119 594 114 635 q 125 450 125 553 l 123 419 q 127 274 123 331 l 126 263 q 125 232 126 247 q 123 202 123 217 q 127 155 123 179 q 132 118 132 130 q 157 56 132 61 l 159 54 q 232 43 186 43 l 260 45 l 458 41 m 502 -14 q 260 -9 435 -14 l 232 -11 q 138 4 175 -11 q 77 117 80 23 q 73 145 76 133 q 69 202 69 170 q 71 235 69 220 q 72 263 72 250 q 73 275 72 270 q 69 389 69 331 l 71 450 q 65 590 71 541 q 60 673 60 632 l 61 700 q 66 802 66 781 q 71 848 66 834 q 138 929 88 916 q 208 939 170 939 l 255 937 q 305 940 281 940 l 338 939 q 391 917 363 937 q 450 815 445 880 q 452 760 452 796 q 448 544 450 606 q 450 411 448 484 l 452 376 l 449 311 q 496 313 472 313 q 612 300 571 313 q 671 241 661 283 q 680 176 680 213 q 681 146 680 157 q 682 123 682 134 q 613 1 682 23 q 502 -14 575 -14 z "},"M":{"ha":922,"x_min":60,"x_max":863,"o":"m 218 54 q 307 118 292 54 q 323 210 319 165 q 327 247 324 231 q 345 420 340 334 l 349 477 q 357 494 350 487 q 376 502 365 502 q 401 486 393 502 q 473 446 415 450 q 545 503 517 446 q 570 518 553 518 l 578 517 q 597 492 597 511 l 597 488 q 590 361 590 411 q 600 239 590 298 q 701 73 613 141 q 753 57 724 57 q 793 76 777 57 q 808 123 808 95 q 802 193 808 159 l 802 195 q 796 307 796 241 q 800 435 796 372 q 803 560 803 499 l 802 652 q 766 850 799 754 q 747 883 761 871 q 723 895 732 895 q 676 871 696 895 q 640 820 656 846 q 606 770 624 793 l 605 768 q 515 726 564 726 q 481 731 498 726 q 365 815 412 750 q 315 876 342 846 q 259 906 288 906 q 216 892 239 906 q 167 804 174 857 q 160 693 160 742 l 163 591 q 141 396 163 514 q 118 237 129 334 l 118 236 q 114 180 114 209 l 115 142 q 144 79 118 102 q 218 54 180 54 m 218 0 q 113 35 163 0 l 110 37 q 61 140 65 75 l 60 179 q 87 407 60 262 q 109 591 109 518 l 106 693 q 114 811 106 745 q 182 936 122 886 l 186 937 q 259 960 222 960 q 357 913 311 960 l 357 911 q 408 848 384 882 q 495 783 445 798 q 514 780 505 780 q 564 804 541 780 q 593 846 579 825 q 633 905 612 879 q 723 949 671 949 q 782 925 755 949 q 818 867 808 901 q 856 654 853 764 l 857 560 q 854 434 857 498 q 850 307 850 370 q 857 204 850 245 q 863 123 863 163 q 837 43 863 76 q 836 42 837 42 q 753 3 802 3 q 670 30 708 3 l 669 30 q 545 231 563 111 q 536 361 536 296 l 537 411 q 472 392 509 392 q 446 395 449 392 q 399 411 419 400 q 381 239 395 326 l 381 237 q 377 206 378 225 l 377 205 q 358 103 373 156 q 218 0 328 0 z "},"N":{"ha":739,"x_min":60,"x_max":680,"o":"m 487 54 q 524 71 506 54 q 575 231 566 113 q 585 293 576 251 q 614 616 612 452 q 621 730 614 677 q 625 804 625 766 l 624 842 q 591 926 620 892 q 549 951 568 951 q 507 921 529 951 q 467 804 473 867 q 461 692 461 742 l 464 598 q 452 457 464 528 q 410 407 442 407 q 361 457 377 407 q 347 536 347 494 q 320 799 347 670 q 255 916 293 916 q 203 887 236 916 q 138 749 151 833 q 126 568 126 656 q 114 153 125 317 q 115 120 114 125 q 118 111 117 115 q 165 62 127 62 q 237 119 202 62 q 273 197 260 156 q 298 216 279 216 q 321 202 312 216 q 387 118 346 163 q 450 65 433 71 q 487 54 477 54 m 487 0 q 305 132 406 0 q 165 8 248 8 q 107 28 137 8 q 60 155 60 60 l 60 156 q 72 568 71 319 q 85 755 72 661 q 165 926 99 859 q 255 970 208 970 q 373 810 339 970 q 401 534 401 675 q 404 507 401 521 q 410 597 410 552 l 407 692 q 414 814 407 743 q 461 949 422 884 l 463 952 q 549 1005 502 1005 q 631 964 590 1005 q 678 845 673 922 l 680 804 q 675 725 680 755 q 669 614 671 694 q 639 283 666 434 q 629 225 633 256 q 562 31 618 87 q 487 0 530 0 z "},"O":{"ha":697,"x_min":60,"x_max":637,"o":"m 382 292 q 419 350 400 292 l 419 351 q 465 557 454 435 q 468 597 468 578 q 420 755 468 696 l 418 757 q 351 814 380 812 q 308 787 313 810 q 264 538 264 656 q 299 378 264 457 q 382 292 334 300 m 381 236 q 377 237 378 236 q 250 355 297 248 q 210 538 210 446 q 255 802 210 667 q 256 803 255 803 q 324 865 270 845 l 330 867 l 350 868 q 465 787 407 868 q 469 780 469 781 q 522 597 522 704 q 519 552 522 576 q 456 294 505 401 q 381 236 427 236 m 354 54 q 529 141 476 54 q 555 278 555 198 q 568 376 560 328 q 583 537 583 454 q 513 871 583 746 q 411 957 473 930 q 302 983 349 983 q 172 884 197 983 q 167 871 171 876 q 119 713 126 788 q 114 583 114 633 q 118 486 114 533 q 122 403 121 446 q 156 160 122 244 q 354 54 209 54 m 354 0 q 107 138 176 0 q 68 401 68 232 q 64 481 66 444 q 60 583 60 530 q 66 720 60 636 q 118 895 72 803 l 119 899 q 302 1038 160 1038 q 435 1006 359 1038 q 559 899 510 974 q 637 537 637 761 q 623 365 637 449 q 609 275 614 321 q 578 117 609 184 l 576 114 q 354 0 505 0 z "},"P":{"ha":719,"x_min":60,"x_max":659,"o":"m 353 589 q 423 628 401 591 q 449 728 449 673 q 429 814 449 769 q 376 850 414 850 l 346 853 q 267 753 267 853 q 296 624 267 689 q 353 589 311 590 m 354 534 l 353 534 q 282 557 309 534 q 247 602 255 579 q 213 753 213 678 q 233 842 213 802 q 347 907 263 907 q 377 905 362 907 q 479 837 449 902 q 503 728 503 780 q 469 601 503 658 q 354 534 431 538 m 239 81 q 279 104 264 81 q 315 220 311 156 q 316 229 315 224 q 320 259 317 233 q 395 457 334 400 q 500 522 434 492 q 587 591 552 547 q 605 661 605 623 q 476 928 605 844 q 231 983 382 983 l 224 985 l 213 983 q 127 939 159 983 q 114 894 114 918 q 118 836 114 864 q 161 313 161 557 q 157 229 161 254 q 153 183 153 205 q 195 92 153 115 q 239 81 216 81 m 239 27 q 168 45 202 27 q 99 183 99 85 l 106 267 l 107 313 q 64 827 107 555 q 60 894 60 860 q 81 968 60 935 l 83 970 q 227 1039 132 1039 q 505 974 395 1039 l 506 974 q 659 661 659 871 q 633 563 659 608 l 632 560 q 524 472 589 503 q 431 416 458 441 q 374 254 385 373 q 326 76 365 141 q 324 75 326 75 q 239 27 292 27 z "},"Q":{"ha":1147,"x_min":60,"x_max":1261,"o":"m 498 239 q 655 271 575 241 q 601 334 612 319 q 491 476 526 439 q 460 557 460 507 q 533 670 460 635 q 583 680 552 680 q 616 675 597 680 q 753 541 658 673 l 764 524 q 718 632 747 579 q 647 697 696 666 q 510 739 571 735 q 385 678 445 735 q 304 492 308 594 q 373 330 304 407 l 374 330 q 498 239 449 239 m 499 184 q 434 199 465 184 l 431 201 q 332 294 384 232 q 250 492 250 387 l 250 494 q 345 715 255 617 l 346 718 q 458 785 401 769 q 509 793 483 792 q 673 745 576 793 l 675 743 q 764 661 735 705 q 765 659 764 659 q 841 420 829 544 l 841 418 q 825 393 841 401 q 814 391 819 391 q 719 494 792 391 l 711 509 l 709 509 q 613 618 648 595 q 583 625 602 625 q 555 620 568 625 q 514 557 514 602 q 529 514 514 530 l 530 514 q 644 366 568 475 q 722 281 681 321 q 728 262 728 273 q 712 237 728 244 l 690 228 q 499 184 594 187 m 1138 -68 q 1203 -26 1184 -68 q 1207 -1 1207 -14 q 1185 49 1207 26 q 1165 62 1177 58 q 1036 153 1124 73 q 940 250 941 232 q 945 267 940 259 q 979 391 979 311 q 958 533 979 453 q 854 766 917 684 q 730 865 802 829 q 511 928 616 928 q 203 755 328 928 q 127 591 152 685 q 114 491 114 541 q 184 264 114 374 q 435 54 302 91 q 505 50 458 50 q 708 90 594 50 q 819 141 768 110 q 833 145 826 145 q 852 137 844 145 q 1114 -62 1020 -30 l 1115 -64 q 1138 -68 1126 -68 m 1138 -122 q 829 84 1042 -122 q 726 38 780 57 q 505 -4 604 -4 l 477 -4 q 422 3 446 -4 q 140 235 270 43 q 60 491 60 351 q 75 605 60 548 q 160 788 102 709 q 332 940 231 884 q 511 982 411 982 q 755 914 629 982 q 897 802 837 872 q 1010 547 963 722 q 1034 391 1034 461 q 1002 255 1034 309 q 1072 194 1025 232 l 1089 180 q 1181 113 1157 118 q 1226 84 1204 109 q 1261 -1 1261 46 q 1252 -47 1261 -28 q 1138 -122 1217 -122 z "},"R":{"ha":826,"x_min":60,"x_max":765,"o":"m 434 713 q 506 716 464 713 q 570 739 541 719 q 583 774 583 749 q 581 798 583 785 q 556 836 571 827 q 472 849 532 849 q 426 850 448 849 q 376 834 387 849 q 361 749 361 811 l 363 718 q 367 715 365 716 q 383 714 369 715 q 434 713 397 713 m 434 659 q 329 669 349 659 q 309 705 309 678 l 307 749 q 320 840 307 798 q 423 905 336 905 l 471 903 q 563 891 521 903 q 633 811 612 880 q 637 774 637 798 q 602 696 637 720 q 510 662 562 666 q 434 659 465 659 m 623 38 q 658 50 636 38 q 692 134 692 77 q 673 279 692 210 q 589 502 650 365 q 587 503 587 502 q 534 587 570 549 q 528 606 528 597 l 529 617 q 555 633 538 633 q 680 696 629 633 q 711 798 711 738 q 699 854 711 827 q 605 942 663 918 q 514 966 547 966 q 441 945 475 966 q 427 941 434 941 q 400 964 404 941 q 372 1020 392 1017 q 331 1025 336 1025 q 241 978 279 1025 q 170 792 178 884 q 161 620 161 693 q 165 509 161 566 q 168 397 168 452 l 167 326 q 130 161 163 240 l 130 159 q 114 92 114 126 q 118 72 114 84 q 142 50 122 60 q 209 39 161 39 q 262 73 244 39 q 301 255 298 144 q 345 446 308 380 q 381 468 358 468 q 448 403 412 468 q 525 209 513 300 q 623 38 566 38 m 623 -16 q 472 198 519 -16 l 472 199 q 442 301 464 252 l 442 302 q 431 324 441 308 q 384 403 403 377 q 355 252 361 347 q 309 47 353 130 q 209 -15 275 -15 q 112 3 144 -15 q 70 47 80 22 q 60 92 60 72 q 80 182 60 138 q 113 328 109 252 l 114 397 q 111 507 114 450 q 107 620 107 564 q 117 796 107 694 q 197 1009 125 903 l 198 1012 q 327 1080 254 1080 q 381 1074 336 1080 q 445 1008 426 1067 q 514 1020 479 1020 q 629 991 557 1020 q 746 880 701 962 q 765 798 765 845 q 721 663 765 722 q 606 586 677 604 q 637 524 625 556 q 726 293 701 382 q 746 134 746 217 q 689 5 746 50 q 623 -16 661 -16 z "},"S":{"ha":954,"x_min":60,"x_max":894,"o":"m 351 -87 q 213 -60 290 -87 q 81 81 129 -30 q 60 195 60 130 q 84 326 60 245 q 232 450 111 416 q 251 453 240 453 q 321 419 292 453 q 351 342 351 385 q 332 229 351 304 q 324 182 324 190 q 381 126 327 126 q 430 137 400 126 l 431 137 q 614 243 555 178 q 632 335 632 282 q 621 407 632 369 l 621 408 q 496 526 602 477 l 475 537 q 350 783 350 600 q 358 872 350 812 q 406 986 366 932 q 525 1078 445 1040 q 666 1112 595 1112 l 720 1109 q 822 1021 779 1107 q 838 949 838 990 q 833 901 838 933 q 709 799 822 840 q 637 723 637 772 q 730 629 637 688 q 811 571 773 604 q 894 354 894 500 q 872 221 894 288 q 696 12 823 76 q 439 -77 575 -49 q 351 -87 395 -87 m 351 -33 q 429 -23 389 -33 q 671 60 556 3 q 821 237 780 114 q 840 354 840 296 q 776 530 840 475 q 703 583 741 560 q 583 723 583 655 q 690 850 583 808 q 772 897 755 873 q 784 949 784 911 q 773 997 784 974 q 717 1055 743 1053 q 680 1057 690 1057 q 666 1058 669 1058 q 549 1029 608 1058 q 449 954 480 997 q 411 859 418 910 q 404 783 404 808 q 480 594 404 642 l 519 575 q 673 422 648 515 q 686 335 686 377 q 662 216 686 269 l 658 210 q 448 85 589 132 q 381 72 411 72 q 270 178 283 72 l 270 180 q 281 245 270 209 q 297 342 294 293 q 282 382 297 366 q 265 395 273 392 q 252 399 258 399 l 244 397 q 136 311 155 372 q 114 195 114 237 q 132 103 114 148 q 231 -8 170 14 q 351 -33 300 -33 z "},"T":{"ha":700,"x_min":60,"x_max":640,"o":"m 339 33 l 374 34 q 420 52 401 35 q 437 84 435 71 l 437 113 q 430 190 437 144 l 430 191 q 408 769 408 468 q 406 898 408 846 l 412 926 q 524 967 430 967 q 576 978 559 967 q 586 985 585 981 q 334 1053 563 1053 q 126 1031 163 1053 q 114 1006 114 1019 q 176 960 114 983 q 273 921 259 947 q 278 890 278 910 q 267 761 278 837 q 258 652 259 705 q 254 500 258 575 q 251 372 251 446 l 251 285 q 232 126 251 180 q 224 83 224 100 q 240 52 224 65 l 254 45 q 339 33 283 33 m 339 -22 q 234 -7 273 -22 q 176 50 195 7 q 170 83 170 65 q 180 142 170 110 q 197 285 197 190 l 195 355 q 199 503 195 427 q 203 652 203 578 q 213 768 203 700 q 224 890 224 841 l 224 892 q 165 907 217 898 l 160 909 q 60 1006 60 944 q 72 1048 60 1028 q 133 1092 91 1082 q 334 1107 199 1107 q 640 989 627 1107 l 640 986 q 578 921 640 939 q 524 913 548 913 q 460 899 460 913 q 463 769 463 848 q 484 197 463 471 q 491 113 491 146 l 490 81 q 462 16 490 49 q 377 -20 434 -16 l 339 -22 z "},"U":{"ha":1031,"x_min":60,"x_max":971,"o":"m 378 68 q 640 266 553 71 q 661 321 652 294 q 686 342 666 340 q 711 320 704 342 q 727 277 719 298 l 727 274 q 792 149 746 205 q 861 115 823 115 q 910 146 903 115 q 917 241 917 159 q 857 422 917 315 q 776 682 776 564 q 815 806 776 762 q 840 886 840 840 q 773 968 840 964 q 697 925 734 968 q 572 609 602 821 q 544 473 555 500 l 540 461 q 384 292 499 292 q 310 325 336 292 q 283 457 283 358 q 292 567 283 503 q 300 661 294 586 q 315 804 305 761 q 327 906 327 856 q 289 989 327 962 q 283 995 285 991 q 269 1001 281 998 q 227 1004 256 1004 q 114 902 114 1004 q 118 825 114 853 q 122 723 122 798 q 126 654 123 688 q 130 487 130 594 l 132 370 q 175 222 140 292 l 175 221 q 378 68 247 68 m 381 14 l 380 14 q 229 64 297 14 q 126 198 167 110 q 77 366 85 278 q 76 468 76 381 q 72 650 76 593 q 68 723 68 685 q 64 821 68 772 q 60 902 60 850 q 104 1017 60 977 q 227 1058 148 1058 q 326 1029 302 1058 q 381 906 381 986 q 366 773 381 850 q 354 658 357 705 q 346 560 351 600 q 338 457 338 488 q 343 393 338 426 l 343 392 q 384 346 349 346 q 487 473 456 346 l 492 491 q 518 617 507 553 q 656 960 551 845 q 774 1023 709 1023 q 803 1020 795 1023 q 894 886 894 996 q 857 772 894 822 l 856 769 q 830 682 830 742 q 876 505 830 598 l 905 448 q 971 241 971 330 q 962 133 971 167 q 861 61 940 61 q 751 114 799 61 q 684 232 709 160 q 381 14 583 19 z "},"V":{"ha":977,"x_min":0,"x_max":977,"o":"m 557 43 l 578 52 q 726 307 617 68 q 784 433 753 368 q 827 490 798 460 q 906 631 875 537 q 922 713 922 678 q 886 802 922 780 q 865 804 876 804 q 836 796 850 804 q 681 618 760 751 q 640 538 659 579 q 522 420 593 420 q 431 456 477 420 l 429 457 q 354 566 380 503 q 288 707 321 632 q 232 789 264 750 q 199 834 224 799 q 156 879 186 856 q 146 883 152 882 q 71 868 100 883 q 60 848 64 859 q 58 843 60 845 q 54 825 56 841 q 84 692 54 758 q 220 454 140 566 q 298 328 259 401 q 456 104 385 179 l 456 103 q 544 43 494 58 l 557 43 m 562 -11 q 525 -7 536 -11 q 252 301 401 33 q 176 422 217 363 q 35 670 92 538 q 0 826 0 747 q 9 867 0 848 q 45 917 22 906 q 145 937 88 937 q 200 914 172 937 q 243 867 228 891 q 274 823 259 842 q 336 730 319 769 q 403 589 370 655 l 403 587 q 465 498 426 536 q 522 475 496 475 q 591 560 555 475 q 635 646 604 593 q 808 842 719 792 q 865 859 837 859 q 910 849 894 859 q 977 713 977 811 q 958 614 977 670 q 865 452 921 507 q 833 408 848 434 q 781 297 806 353 q 693 119 741 202 q 605 5 639 23 q 581 -5 597 0 q 562 -11 566 -11 z "},"W":{"ha":1176,"x_min":0,"x_max":1176,"o":"m 439 52 q 476 115 456 56 l 477 117 q 557 326 528 235 q 582 343 564 343 q 665 236 606 343 l 666 233 q 757 91 671 210 l 761 85 q 823 66 798 66 q 845 77 836 66 q 918 266 873 107 q 993 467 945 369 q 1076 707 1047 585 q 1115 841 1093 774 q 1122 880 1122 864 q 1046 936 1122 917 l 1038 940 q 948 662 986 840 q 871 385 922 549 q 827 279 859 328 q 806 266 819 267 q 784 277 792 266 q 671 480 709 372 l 647 541 q 656 575 647 560 q 727 662 671 598 q 787 764 787 750 q 780 779 787 770 q 749 800 762 800 q 735 789 743 800 q 598 648 675 708 q 583 643 591 643 q 559 655 567 643 q 534 696 547 674 l 534 697 q 458 799 506 757 q 434 806 448 806 q 382 802 406 806 l 380 802 q 439 720 401 762 q 517 616 490 663 q 533 553 533 585 l 532 526 q 525 498 532 511 q 512 476 518 486 q 502 460 506 467 q 477 445 494 446 q 453 460 463 446 q 349 636 404 549 q 203 895 244 795 l 203 897 q 127 993 175 990 q 73 985 100 993 q 56 981 65 985 q 91 873 65 926 l 92 871 q 129 758 114 815 q 209 562 156 655 l 210 562 q 330 279 270 448 q 350 216 343 240 q 439 52 399 52 m 445 -3 q 369 38 399 -3 q 298 201 332 84 q 278 262 292 224 q 161 536 221 425 q 77 743 106 635 l 41 852 q 0 983 11 916 q 126 1047 0 1047 q 255 914 210 1047 q 395 666 293 819 q 477 529 437 598 l 477 566 q 400 684 473 602 q 323 791 349 741 q 319 808 319 803 q 326 833 319 821 q 434 860 345 860 q 492 841 467 860 q 494 840 494 841 q 589 709 547 793 q 692 822 646 760 q 693 823 692 823 q 749 854 718 854 q 822 812 788 854 l 823 812 q 841 762 841 788 q 770 629 841 732 l 757 613 q 703 547 711 560 l 722 500 q 800 343 753 418 l 819 400 q 894 674 869 563 q 993 972 936 865 q 994 974 994 972 q 1034 997 1009 997 q 1063 987 1044 997 q 1176 880 1176 954 q 1166 826 1176 856 l 1166 825 q 1127 694 1145 758 q 1042 444 1099 567 q 970 251 997 350 q 909 79 945 163 l 909 77 q 823 12 878 12 q 738 37 785 12 q 711 61 720 45 q 616 212 632 172 l 590 255 q 528 96 564 183 q 454 -1 499 14 l 445 -3 z "},"X":{"ha":897,"x_min":16,"x_max":880,"o":"m 119 -87 l 117 -87 q 42 -38 71 -87 l 42 -37 q 16 65 16 9 q 198 368 16 227 q 312 532 312 461 q 290 604 312 564 l 286 612 q 197 743 247 686 q 34 1031 34 940 q 63 1100 34 1070 q 142 1130 92 1130 q 224 1103 175 1130 q 316 1031 273 1077 q 420 898 391 955 q 442 861 429 882 q 473 825 464 830 q 557 941 525 878 q 689 1103 617 1053 q 690 1104 689 1104 q 755 1126 724 1126 q 869 1028 831 1126 l 869 1027 q 880 963 880 994 q 722 696 880 853 q 606 499 606 578 q 712 342 606 431 q 838 138 838 237 q 749 8 838 41 l 747 8 q 694 0 720 0 q 635 12 663 0 l 632 14 q 464 231 529 75 l 449 205 q 396 130 427 163 l 347 77 q 259 -12 307 28 q 256 -15 258 -15 q 119 -87 174 -84 m 117 -33 q 222 27 149 -33 l 224 28 q 307 113 269 66 l 307 114 q 357 168 331 141 q 401 229 382 195 q 472 312 445 312 q 498 294 491 312 q 658 61 557 121 q 694 54 675 54 q 784 138 784 54 q 678 301 784 212 q 552 499 552 406 q 581 605 552 548 l 582 606 q 684 734 617 666 q 826 963 826 876 q 818 1010 826 986 q 755 1072 796 1072 q 719 1058 739 1072 q 606 917 658 1015 q 499 774 564 837 q 480 766 491 766 q 397 831 439 766 l 373 871 q 372 872 373 872 q 277 993 347 922 l 275 994 q 201 1055 240 1034 q 142 1076 163 1076 q 99 1059 121 1076 q 88 1031 88 1048 q 127 932 88 993 q 237 779 175 854 q 331 643 293 716 l 335 636 q 366 532 366 578 q 232 326 366 434 q 231 324 232 324 q 71 65 71 201 q 90 -11 71 23 q 117 -33 100 -33 z "},"Y":{"ha":883,"x_min":60,"x_max":823,"o":"m 411 -18 q 690 241 639 -18 q 711 372 704 307 q 739 547 720 457 q 769 776 769 694 q 730 943 769 902 q 670 966 705 966 q 562 906 602 966 q 538 860 551 888 q 411 730 490 730 q 311 803 350 730 q 277 905 277 860 l 277 924 q 319 1017 277 989 l 312 1027 q 256 1042 296 1042 q 198 1027 228 1042 q 127 951 138 997 q 114 856 114 894 q 298 581 114 669 q 381 563 340 563 q 515 624 471 563 q 537 635 522 635 q 549 631 543 635 q 560 622 556 628 q 564 608 564 616 q 564 603 564 606 q 562 585 563 600 q 562 534 562 570 l 563 406 q 559 277 563 334 q 534 196 556 236 q 487 145 513 156 q 445 134 461 134 q 350 187 400 134 q 286 229 312 229 l 275 228 q 206 187 206 203 l 203 142 q 237 50 203 92 q 327 -8 281 0 q 411 -18 381 -18 m 411 -72 q 317 -61 376 -72 q 197 15 251 -49 q 149 142 149 71 q 153 191 149 152 q 178 239 156 220 q 260 281 209 267 q 286 283 269 283 q 391 225 335 283 q 445 189 425 189 q 464 194 450 189 q 487 224 472 195 q 505 281 502 252 q 509 404 509 336 q 507 534 507 441 l 507 543 q 381 509 454 509 q 275 532 324 509 q 60 856 60 636 q 75 963 60 901 q 174 1076 92 1035 q 256 1096 214 1096 q 326 1082 290 1096 q 358 1055 346 1073 q 378 1016 378 1039 q 355 977 378 991 q 331 924 331 962 l 331 917 q 337 872 332 887 q 357 830 342 857 l 358 830 q 411 784 382 784 q 487 879 453 784 q 515 936 502 914 q 582 996 538 971 q 670 1020 625 1020 q 823 776 823 1020 q 793 536 823 681 q 765 366 774 449 q 745 231 758 298 q 510 -60 696 -4 q 411 -72 469 -72 z "},"Z":{"ha":952,"x_min":60,"x_max":892,"o":"m 784 -33 q 800 -28 792 -33 q 833 8 829 -14 q 838 62 838 39 l 837 95 q 768 247 836 187 q 624 286 719 282 q 488 331 495 289 q 483 359 483 349 q 547 467 483 407 q 593 503 574 491 q 730 635 707 572 q 743 693 743 670 q 666 808 743 776 q 415 852 578 848 l 410 852 q 338 854 400 854 l 275 853 q 160 819 216 848 q 114 712 114 798 q 182 635 118 648 q 244 629 212 629 l 308 631 q 441 605 384 631 q 477 557 477 589 q 354 448 477 499 q 199 361 274 415 q 134 239 134 315 q 172 170 134 202 q 365 80 247 106 q 487 43 404 72 q 643 1 590 9 q 738 -23 690 -7 q 784 -33 764 -33 m 784 -87 q 719 -75 754 -87 q 635 -53 677 -61 q 469 -8 568 -42 q 353 27 412 12 q 137 129 221 56 q 80 239 80 178 q 168 406 80 340 q 350 507 247 463 q 422 553 414 538 q 401 563 418 557 q 308 576 357 576 l 244 575 q 171 582 205 575 q 60 707 69 604 l 60 711 q 136 868 60 829 q 271 907 202 901 q 338 909 297 909 q 416 906 393 909 q 689 857 581 906 q 798 693 798 807 q 781 616 798 661 q 621 457 753 536 q 583 426 606 448 q 537 359 537 382 l 538 351 q 625 340 552 343 q 802 289 749 335 q 891 96 890 213 l 892 64 q 886 -1 892 35 q 825 -77 878 -49 q 784 -87 807 -87 z "},"a":{"ha":726,"x_min":60,"x_max":665,"o":"m 419 460 q 446 549 446 468 q 439 629 446 579 q 392 685 437 663 l 378 686 q 347 670 362 686 q 316 618 327 648 l 315 617 q 292 511 292 560 q 301 461 292 484 l 307 463 q 346 472 326 472 q 388 465 365 472 q 419 460 404 460 m 422 406 l 420 406 q 373 412 396 406 q 346 418 357 418 q 328 412 338 418 q 296 407 317 407 q 256 430 270 407 q 237 511 237 467 q 264 637 237 571 q 308 707 281 678 q 378 741 339 741 q 411 735 400 741 q 472 688 454 715 q 500 549 500 646 q 422 406 500 411 m 526 43 q 566 60 544 43 q 608 142 605 100 q 610 222 610 194 q 606 307 610 290 q 597 468 602 324 q 583 668 594 570 q 540 860 572 766 l 540 861 q 472 990 511 947 q 378 1028 435 1028 q 332 1024 357 1028 q 140 722 141 982 l 141 674 q 130 564 140 620 q 114 278 114 458 q 124 118 114 151 q 165 61 134 85 q 194 50 180 50 q 222 65 208 50 q 232 138 229 73 q 237 228 232 183 q 279 304 241 262 q 343 350 316 346 l 369 353 q 449 245 437 353 q 454 182 454 205 q 460 122 456 152 q 491 61 467 79 q 526 43 515 43 m 526 -11 q 457 18 496 -11 q 406 114 414 50 q 400 180 401 146 q 385 279 397 248 q 370 298 378 298 l 353 296 q 349 295 351 296 q 335 283 346 294 q 292 220 298 251 q 286 138 286 179 q 283 87 286 121 q 277 50 281 58 q 263 28 271 37 q 194 -4 231 -4 q 134 16 164 -4 q 73 102 90 46 q 60 278 60 146 q 76 574 60 483 q 87 675 85 625 l 85 722 q 160 981 85 884 q 321 1077 220 1055 q 378 1082 346 1082 q 511 1027 458 1082 q 592 877 559 975 q 637 675 625 779 q 651 469 648 572 q 659 320 654 395 q 665 222 665 292 q 662 138 665 193 q 602 20 658 76 l 600 18 q 526 -11 563 -11 z "},"b":{"ha":720,"x_min":60,"x_max":661,"o":"m 197 38 l 155 39 q 88 88 117 41 q 60 225 60 136 q 79 506 60 376 q 92 689 92 597 l 92 727 q 88 784 88 757 q 109 907 88 848 q 151 986 115 951 q 319 1057 221 1057 q 498 999 414 1057 q 583 834 583 941 q 537 705 583 761 q 585 680 562 694 q 644 595 628 650 q 661 452 661 540 q 511 114 661 202 q 270 45 408 54 l 269 45 l 252 42 q 197 38 233 38 m 197 92 q 241 95 220 92 q 267 99 256 99 q 483 160 392 109 q 606 452 606 233 q 593 581 606 515 q 481 670 575 637 q 463 693 463 677 q 472 716 463 707 q 529 834 529 765 q 469 954 529 914 q 319 1002 397 1002 q 189 947 245 1002 q 161 898 165 924 l 160 892 q 142 784 142 840 q 146 732 142 760 q 133 498 146 593 q 114 225 114 336 q 136 114 114 160 q 153 96 144 99 q 197 92 161 92 m 339 227 q 290 250 312 227 q 269 311 269 274 q 271 349 269 321 l 274 373 q 279 444 279 408 q 277 496 279 468 l 277 502 q 286 536 277 519 q 331 557 298 557 l 334 557 q 468 488 434 545 q 498 400 498 437 q 420 262 498 321 q 339 227 376 227 m 339 281 q 388 304 357 281 q 444 400 444 347 q 331 503 444 490 l 331 502 q 334 444 334 472 q 328 365 334 404 q 323 311 324 338 q 334 282 323 290 l 339 281 m 347 669 q 290 703 315 669 q 260 827 260 745 q 258 865 260 846 l 258 869 q 307 936 258 936 l 309 936 q 438 795 438 918 q 414 711 438 754 q 347 669 389 669 m 347 723 q 368 741 355 723 q 384 795 384 769 q 313 880 384 873 l 312 871 q 315 825 315 849 q 318 776 315 800 q 334 735 321 751 q 347 723 343 723 z "},"c":{"ha":898,"x_min":60,"x_max":838,"o":"m 530 126 q 621 134 574 126 q 741 181 704 149 q 777 243 777 213 q 761 308 777 271 q 743 320 754 319 q 682 324 722 324 l 662 323 q 612 328 628 323 q 556 341 585 336 q 495 355 528 346 q 393 469 393 382 q 420 579 393 532 q 502 633 453 633 q 522 629 515 633 l 600 586 q 650 572 624 572 q 765 637 730 575 q 784 722 784 675 q 776 787 784 751 q 696 911 755 872 q 581 943 640 943 q 537 939 559 943 q 370 883 448 924 q 114 499 114 760 q 160 324 114 401 q 331 170 227 213 q 530 126 435 126 m 530 72 q 307 121 425 72 q 114 297 189 170 q 60 499 60 387 q 69 600 60 547 q 346 932 117 819 q 529 993 431 975 q 581 997 555 997 q 724 958 655 997 l 726 958 q 827 800 802 905 q 838 722 838 758 q 814 613 838 663 l 812 612 q 665 518 766 529 q 587 532 617 518 q 583 532 585 532 q 574 538 581 533 q 500 579 568 543 q 481 571 492 579 q 448 469 448 537 q 457 435 448 442 q 510 407 469 418 q 568 395 540 400 q 625 381 597 389 q 663 378 639 378 l 681 378 q 753 374 727 378 q 808 334 788 368 l 810 331 q 831 243 831 283 q 780 143 831 189 q 629 80 728 98 q 530 72 579 72 z "},"d":{"ha":854,"x_min":60,"x_max":795,"o":"m 366 434 q 412 457 387 434 q 491 602 491 525 q 446 678 491 643 q 368 713 400 713 q 362 576 362 694 l 362 567 q 358 510 362 537 q 354 456 354 483 q 366 434 357 434 m 366 380 q 300 444 313 380 l 300 461 q 304 514 300 487 q 308 576 308 541 q 309 669 308 637 q 317 736 311 722 q 366 768 330 768 q 482 718 419 768 q 545 602 545 669 q 448 416 545 500 q 366 380 408 380 m 269 133 q 391 157 330 133 q 631 315 528 212 q 741 548 731 412 q 609 789 739 669 q 369 918 488 905 q 324 921 347 921 q 129 852 183 921 q 114 802 114 829 q 137 697 114 764 q 161 602 156 648 q 164 521 164 586 q 144 269 164 396 q 132 161 132 174 q 269 133 201 133 m 269 79 q 100 117 184 79 q 77 152 77 126 q 83 217 77 168 l 90 277 q 110 521 109 399 l 107 597 q 85 678 102 636 q 60 802 60 746 q 84 884 60 853 q 324 975 156 975 q 647 829 492 975 q 795 547 795 692 l 795 544 q 670 276 783 387 q 411 106 557 165 q 269 79 339 79 z "},"e":{"ha":903,"x_min":60,"x_max":844,"o":"m 583 54 q 731 87 686 54 q 789 193 789 137 q 736 228 789 228 q 647 189 689 216 q 488 132 566 132 q 374 180 420 132 q 336 288 336 221 q 388 420 336 365 q 472 464 423 458 q 529 467 507 467 q 584 465 556 467 q 637 463 612 463 q 670 467 661 463 q 685 517 685 475 q 556 606 685 602 l 511 609 q 323 703 370 609 q 300 799 300 749 q 368 926 300 882 q 435 943 393 943 q 597 861 515 943 q 688 807 659 807 q 703 810 697 807 l 703 811 q 747 871 741 830 q 724 941 747 907 q 661 996 700 974 q 578 1021 623 1019 q 494 1024 536 1024 q 296 1006 395 1024 l 293 1006 q 146 955 195 997 q 137 940 137 945 l 137 936 q 142 923 138 932 q 155 898 146 914 q 201 667 201 826 q 164 328 201 505 q 129 160 148 231 q 114 83 114 99 l 115 73 q 183 61 133 61 q 282 60 233 61 l 403 61 q 530 57 510 61 q 583 54 557 54 m 583 0 q 524 3 555 0 l 522 3 q 442 7 513 7 l 282 5 l 184 7 q 76 35 107 7 q 60 83 60 52 q 76 174 60 107 l 76 175 q 111 338 88 217 l 114 355 q 146 667 146 510 q 109 869 146 808 l 109 871 q 83 940 83 914 q 111 996 83 970 q 273 1059 167 1044 l 281 1059 q 494 1078 391 1078 q 582 1076 537 1078 q 689 1043 639 1073 q 802 864 802 978 q 741 769 791 803 l 734 765 q 688 753 711 753 q 560 821 636 753 l 559 822 q 435 888 492 888 q 397 880 403 888 q 354 799 354 853 q 372 727 354 762 q 513 663 403 663 l 557 661 q 658 639 608 659 q 739 517 739 604 q 719 441 739 473 l 719 439 q 637 408 699 408 q 581 410 609 408 q 529 412 553 412 q 479 410 510 412 q 426 382 454 407 q 391 288 391 343 q 414 217 391 248 q 488 186 444 186 q 617 233 543 186 q 723 281 667 267 q 736 283 728 283 q 791 271 761 283 q 844 193 844 250 q 765 45 844 113 q 764 43 765 43 q 583 0 707 0 z "},"f":{"ha":606,"x_min":60,"x_max":547,"o":"m 201 52 l 205 54 q 245 115 235 72 q 258 191 254 153 q 283 388 274 353 q 292 452 292 416 l 292 460 q 332 529 292 505 q 407 560 362 548 q 492 631 492 586 q 442 705 492 685 q 416 709 430 709 q 336 726 351 709 q 327 749 327 736 q 365 799 327 773 q 401 821 395 819 q 473 884 453 842 q 479 901 479 897 q 457 940 479 918 q 328 989 397 989 q 151 932 239 989 l 149 930 q 141 878 141 911 q 145 708 145 736 q 129 502 145 586 q 114 376 115 439 q 149 141 118 256 q 182 68 161 95 q 201 52 193 54 m 201 -3 q 159 14 182 -3 q 120 68 137 31 q 98 127 103 104 q 60 374 64 248 l 60 377 q 75 513 61 445 q 91 708 91 591 q 88 833 91 770 l 87 878 q 119 977 87 954 q 328 1043 221 1043 q 492 982 416 1043 q 533 901 533 948 q 507 834 533 873 q 420 770 480 795 l 411 765 q 463 755 448 762 q 547 631 547 718 q 503 545 547 575 q 422 509 467 522 q 359 483 384 498 q 346 460 346 475 l 346 445 q 336 373 346 410 q 312 186 330 350 q 297 103 308 144 q 251 22 286 57 q 201 -3 227 -3 z "},"g":{"ha":1063,"x_min":60,"x_max":1004,"o":"m 632 54 q 321 151 454 54 l 320 152 q 156 362 218 240 l 142 388 q 60 627 60 525 q 156 873 60 768 q 157 875 157 873 q 300 972 212 924 q 514 1050 422 1050 q 557 1047 534 1050 q 718 952 686 1027 q 731 883 731 918 q 712 811 731 830 q 652 774 693 792 q 648 773 650 774 q 600 769 624 769 q 521 781 560 769 q 456 791 488 791 q 430 789 442 791 q 423 787 427 787 q 404 773 412 783 q 385 745 385 749 q 381 739 384 742 q 320 581 320 639 q 376 465 320 529 l 377 464 q 563 330 452 370 q 642 319 601 319 l 686 321 q 755 351 715 324 q 788 380 773 363 q 766 381 781 381 q 709 374 738 381 q 631 365 661 365 q 556 381 591 365 l 555 382 q 490 491 492 418 q 510 567 490 525 q 692 654 552 654 q 856 616 785 654 l 859 614 q 1004 330 1004 522 l 1002 293 q 968 202 1001 255 l 967 199 q 632 54 861 54 m 632 109 q 922 231 837 109 q 948 293 948 277 l 949 321 q 830 568 949 495 q 745 597 781 593 l 692 600 q 544 490 551 600 q 581 430 545 450 q 631 419 604 419 q 699 429 655 419 q 766 435 732 435 q 810 430 792 435 l 811 430 q 848 385 848 415 q 785 307 848 349 q 692 267 734 270 q 642 264 655 264 q 547 278 593 264 l 545 278 q 335 430 419 324 q 270 544 290 480 l 269 547 q 266 581 266 563 q 332 764 266 654 q 363 808 335 774 q 411 840 381 830 l 419 842 q 456 845 438 845 q 537 833 496 845 q 600 823 568 823 q 636 826 617 823 q 675 855 675 844 q 677 875 675 867 l 677 887 q 669 928 677 906 q 549 993 650 978 q 514 996 532 996 q 328 926 438 996 l 327 926 q 195 836 244 880 q 114 627 114 749 q 137 516 114 568 q 189 415 160 464 l 197 403 q 205 388 205 389 q 354 194 262 275 q 632 109 473 109 z "},"h":{"ha":1046,"x_min":60,"x_max":986,"o":"m 345 41 q 365 44 353 41 q 387 63 377 47 q 396 117 396 79 l 395 330 l 393 343 q 391 416 393 406 q 388 453 388 437 q 446 517 388 509 l 477 518 q 563 521 536 518 q 614 524 590 524 q 724 496 692 524 q 755 407 755 465 q 763 322 755 365 q 770 236 770 279 l 769 179 q 781 114 769 136 q 809 85 792 92 q 845 79 826 79 q 910 106 888 79 q 932 220 932 133 q 926 414 932 286 q 924 517 924 465 q 929 680 924 663 q 932 773 932 727 q 929 871 932 822 l 929 872 q 907 989 929 932 q 853 1020 888 1020 q 761 910 772 1020 q 758 734 758 879 l 760 713 q 703 681 760 681 q 591 680 646 681 q 469 671 499 671 q 393 700 412 671 l 393 701 q 387 724 388 712 q 385 728 385 726 q 357 854 368 791 q 243 1009 335 1009 q 191 989 206 1006 q 168 892 168 960 q 213 705 168 818 l 221 680 q 229 650 229 654 q 206 623 229 628 q 134 572 160 616 l 134 571 q 114 510 114 540 q 130 469 114 480 q 163 465 137 465 q 193 469 189 465 q 224 472 198 472 q 255 425 255 464 q 253 395 255 410 q 251 163 251 381 q 292 61 251 103 q 345 41 313 41 m 345 -14 q 254 23 292 -14 q 197 163 197 77 q 199 400 197 384 l 201 414 q 163 411 187 411 l 133 412 q 75 452 100 415 q 60 510 60 475 q 88 601 60 556 q 167 669 118 650 l 161 686 q 114 892 114 808 q 127 981 114 930 q 213 1061 140 1039 q 241 1063 221 1063 q 342 1024 296 1063 q 388 956 374 996 q 411 863 401 917 q 437 745 420 803 q 439 736 438 741 q 441 729 439 732 q 469 726 444 726 q 587 734 496 726 q 670 735 604 735 l 704 735 q 707 918 704 883 q 723 986 709 952 q 853 1074 762 1074 q 955 1015 918 1074 l 958 1010 q 983 873 983 944 q 986 773 986 823 q 982 667 986 681 q 978 517 978 654 q 981 416 978 467 q 986 220 986 315 q 975 121 986 174 q 886 30 966 57 q 845 24 868 24 q 715 179 715 24 l 716 236 q 709 312 716 274 q 701 401 701 361 q 690 454 701 441 q 614 469 673 469 q 570 467 593 469 q 464 464 540 464 q 444 462 445 463 q 442 453 442 461 q 445 423 442 439 q 450 117 450 387 q 432 32 450 60 q 389 -5 414 4 q 345 -14 365 -14 z "},"i":{"ha":418,"x_min":60,"x_max":358,"o":"m 221 826 q 304 920 304 826 q 298 949 304 935 q 259 993 282 986 q 212 1001 222 1001 q 165 990 187 1001 q 134 955 134 972 l 133 917 q 221 826 144 826 m 222 54 q 282 156 282 54 l 282 160 q 285 240 285 171 l 281 452 q 260 681 281 621 q 205 726 244 726 q 161 709 184 726 q 115 503 115 678 q 118 426 115 464 l 118 420 q 114 336 114 378 q 122 213 114 275 q 198 62 133 115 q 222 54 210 54 m 222 0 q 164 20 189 0 q 68 206 83 87 q 60 336 60 271 q 64 423 60 380 q 61 503 61 463 q 72 644 61 590 q 178 777 98 765 q 79 913 91 804 l 80 958 q 140 1038 81 1005 q 212 1055 172 1055 q 273 1044 235 1055 q 349 970 321 1032 q 358 920 358 951 q 339 842 358 886 q 245 773 319 784 q 286 745 269 764 q 335 452 334 708 l 339 240 q 336 155 339 180 q 313 50 336 81 q 264 9 289 19 q 222 0 240 0 z "},"j":{"ha":742,"x_min":0,"x_max":682,"o":"m 189 -98 q 444 71 332 -85 q 510 231 499 151 q 521 385 521 311 l 519 431 q 526 524 519 468 q 533 663 533 591 q 513 798 533 762 q 437 844 488 844 q 403 840 422 844 q 320 788 332 825 q 305 654 305 741 q 302 374 305 514 l 302 331 q 254 130 302 191 q 243 122 250 125 q 108 46 156 83 q 54 -52 60 9 q 97 -88 57 -79 q 189 -98 137 -98 m 555 914 q 624 958 600 914 q 628 978 628 968 q 621 1000 628 990 q 502 1048 586 1048 q 449 1020 465 1048 q 441 989 441 1004 q 458 951 441 968 q 496 923 481 930 q 519 916 511 916 l 555 914 m 193 -152 l 184 -152 q 0 -50 0 -152 l 0 -47 q 76 90 8 38 q 214 168 126 127 q 248 331 248 218 l 248 374 q 251 654 251 514 q 270 806 251 751 q 392 894 292 871 q 437 898 412 898 l 420 911 q 387 989 387 944 q 401 1048 387 1024 q 502 1103 437 1103 q 665 1032 612 1103 q 682 978 682 1008 q 671 932 682 951 q 555 860 631 860 l 534 861 q 587 663 586 815 q 581 518 587 575 q 574 431 574 465 l 575 385 q 563 220 575 308 q 487 41 551 132 q 193 -152 362 -138 z "},"k":{"ha":882,"x_min":60,"x_max":822,"o":"m 209 81 q 283 159 259 81 q 326 252 294 195 q 366 349 357 308 q 373 370 368 362 q 414 391 387 391 q 469 359 442 391 q 514 293 479 349 q 543 250 528 271 q 568 203 557 228 q 689 113 610 113 q 765 175 751 117 q 768 198 768 187 q 751 250 768 225 l 738 273 q 722 298 726 297 q 669 363 704 309 l 667 363 q 634 406 650 389 q 600 448 618 423 q 521 528 566 491 q 511 547 513 534 q 519 567 511 559 q 575 643 555 601 l 576 646 q 650 798 621 718 l 650 799 q 669 879 669 844 q 661 913 669 897 q 647 932 654 929 l 629 933 q 519 838 568 932 l 518 836 q 463 723 486 785 q 407 620 446 665 q 362 600 389 600 q 308 627 335 600 q 260 720 267 666 q 258 817 258 746 q 222 977 258 910 q 182 1010 202 1010 q 164 1005 178 1010 q 129 966 130 983 l 127 924 q 136 841 127 884 q 145 690 145 798 q 125 388 145 557 q 114 237 114 290 q 157 103 114 144 q 209 81 186 81 m 209 27 q 123 61 167 27 q 60 237 60 110 q 71 393 60 304 q 79 480 76 438 l 79 481 q 91 690 91 613 q 82 835 91 791 q 73 924 73 879 l 75 967 q 136 1051 77 1013 q 182 1065 157 1065 q 269 1004 233 1065 q 312 817 312 929 q 315 726 312 749 q 346 665 319 692 q 362 654 358 654 q 366 656 365 654 q 411 738 397 692 q 472 864 426 792 q 628 986 537 986 l 650 986 q 711 936 688 986 q 723 879 723 911 q 701 779 723 833 q 623 617 670 694 q 578 549 605 581 q 643 480 613 518 q 676 441 659 458 q 713 393 693 425 q 755 342 742 353 q 787 298 769 332 l 798 279 q 822 198 822 241 q 817 161 822 180 q 720 61 798 83 q 690 58 712 58 q 519 180 578 58 q 496 221 510 201 q 468 263 481 241 q 418 334 425 330 q 372 224 407 285 q 335 142 350 184 q 209 27 297 27 z "},"l":{"ha":742,"x_min":60,"x_max":682,"o":"m 458 41 q 594 53 567 41 q 628 123 628 61 q 627 143 628 132 q 625 176 625 155 q 620 227 625 205 q 496 259 609 259 q 467 258 481 259 q 445 256 452 256 q 400 274 412 256 q 393 296 393 283 l 397 377 q 393 544 393 476 l 393 566 q 396 680 396 614 l 397 728 q 396 811 397 785 q 361 873 393 850 q 334 884 345 883 l 305 886 q 259 883 282 886 l 208 884 q 152 878 178 884 q 121 802 121 868 q 115 697 121 780 l 114 671 q 119 594 114 635 q 125 450 125 553 l 123 419 q 127 274 123 331 l 126 263 q 125 232 126 247 q 123 202 123 217 q 127 155 123 179 q 132 118 132 130 q 157 56 132 61 l 159 54 q 232 43 186 43 l 260 45 l 458 41 m 502 -14 q 260 -9 435 -14 l 232 -11 q 138 4 175 -11 q 77 117 80 23 q 73 145 76 133 q 69 202 69 170 q 71 235 69 220 q 72 263 72 250 q 73 275 72 270 q 69 389 69 331 l 71 450 q 65 590 71 541 q 60 673 60 632 l 61 700 q 66 802 66 781 q 71 848 66 834 q 138 929 88 916 q 208 939 170 939 l 255 937 q 305 940 281 940 l 338 939 q 391 917 363 937 q 450 815 445 880 q 452 760 452 796 q 448 544 450 606 q 450 411 448 484 l 452 376 l 449 311 q 496 313 472 313 q 612 300 571 313 q 671 241 661 283 q 680 176 680 213 q 681 146 680 157 q 682 123 682 134 q 613 1 682 23 q 502 -14 575 -14 z "},"m":{"ha":922,"x_min":60,"x_max":863,"o":"m 218 54 q 307 118 292 54 q 323 210 319 165 q 327 247 324 231 q 345 420 340 334 l 349 477 q 357 494 350 487 q 376 502 365 502 q 401 486 393 502 q 473 446 415 450 q 545 503 517 446 q 570 518 553 518 l 578 517 q 597 492 597 511 l 597 488 q 590 361 590 411 q 600 239 590 298 q 701 73 613 141 q 753 57 724 57 q 793 76 777 57 q 808 123 808 95 q 802 193 808 159 l 802 195 q 796 307 796 241 q 800 435 796 372 q 803 560 803 499 l 802 652 q 766 850 799 754 q 747 883 761 871 q 723 895 732 895 q 676 871 696 895 q 640 820 656 846 q 606 770 624 793 l 605 768 q 515 726 564 726 q 481 731 498 726 q 365 815 412 750 q 315 876 342 846 q 259 906 288 906 q 216 892 239 906 q 167 804 174 857 q 160 693 160 742 l 163 591 q 141 396 163 514 q 118 237 129 334 l 118 236 q 114 180 114 209 l 115 142 q 144 79 118 102 q 218 54 180 54 m 218 0 q 113 35 163 0 l 110 37 q 61 140 65 75 l 60 179 q 87 407 60 262 q 109 591 109 518 l 106 693 q 114 811 106 745 q 182 936 122 886 l 186 937 q 259 960 222 960 q 357 913 311 960 l 357 911 q 408 848 384 882 q 495 783 445 798 q 514 780 505 780 q 564 804 541 780 q 593 846 579 825 q 633 905 612 879 q 723 949 671 949 q 782 925 755 949 q 818 867 808 901 q 856 654 853 764 l 857 560 q 854 434 857 498 q 850 307 850 370 q 857 204 850 245 q 863 123 863 163 q 837 43 863 76 q 836 42 837 42 q 753 3 802 3 q 670 30 708 3 l 669 30 q 545 231 563 111 q 536 361 536 296 l 537 411 q 472 392 509 392 q 446 395 449 392 q 399 411 419 400 q 381 239 395 326 l 381 237 q 377 206 378 225 l 377 205 q 358 103 373 156 q 218 0 328 0 z "},"n":{"ha":739,"x_min":60,"x_max":680,"o":"m 487 54 q 524 71 506 54 q 575 231 566 113 q 585 293 576 251 q 614 616 612 452 q 621 730 614 677 q 625 804 625 766 l 624 842 q 591 926 620 892 q 549 951 568 951 q 507 921 529 951 q 467 804 473 867 q 461 692 461 742 l 464 598 q 452 457 464 528 q 410 407 442 407 q 361 457 377 407 q 347 536 347 494 q 320 799 347 670 q 255 916 293 916 q 203 887 236 916 q 138 749 151 833 q 126 568 126 656 q 114 153 125 317 q 115 120 114 125 q 118 111 117 115 q 165 62 127 62 q 237 119 202 62 q 273 197 260 156 q 298 216 279 216 q 321 202 312 216 q 387 118 346 163 q 450 65 433 71 q 487 54 477 54 m 487 0 q 305 132 406 0 q 165 8 248 8 q 107 28 137 8 q 60 155 60 60 l 60 156 q 72 568 71 319 q 85 755 72 661 q 165 926 99 859 q 255 970 208 970 q 373 810 339 970 q 401 534 401 675 q 404 507 401 521 q 410 597 410 552 l 407 692 q 414 814 407 743 q 461 949 422 884 l 463 952 q 549 1005 502 1005 q 631 964 590 1005 q 678 845 673 922 l 680 804 q 675 725 680 755 q 669 614 671 694 q 639 283 666 434 q 629 225 633 256 q 562 31 618 87 q 487 0 530 0 z "},"o":{"ha":697,"x_min":60,"x_max":637,"o":"m 382 292 q 419 350 400 292 l 419 351 q 465 557 454 435 q 468 597 468 578 q 420 755 468 696 l 418 757 q 351 814 380 812 q 308 787 313 810 q 264 538 264 656 q 299 378 264 457 q 382 292 334 300 m 381 236 q 377 237 378 236 q 250 355 297 248 q 210 538 210 446 q 255 802 210 667 q 256 803 255 803 q 324 865 270 845 l 330 867 l 350 868 q 465 787 407 868 q 469 780 469 781 q 522 597 522 704 q 519 552 522 576 q 456 294 505 401 q 381 236 427 236 m 354 54 q 529 141 476 54 q 555 278 555 198 q 568 376 560 328 q 583 537 583 454 q 513 871 583 746 q 411 957 473 930 q 302 983 349 983 q 172 884 197 983 q 167 871 171 876 q 119 713 126 788 q 114 583 114 633 q 118 486 114 533 q 122 403 121 446 q 156 160 122 244 q 354 54 209 54 m 354 0 q 107 138 176 0 q 68 401 68 232 q 64 481 66 444 q 60 583 60 530 q 66 720 60 636 q 118 895 72 803 l 119 899 q 302 1038 160 1038 q 435 1006 359 1038 q 559 899 510 974 q 637 537 637 761 q 623 365 637 449 q 609 275 614 321 q 578 117 609 184 l 576 114 q 354 0 505 0 z "},"p":{"ha":719,"x_min":60,"x_max":659,"o":"m 353 589 q 423 628 401 591 q 449 728 449 673 q 429 814 449 769 q 376 850 414 850 l 346 853 q 267 753 267 853 q 296 624 267 689 q 353 589 311 590 m 354 534 l 353 534 q 282 557 309 534 q 247 602 255 579 q 213 753 213 678 q 233 842 213 802 q 347 907 263 907 q 377 905 362 907 q 479 837 449 902 q 503 728 503 780 q 469 601 503 658 q 354 534 431 538 m 239 81 q 279 104 264 81 q 315 220 311 156 q 316 229 315 224 q 320 259 317 233 q 395 457 334 400 q 500 522 434 492 q 587 591 552 547 q 605 661 605 623 q 476 928 605 844 q 231 983 382 983 l 224 985 l 213 983 q 127 939 159 983 q 114 894 114 918 q 118 836 114 864 q 161 313 161 557 q 157 229 161 254 q 153 183 153 205 q 195 92 153 115 q 239 81 216 81 m 239 27 q 168 45 202 27 q 99 183 99 85 l 106 267 l 107 313 q 64 827 107 555 q 60 894 60 860 q 81 968 60 935 l 83 970 q 227 1039 132 1039 q 505 974 395 1039 l 506 974 q 659 661 659 871 q 633 563 659 608 l 632 560 q 524 472 589 503 q 431 416 458 441 q 374 254 385 373 q 326 76 365 141 q 324 75 326 75 q 239 27 292 27 z "},"q":{"ha":1147,"x_min":60,"x_max":1261,"o":"m 498 239 q 655 271 575 241 q 601 334 612 319 q 491 476 526 439 q 460 557 460 507 q 533 670 460 635 q 583 680 552 680 q 616 675 597 680 q 753 541 658 673 l 764 524 q 718 632 747 579 q 647 697 696 666 q 510 739 571 735 q 385 678 445 735 q 304 492 308 594 q 373 330 304 407 l 374 330 q 498 239 449 239 m 499 184 q 434 199 465 184 l 431 201 q 332 294 384 232 q 250 492 250 387 l 250 494 q 345 715 255 617 l 346 718 q 458 785 401 769 q 509 793 483 792 q 673 745 576 793 l 675 743 q 764 661 735 705 q 765 659 764 659 q 841 420 829 544 l 841 418 q 825 393 841 401 q 814 391 819 391 q 719 494 792 391 l 711 509 l 709 509 q 613 618 648 595 q 583 625 602 625 q 555 620 568 625 q 514 557 514 602 q 529 514 514 530 l 530 514 q 644 366 568 475 q 722 281 681 321 q 728 262 728 273 q 712 237 728 244 l 690 228 q 499 184 594 187 m 1138 -68 q 1203 -26 1184 -68 q 1207 -1 1207 -14 q 1185 49 1207 26 q 1165 62 1177 58 q 1036 153 1124 73 q 940 250 941 232 q 945 267 940 259 q 979 391 979 311 q 958 533 979 453 q 854 766 917 684 q 730 865 802 829 q 511 928 616 928 q 203 755 328 928 q 127 591 152 685 q 114 491 114 541 q 184 264 114 374 q 435 54 302 91 q 505 50 458 50 q 708 90 594 50 q 819 141 768 110 q 833 145 826 145 q 852 137 844 145 q 1114 -62 1020 -30 l 1115 -64 q 1138 -68 1126 -68 m 1138 -122 q 829 84 1042 -122 q 726 38 780 57 q 505 -4 604 -4 l 477 -4 q 422 3 446 -4 q 140 235 270 43 q 60 491 60 351 q 75 605 60 548 q 160 788 102 709 q 332 940 231 884 q 511 982 411 982 q 755 914 629 982 q 897 802 837 872 q 1010 547 963 722 q 1034 391 1034 461 q 1002 255 1034 309 q 1072 194 1025 232 l 1089 180 q 1181 113 1157 118 q 1226 84 1204 109 q 1261 -1 1261 46 q 1252 -47 1261 -28 q 1138 -122 1217 -122 z "},"r":{"ha":826,"x_min":60,"x_max":765,"o":"m 434 713 q 506 716 464 713 q 570 739 541 719 q 583 774 583 749 q 581 798 583 785 q 556 836 571 827 q 472 849 532 849 q 426 850 448 849 q 376 834 387 849 q 361 749 361 811 l 363 718 q 367 715 365 716 q 383 714 369 715 q 434 713 397 713 m 434 659 q 329 669 349 659 q 309 705 309 678 l 307 749 q 320 840 307 798 q 423 905 336 905 l 471 903 q 563 891 521 903 q 633 811 612 880 q 637 774 637 798 q 602 696 637 720 q 510 662 562 666 q 434 659 465 659 m 623 38 q 658 50 636 38 q 692 134 692 77 q 673 279 692 210 q 589 502 650 365 q 587 503 587 502 q 534 587 570 549 q 528 606 528 597 l 529 617 q 555 633 538 633 q 680 696 629 633 q 711 798 711 738 q 699 854 711 827 q 605 942 663 918 q 514 966 547 966 q 441 945 475 966 q 427 941 434 941 q 400 964 404 941 q 372 1020 392 1017 q 331 1025 336 1025 q 241 978 279 1025 q 170 792 178 884 q 161 620 161 693 q 165 509 161 566 q 168 397 168 452 l 167 326 q 130 161 163 240 l 130 159 q 114 92 114 126 q 118 72 114 84 q 142 50 122 60 q 209 39 161 39 q 262 73 244 39 q 301 255 298 144 q 345 446 308 380 q 381 468 358 468 q 448 403 412 468 q 525 209 513 300 q 623 38 566 38 m 623 -16 q 472 198 519 -16 l 472 199 q 442 301 464 252 l 442 302 q 431 324 441 308 q 384 403 403 377 q 355 252 361 347 q 309 47 353 130 q 209 -15 275 -15 q 112 3 144 -15 q 70 47 80 22 q 60 92 60 72 q 80 182 60 138 q 113 328 109 252 l 114 397 q 111 507 114 450 q 107 620 107 564 q 117 796 107 694 q 197 1009 125 903 l 198 1012 q 327 1080 254 1080 q 381 1074 336 1080 q 445 1008 426 1067 q 514 1020 479 1020 q 629 991 557 1020 q 746 880 701 962 q 765 798 765 845 q 721 663 765 722 q 606 586 677 604 q 637 524 625 556 q 726 293 701 382 q 746 134 746 217 q 689 5 746 50 q 623 -16 661 -16 z "},"s":{"ha":883,"x_min":60,"x_max":823,"o":"m 414 34 q 502 38 458 34 q 625 96 586 45 q 718 312 712 206 l 720 362 q 693 498 720 441 q 582 612 654 585 l 581 612 q 419 777 419 680 l 419 785 q 445 837 427 822 q 537 864 476 864 q 650 819 613 864 q 681 802 666 802 q 707 811 693 802 l 708 811 q 769 876 769 850 q 765 887 769 882 q 685 921 742 911 l 685 922 q 590 932 636 932 q 378 863 476 932 q 320 755 320 815 q 404 616 320 670 q 463 585 434 598 q 593 490 549 548 q 636 340 636 431 q 524 174 636 220 q 415 157 484 157 q 317 228 317 157 q 345 308 317 262 l 346 309 l 312 315 q 241 324 275 324 q 140 275 175 324 q 114 213 114 241 q 146 123 114 183 q 259 39 189 47 q 335 35 293 35 l 414 34 m 414 -20 l 327 -19 q 252 -15 290 -19 q 99 98 155 -3 q 60 213 60 167 q 96 308 60 259 q 241 378 148 378 q 323 368 281 378 q 381 360 354 362 q 408 332 408 358 q 391 281 408 311 q 372 228 372 240 q 415 212 372 212 q 582 340 582 212 q 549 457 582 408 q 441 536 514 503 q 374 570 400 553 q 266 755 266 642 q 345 906 266 841 q 346 907 346 906 q 590 986 457 986 q 696 975 642 986 q 804 924 769 962 q 823 876 823 902 q 736 765 823 819 q 681 747 709 747 q 610 783 642 747 l 591 798 q 537 810 576 810 q 486 800 502 810 q 473 777 477 796 q 602 662 473 715 q 742 521 693 627 q 774 362 774 453 l 772 309 q 669 62 768 190 q 507 -16 613 -7 q 414 -20 460 -20 z "},"t":{"ha":700,"x_min":60,"x_max":640,"o":"m 339 33 l 374 34 q 420 52 401 35 q 437 84 435 71 l 437 113 q 430 190 437 144 l 430 191 q 408 769 408 468 q 406 898 408 846 l 412 926 q 524 967 430 967 q 576 978 559 967 q 586 985 585 981 q 334 1053 563 1053 q 126 1031 163 1053 q 114 1006 114 1019 q 176 960 114 983 q 273 921 259 947 q 278 890 278 910 q 267 761 278 837 q 258 652 259 705 q 254 500 258 575 q 251 372 251 446 l 251 285 q 232 126 251 180 q 224 83 224 100 q 240 52 224 65 l 254 45 q 339 33 283 33 m 339 -22 q 234 -7 273 -22 q 176 50 195 7 q 170 83 170 65 q 180 142 170 110 q 197 285 197 190 l 195 355 q 199 503 195 427 q 203 652 203 578 q 213 768 203 700 q 224 890 224 841 l 224 892 q 165 907 217 898 l 160 909 q 60 1006 60 944 q 72 1048 60 1028 q 133 1092 91 1082 q 334 1107 199 1107 q 640 989 627 1107 l 640 986 q 578 921 640 939 q 524 913 548 913 q 460 899 460 913 q 463 769 463 848 q 484 197 463 471 q 491 113 491 146 l 490 81 q 462 16 490 49 q 377 -20 434 -16 l 339 -22 z "},"u":{"ha":1031,"x_min":60,"x_max":971,"o":"m 378 68 q 640 266 553 71 q 661 321 652 294 q 686 342 666 340 q 711 320 704 342 q 727 277 719 298 l 727 274 q 792 149 746 205 q 861 115 823 115 q 910 146 903 115 q 917 241 917 159 q 857 422 917 315 q 776 682 776 564 q 815 806 776 762 q 840 886 840 840 q 773 968 840 964 q 697 925 734 968 q 572 609 602 821 q 544 473 555 500 l 540 461 q 384 292 499 292 q 310 325 336 292 q 283 457 283 358 q 292 567 283 503 q 300 661 294 586 q 315 804 305 761 q 327 906 327 856 q 289 989 327 962 q 283 995 285 991 q 269 1001 281 998 q 227 1004 256 1004 q 114 902 114 1004 q 118 825 114 853 q 122 723 122 798 q 126 654 123 688 q 130 487 130 594 l 132 370 q 175 222 140 292 l 175 221 q 378 68 247 68 m 381 14 l 380 14 q 229 64 297 14 q 126 198 167 110 q 77 366 85 278 q 76 468 76 381 q 72 650 76 593 q 68 723 68 685 q 64 821 68 772 q 60 902 60 850 q 104 1017 60 977 q 227 1058 148 1058 q 326 1029 302 1058 q 381 906 381 986 q 366 773 381 850 q 354 658 357 705 q 346 560 351 600 q 338 457 338 488 q 343 393 338 426 l 343 392 q 384 346 349 346 q 487 473 456 346 l 492 491 q 518 617 507 553 q 656 960 551 845 q 774 1023 709 1023 q 803 1020 795 1023 q 894 886 894 996 q 857 772 894 822 l 856 769 q 830 682 830 742 q 876 505 830 598 l 905 448 q 971 241 971 330 q 962 133 971 167 q 861 61 940 61 q 751 114 799 61 q 684 232 709 160 q 381 14 583 19 z "},"v":{"ha":977,"x_min":0,"x_max":977,"o":"m 557 43 l 578 52 q 726 307 617 68 q 784 433 753 368 q 827 490 798 460 q 906 631 875 537 q 922 713 922 678 q 886 802 922 780 q 865 804 876 804 q 836 796 850 804 q 681 618 760 751 q 640 538 659 579 q 522 420 593 420 q 431 456 477 420 l 429 457 q 354 566 380 503 q 288 707 321 632 q 232 789 264 750 q 199 834 224 799 q 156 879 186 856 q 146 883 152 882 q 71 868 100 883 q 60 848 64 859 q 58 843 60 845 q 54 825 56 841 q 84 692 54 758 q 220 454 140 566 q 298 328 259 401 q 456 104 385 179 l 456 103 q 544 43 494 58 l 557 43 m 562 -11 q 525 -7 536 -11 q 252 301 401 33 q 176 422 217 363 q 35 670 92 538 q 0 826 0 747 q 9 867 0 848 q 45 917 22 906 q 145 937 88 937 q 200 914 172 937 q 243 867 228 891 q 274 823 259 842 q 336 730 319 769 q 403 589 370 655 l 403 587 q 465 498 426 536 q 522 475 496 475 q 591 560 555 475 q 635 646 604 593 q 808 842 719 792 q 865 859 837 859 q 910 849 894 859 q 977 713 977 811 q 958 614 977 670 q 865 452 921 507 q 833 408 848 434 q 781 297 806 353 q 693 119 741 202 q 605 5 639 23 q 581 -5 597 0 q 562 -11 566 -11 z "},"w":{"ha":1176,"x_min":0,"x_max":1176,"o":"m 439 52 q 476 115 456 56 l 477 117 q 557 326 528 235 q 582 343 564 343 q 665 236 606 343 l 666 233 q 757 91 671 210 l 761 85 q 823 66 798 66 q 845 77 836 66 q 918 266 873 107 q 993 467 945 369 q 1076 707 1047 585 q 1115 841 1093 774 q 1122 880 1122 864 q 1046 936 1122 917 l 1038 940 q 948 662 986 840 q 871 385 922 549 q 827 279 859 328 q 806 266 819 267 q 784 277 792 266 q 671 480 709 372 l 647 541 q 656 575 647 560 q 727 662 671 598 q 787 764 787 750 q 780 779 787 770 q 749 800 762 800 q 735 789 743 800 q 598 648 675 708 q 583 643 591 643 q 559 655 567 643 q 534 696 547 674 l 534 697 q 458 799 506 757 q 434 806 448 806 q 382 802 406 806 l 380 802 q 439 720 401 762 q 517 616 490 663 q 533 553 533 585 l 532 526 q 525 498 532 511 q 512 476 518 486 q 502 460 506 467 q 477 445 494 446 q 453 460 463 446 q 349 636 404 549 q 203 895 244 795 l 203 897 q 127 993 175 990 q 73 985 100 993 q 56 981 65 985 q 91 873 65 926 l 92 871 q 129 758 114 815 q 209 562 156 655 l 210 562 q 330 279 270 448 q 350 216 343 240 q 439 52 399 52 m 445 -3 q 369 38 399 -3 q 298 201 332 84 q 278 262 292 224 q 161 536 221 425 q 77 743 106 635 l 41 852 q 0 983 11 916 q 126 1047 0 1047 q 255 914 210 1047 q 395 666 293 819 q 477 529 437 598 l 477 566 q 400 684 473 602 q 323 791 349 741 q 319 808 319 803 q 326 833 319 821 q 434 860 345 860 q 492 841 467 860 q 494 840 494 841 q 589 709 547 793 q 692 822 646 760 q 693 823 692 823 q 749 854 718 854 q 822 812 788 854 l 823 812 q 841 762 841 788 q 770 629 841 732 l 757 613 q 703 547 711 560 l 722 500 q 800 343 753 418 l 819 400 q 894 674 869 563 q 993 972 936 865 q 994 974 994 972 q 1034 997 1009 997 q 1063 987 1044 997 q 1176 880 1176 954 q 1166 826 1176 856 l 1166 825 q 1127 694 1145 758 q 1042 444 1099 567 q 970 251 997 350 q 909 79 945 163 l 909 77 q 823 12 878 12 q 738 37 785 12 q 711 61 720 45 q 616 212 632 172 l 590 255 q 528 96 564 183 q 454 -1 499 14 l 445 -3 z "},"x":{"ha":897,"x_min":16,"x_max":880,"o":"m 119 -87 l 117 -87 q 42 -38 71 -87 l 42 -37 q 16 65 16 9 q 198 368 16 227 q 312 532 312 461 q 290 604 312 564 l 286 612 q 197 743 247 686 q 34 1031 34 940 q 63 1100 34 1070 q 142 1130 92 1130 q 224 1103 175 1130 q 316 1031 273 1077 q 420 898 391 955 q 442 861 429 882 q 473 825 464 830 q 557 941 525 878 q 689 1103 617 1053 q 690 1104 689 1104 q 755 1126 724 1126 q 869 1028 831 1126 l 869 1027 q 880 963 880 994 q 722 696 880 853 q 606 499 606 578 q 712 342 606 431 q 838 138 838 237 q 749 8 838 41 l 747 8 q 694 0 720 0 q 635 12 663 0 l 632 14 q 464 231 529 75 l 449 205 q 396 130 427 163 l 347 77 q 259 -12 307 28 q 256 -15 258 -15 q 119 -87 174 -84 m 117 -33 q 222 27 149 -33 l 224 28 q 307 113 269 66 l 307 114 q 357 168 331 141 q 401 229 382 195 q 472 312 445 312 q 498 294 491 312 q 658 61 557 121 q 694 54 675 54 q 784 138 784 54 q 678 301 784 212 q 552 499 552 406 q 581 605 552 548 l 582 606 q 684 734 617 666 q 826 963 826 876 q 818 1010 826 986 q 755 1072 796 1072 q 719 1058 739 1072 q 606 917 658 1015 q 499 774 564 837 q 480 766 491 766 q 397 831 439 766 l 373 871 q 372 872 373 872 q 277 993 347 922 l 275 994 q 201 1055 240 1034 q 142 1076 163 1076 q 99 1059 121 1076 q 88 1031 88 1048 q 127 932 88 993 q 237 779 175 854 q 331 643 293 716 l 335 636 q 366 532 366 578 q 232 326 366 434 q 231 324 232 324 q 71 65 71 201 q 90 -11 71 23 q 117 -33 100 -33 z "},"y":{"ha":883,"x_min":60,"x_max":823,"o":"m 411 -18 q 690 241 639 -18 q 711 372 704 307 q 739 547 720 457 q 769 776 769 694 q 730 943 769 902 q 670 966 705 966 q 562 906 602 966 q 538 860 551 888 q 411 730 490 730 q 311 803 350 730 q 277 905 277 860 l 277 924 q 319 1017 277 989 l 312 1027 q 256 1042 296 1042 q 198 1027 228 1042 q 127 951 138 997 q 114 856 114 894 q 298 581 114 669 q 381 563 340 563 q 515 624 471 563 q 537 635 522 635 q 549 631 543 635 q 560 622 556 628 q 564 608 564 616 q 564 603 564 606 q 562 585 563 600 q 562 534 562 570 l 563 406 q 559 277 563 334 q 534 196 556 236 q 487 145 513 156 q 445 134 461 134 q 350 187 400 134 q 286 229 312 229 l 275 228 q 206 187 206 203 l 203 142 q 237 50 203 92 q 327 -8 281 0 q 411 -18 381 -18 m 411 -72 q 317 -61 376 -72 q 197 15 251 -49 q 149 142 149 71 q 153 191 149 152 q 178 239 156 220 q 260 281 209 267 q 286 283 269 283 q 391 225 335 283 q 445 189 425 189 q 464 194 450 189 q 487 224 472 195 q 505 281 502 252 q 509 404 509 336 q 507 534 507 441 l 507 543 q 381 509 454 509 q 275 532 324 509 q 60 856 60 636 q 75 963 60 901 q 174 1076 92 1035 q 256 1096 214 1096 q 326 1082 290 1096 q 358 1055 346 1073 q 378 1016 378 1039 q 355 977 378 991 q 331 924 331 962 l 331 917 q 337 872 332 887 q 357 830 342 857 l 358 830 q 411 784 382 784 q 487 879 453 784 q 515 936 502 914 q 582 996 538 971 q 670 1020 625 1020 q 823 776 823 1020 q 793 536 823 681 q 765 366 774 449 q 745 231 758 298 q 510 -60 696 -4 q 411 -72 469 -72 z "},"z":{"ha":952,"x_min":60,"x_max":892,"o":"m 784 -33 q 800 -28 792 -33 q 833 8 829 -14 q 838 62 838 39 l 837 95 q 768 247 836 187 q 624 286 719 282 q 488 331 495 289 q 483 359 483 349 q 547 467 483 407 q 593 503 574 491 q 730 635 707 572 q 743 693 743 670 q 666 808 743 776 q 415 852 578 848 l 410 852 q 338 854 400 854 l 275 853 q 160 819 216 848 q 114 712 114 798 q 182 635 118 648 q 244 629 212 629 l 308 631 q 441 605 384 631 q 477 557 477 589 q 354 448 477 499 q 199 361 274 415 q 134 239 134 315 q 172 170 134 202 q 365 80 247 106 q 487 43 404 72 q 643 1 590 9 q 738 -23 690 -7 q 784 -33 764 -33 m 784 -87 q 719 -75 754 -87 q 635 -53 677 -61 q 469 -8 568 -42 q 353 27 412 12 q 137 129 221 56 q 80 239 80 178 q 168 406 80 340 q 350 507 247 463 q 422 553 414 538 q 401 563 418 557 q 308 576 357 576 l 244 575 q 171 582 205 575 q 60 707 69 604 l 60 711 q 136 868 60 829 q 271 907 202 901 q 338 909 297 909 q 416 906 393 909 q 689 857 581 906 q 798 693 798 807 q 781 616 798 661 q 621 457 753 536 q 583 426 606 448 q 537 359 537 382 l 538 351 q 625 340 552 343 q 802 289 749 335 q 891 96 890 213 l 892 64 q 886 -1 892 35 q 825 -77 878 -49 q 784 -87 807 -87 z "},".":{"ha":418,"x_min":60,"x_max":358,"o":"m 222 0 q 146 16 189 0 q 60 113 60 50 q 96 199 60 148 q 248 263 140 263 q 358 156 354 263 q 332 62 358 109 q 222 0 294 0 m 222 54 q 286 91 266 54 q 304 156 304 122 q 255 209 304 209 q 141 168 168 209 q 114 113 114 127 q 165 66 114 85 q 222 54 199 54 z "},":":{"ha":404,"x_min":60,"x_max":346,"o":"m 198 54 q 277 95 252 54 q 292 133 292 117 q 270 184 292 159 q 245 201 260 197 q 237 205 240 202 q 206 208 235 208 q 119 165 141 208 q 114 141 115 159 l 114 130 q 198 54 114 54 m 209 614 q 263 658 258 614 q 277 696 266 680 q 279 726 279 699 q 256 789 279 762 q 217 807 244 807 q 163 781 184 807 q 141 720 141 754 l 141 700 q 159 637 141 666 q 209 614 179 614 m 198 0 q 77 57 114 0 q 60 130 60 87 l 61 159 q 100 227 64 191 q 206 262 136 262 q 311 220 277 262 q 346 133 346 178 q 323 65 346 100 q 255 11 301 30 q 198 0 231 0 m 209 560 q 117 604 153 560 q 87 699 87 639 l 87 719 q 121 817 87 773 q 217 861 156 861 q 298 825 267 861 q 334 726 334 781 q 321 666 334 684 q 317 651 319 661 q 305 610 315 628 q 209 560 279 560 z "},",":{"ha":452,"x_min":60,"x_max":392,"o":"m 176 -90 q 182 -85 178 -90 q 203 -43 191 -77 l 224 7 q 235 37 229 22 q 258 57 240 52 q 338 126 336 83 q 232 210 336 210 l 202 209 q 114 141 114 209 q 141 80 114 104 q 159 59 152 69 q 165 -28 165 49 q 171 -81 165 -72 l 175 -90 l 176 -90 m 176 -144 q 119 -100 136 -144 q 111 -28 111 -77 l 110 34 l 104 39 q 60 141 60 81 q 65 180 60 164 q 202 263 90 260 l 232 264 q 358 218 320 264 q 392 125 392 178 l 392 122 q 282 8 384 42 q 217 -127 244 -100 q 176 -144 201 -144 z "},";":{"ha":452,"x_min":60,"x_max":392,"o":"m 225 642 q 312 684 292 642 q 317 708 316 692 l 317 719 q 233 795 317 795 q 155 755 179 795 q 141 716 141 732 q 161 665 141 692 q 186 648 172 652 q 195 644 191 647 q 225 642 198 642 m 176 -90 q 186 -79 179 -90 q 203 -43 194 -69 l 203 -42 q 235 38 221 -3 q 258 57 240 52 q 338 126 336 83 q 232 210 336 210 l 202 209 q 114 141 114 209 q 141 80 114 104 q 159 59 152 69 q 165 -28 165 49 q 171 -81 165 -72 l 171 -83 q 175 -90 174 -90 l 176 -90 m 225 587 q 121 630 156 587 q 87 716 87 673 q 109 784 87 749 q 176 840 130 819 q 233 849 201 849 q 354 792 317 849 q 372 719 372 764 l 370 690 q 332 623 368 658 q 225 587 297 587 m 176 -144 q 119 -100 136 -144 q 111 -28 111 -77 l 110 34 l 104 39 q 60 141 60 81 q 65 180 60 164 q 202 263 90 260 l 232 264 q 358 218 317 264 q 392 125 392 180 l 392 122 q 282 8 384 42 q 241 -92 260 -54 q 176 -144 217 -144 z "},"'":{"ha":334,"x_min":60,"x_max":274,"o":"m 153 749 q 197 766 176 749 q 220 891 220 800 q 214 1022 220 949 q 165 1107 208 1095 l 142 1103 q 123 1061 123 1095 q 126 1038 123 1050 q 130 945 130 1016 q 126 869 130 884 q 114 792 114 798 q 153 749 114 749 m 153 694 q 99 712 123 694 q 60 802 60 739 q 73 880 60 814 q 76 945 76 913 q 73 1013 76 978 q 69 1061 69 1038 q 81 1118 69 1097 q 156 1160 106 1160 l 184 1157 q 245 1106 217 1153 q 274 891 274 1059 q 269 810 274 852 q 239 732 264 769 q 153 694 209 694 z "},"\"":{"ha":700,"x_min":60,"x_max":640,"o":"m 171 751 q 222 769 210 751 q 266 921 262 830 q 288 1042 267 964 l 296 1081 q 240 1104 290 1104 q 191 1088 202 1104 q 182 1059 186 1081 l 176 1039 q 156 924 161 985 q 118 785 156 844 q 114 774 114 780 q 125 761 114 765 q 171 751 146 751 m 464 746 q 528 777 509 746 q 536 818 536 789 l 534 831 q 532 867 532 849 q 547 940 532 910 q 571 1039 566 979 l 571 1040 q 585 1107 578 1089 l 586 1111 q 584 1118 586 1116 q 582 1122 582 1120 q 533 1138 571 1138 q 487 1128 506 1138 l 486 1127 q 472 1097 479 1120 q 461 1029 465 1073 l 461 1028 q 439 951 452 978 q 422 872 422 911 q 424 842 422 857 q 426 808 426 826 q 416 785 426 793 q 406 774 406 777 q 464 746 406 746 m 171 697 q 103 711 136 697 q 60 774 60 731 q 72 815 60 796 q 102 924 102 867 l 102 929 q 133 1092 110 1019 q 240 1158 151 1158 q 289 1151 262 1158 q 333 1123 316 1143 q 350 1080 350 1103 q 339 1028 350 1072 q 320 918 326 971 q 267 739 316 811 q 171 697 239 697 m 464 692 q 354 750 372 692 q 351 774 351 758 q 372 819 351 799 l 370 837 q 368 872 368 854 q 391 972 368 924 q 407 1036 400 994 q 463 1177 418 1157 q 533 1192 494 1192 q 628 1150 601 1192 q 640 1111 640 1133 q 636 1089 640 1100 q 625 1034 629 1062 q 595 917 620 964 q 586 867 586 892 q 588 842 586 854 q 590 818 590 830 q 586 780 590 803 q 540 713 582 746 q 464 692 513 692 z "},"(":{"ha":609,"x_min":60,"x_max":549,"o":"m 290 -81 q 304 -79 297 -81 q 342 -14 342 -62 q 300 145 342 64 l 273 197 q 205 411 206 307 l 203 437 q 229 697 203 609 l 229 699 q 343 926 270 819 q 427 1024 387 994 q 435 1029 430 1027 q 440 1033 439 1032 q 445 1036 441 1034 q 455 1041 449 1038 q 479 1048 461 1044 q 496 1059 487 1051 l 499 1066 q 495 1086 499 1076 l 492 1092 q 449 1115 477 1115 q 387 1088 414 1109 q 193 856 273 1002 q 118 606 130 738 q 114 481 114 544 q 121 307 114 427 l 121 240 q 157 88 121 138 l 161 83 q 254 -62 195 4 q 290 -81 271 -81 m 290 -136 q 213 -98 247 -136 q 113 58 149 -27 q 66 240 66 123 l 66 304 q 60 481 60 426 q 64 612 60 559 q 145 882 76 754 q 354 1131 228 1035 q 442 1169 392 1161 l 446 1169 q 537 1122 505 1169 q 549 1086 549 1105 q 548 1055 549 1072 q 490 996 541 1010 q 476 991 481 993 q 468 987 471 989 q 463 982 465 985 q 389 897 429 959 l 388 897 q 281 682 319 795 q 258 437 259 600 l 259 411 q 319 224 260 323 q 396 -14 396 91 q 324 -129 396 -95 q 290 -136 311 -136 z "},"!":{"ha":468,"x_min":60,"x_max":408,"o":"m 279 347 q 304 376 301 350 l 302 392 q 299 428 302 412 q 296 492 296 444 l 297 509 q 294 673 297 601 l 294 705 q 311 875 294 804 q 334 945 320 928 q 354 1001 354 983 q 351 1018 354 1008 q 332 1040 347 1028 q 278 1051 316 1051 q 227 1038 251 1051 q 195 991 201 1019 q 189 920 189 956 l 189 913 q 182 716 187 815 q 178 537 178 642 q 183 411 178 458 q 245 353 183 370 q 279 347 263 347 m 220 27 q 340 85 305 27 q 350 126 350 104 q 312 201 350 168 q 243 228 279 228 q 202 220 222 228 q 137 167 149 201 q 126 147 130 155 q 121 136 122 140 q 114 107 114 123 q 130 57 114 77 q 220 27 152 27 m 283 293 q 231 300 256 293 q 129 406 133 330 q 123 537 123 456 q 127 719 123 643 l 134 924 q 142 1002 134 960 q 195 1082 152 1051 l 198 1085 q 278 1105 236 1105 q 401 1036 376 1105 q 408 1001 408 1029 q 381 917 408 968 q 377 911 378 913 q 373 902 376 910 q 366 872 370 894 l 365 865 q 362 856 363 857 q 349 705 349 799 q 351 525 351 583 l 351 453 l 357 397 q 358 381 357 387 q 355 351 358 357 q 283 293 339 300 m 220 -27 q 68 56 103 -27 q 60 107 60 76 q 71 156 60 133 q 85 186 76 171 q 126 239 99 218 q 184 271 153 260 q 243 282 214 282 q 347 243 298 282 q 404 126 404 195 q 388 60 404 91 q 220 -27 340 -27 z "},"?":{"ha":750,"x_min":60,"x_max":690,"o":"m 358 27 q 486 81 486 27 q 473 122 486 99 q 302 195 437 195 l 297 195 q 237 189 269 195 q 187 155 206 183 q 180 126 180 141 q 186 99 180 113 l 186 98 q 221 52 195 68 q 358 27 277 27 m 410 296 q 472 317 442 296 q 511 384 498 347 q 548 475 529 430 q 591 581 571 528 l 593 582 q 636 751 636 684 q 608 869 636 817 q 545 940 601 883 q 491 982 521 964 q 377 1008 437 1008 q 201 967 282 1008 q 118 860 138 930 q 114 823 114 840 q 203 684 114 746 l 208 682 q 273 647 236 655 q 288 653 279 647 q 302 678 296 659 q 327 724 309 697 q 362 741 338 741 q 378 736 370 741 q 430 655 430 713 q 366 507 430 612 q 316 431 331 449 q 296 385 296 407 q 302 359 296 372 q 353 312 321 328 q 410 296 384 296 m 358 -27 q 198 3 264 -27 q 134 80 155 22 q 126 126 126 104 q 140 180 126 155 q 293 250 176 250 l 302 250 q 522 146 468 250 q 540 81 540 113 q 358 -27 540 -27 m 410 241 q 328 263 370 241 q 256 332 285 285 q 241 385 241 357 q 275 467 241 426 q 319 534 285 479 l 319 536 q 376 655 376 628 q 366 682 376 677 l 354 661 q 271 593 328 593 l 266 593 q 171 640 212 604 q 60 823 60 719 q 66 873 60 846 q 174 1015 87 963 l 175 1016 q 377 1062 270 1062 q 515 1031 449 1062 q 583 978 543 1019 q 654 898 636 926 q 690 751 690 840 q 642 560 690 673 q 597 453 620 506 l 563 366 q 510 278 544 316 l 506 275 q 410 241 461 241 z "},")":{"ha":669,"x_min":60,"x_max":608,"o":"m 359 -14 q 430 71 400 -12 l 433 76 q 476 191 463 145 l 476 193 q 529 420 513 305 l 534 454 q 553 606 553 557 q 538 701 553 654 q 320 1023 483 891 q 136 1103 233 1095 q 121 1093 123 1101 q 117 1080 119 1084 q 114 1072 114 1076 q 121 1066 114 1070 l 122 1065 q 457 686 359 929 q 481 560 481 624 q 453 396 481 484 q 391 221 433 332 q 338 84 343 92 q 321 23 323 54 q 359 -14 324 -9 m 358 -68 q 296 -41 321 -68 q 267 22 270 -15 l 267 24 q 289 109 269 68 l 304 145 q 401 413 376 334 q 427 560 427 492 q 407 667 427 613 q 95 1019 316 891 q 60 1070 60 1039 q 69 1112 60 1086 q 137 1157 87 1157 l 151 1156 q 355 1066 266 1138 q 590 718 530 922 q 608 606 608 662 q 589 444 608 541 q 481 54 555 218 q 358 -68 437 -68 z "},"+":{"ha":735,"x_min":60,"x_max":675,"o":"m 251 170 q 297 206 279 170 l 345 297 q 404 411 376 354 q 429 426 414 426 q 563 412 490 426 l 564 411 l 574 411 q 620 446 605 411 l 621 457 q 613 481 621 469 l 613 483 q 586 502 604 499 q 498 515 544 511 l 487 517 q 464 544 464 521 q 467 556 464 551 q 483 635 483 587 q 433 718 483 718 q 406 712 415 718 q 384 674 384 699 l 388 632 q 384 608 388 618 q 336 519 362 522 q 161 503 263 515 q 114 456 115 496 q 127 423 114 441 q 163 410 137 410 l 258 420 q 282 406 274 420 q 285 393 285 400 q 275 370 285 381 q 205 228 236 302 l 205 227 q 202 216 202 221 q 208 197 202 208 q 251 170 222 170 m 248 115 l 239 115 q 159 171 183 127 l 159 172 q 148 216 148 194 q 208 361 148 247 l 167 355 q 85 389 111 355 q 60 457 60 422 l 60 458 q 153 557 66 541 l 155 557 q 316 572 247 568 q 332 625 332 616 l 332 650 l 330 673 q 378 758 330 727 q 434 772 401 772 q 486 757 458 772 q 537 635 537 724 q 529 567 537 598 q 597 556 564 563 q 659 511 636 548 q 675 457 675 486 q 671 430 675 444 l 671 429 q 574 357 642 357 q 551 359 559 357 q 445 372 494 370 l 346 182 q 248 115 311 115 z "},"-":{"ha":694,"x_min":60,"x_max":633,"o":"m 231 403 q 343 410 288 403 l 347 410 q 419 415 384 415 l 431 415 q 536 407 488 415 l 541 407 q 557 415 549 407 l 559 416 q 579 463 579 434 q 571 492 579 480 l 571 494 q 439 521 552 521 q 332 513 384 521 l 278 509 q 252 507 259 509 q 160 511 201 507 q 133 502 144 511 q 114 456 114 484 q 123 424 114 438 q 146 407 132 410 q 231 403 189 403 m 231 349 q 137 353 160 349 q 75 396 95 362 q 60 456 60 423 q 96 543 60 510 q 157 566 123 566 l 168 566 q 240 562 203 562 l 327 567 q 439 575 381 575 q 556 566 517 575 q 616 522 595 556 q 633 463 633 496 q 595 376 633 411 q 538 351 571 351 l 524 353 q 431 361 484 361 q 353 355 387 361 q 231 349 301 349 z "},"*":{"ha":601,"x_min":30,"x_max":541,"o":"m 345 680 q 357 685 349 680 q 369 726 369 705 q 355 781 369 738 q 342 823 343 806 q 351 845 342 836 q 418 902 416 902 q 463 939 448 925 l 487 967 q 475 979 487 978 q 374 966 418 979 l 366 964 q 350 970 357 964 q 339 994 339 979 l 346 1065 q 331 1122 346 1122 q 321 1119 326 1122 q 282 1050 293 1084 l 259 997 q 232 982 250 982 l 228 982 q 113 1021 160 998 l 96 1028 q 84 1017 88 1028 q 90 1006 85 1008 q 125 978 114 994 l 178 930 q 201 907 193 917 q 209 888 209 898 l 208 878 q 168 760 189 833 q 152 719 161 735 q 149 717 149 718 q 148 712 149 716 q 151 705 148 709 q 161 700 153 700 q 179 719 170 700 l 180 722 q 217 785 198 750 q 235 818 227 803 q 258 833 243 833 q 285 808 281 833 q 309 732 292 761 l 311 730 q 338 682 336 684 q 345 680 340 680 m 345 625 q 288 661 309 625 l 248 730 l 227 693 q 161 646 201 646 q 103 677 126 646 q 94 712 94 690 q 106 750 94 731 q 117 774 110 754 q 151 882 134 837 l 142 890 q 81 945 87 936 q 65 958 80 949 q 30 1023 30 971 q 31 1029 30 1027 q 96 1082 50 1082 q 136 1070 111 1082 q 218 1040 171 1054 l 231 1067 q 282 1156 245 1112 q 331 1176 298 1176 q 395 1128 376 1176 q 400 1063 400 1112 l 397 1027 q 477 1034 434 1034 l 480 1034 q 541 967 541 1023 q 450 859 541 922 l 400 815 l 406 802 q 423 726 423 753 q 401 654 423 688 q 345 625 382 625 z "},"/":{"ha":684,"x_min":0,"x_max":738,"o":"m 109 -109 q 144 -97 127 -109 q 164 -65 161 -85 q 201 30 174 -11 q 208 43 205 37 q 214 52 210 49 q 307 260 264 142 q 370 426 361 406 q 675 986 476 675 q 684 1013 684 998 q 655 1063 684 1047 q 627 1072 642 1072 q 576 1042 595 1072 q 213 334 334 665 q 163 207 168 213 q 157 194 159 201 q 153 183 156 187 l 151 176 q 117 113 130 134 q 54 -49 61 27 q 95 -107 54 -94 l 109 -109 m 109 -163 q 79 -159 91 -163 q 0 -47 0 -130 q 1 -26 0 -35 q 71 142 20 64 q 100 198 87 170 q 115 233 106 217 q 161 353 123 248 q 530 1072 285 689 q 627 1126 566 1126 q 682 1109 655 1126 q 738 1013 738 1077 q 722 956 738 982 q 449 471 533 656 l 419 404 l 358 241 q 258 19 312 115 q 218 -75 224 -42 q 177 -140 210 -118 q 109 -163 144 -163 z "},"=":{"ha":793,"x_min":60,"x_max":734,"o":"m 670 87 l 667 87 q 650 90 659 87 q 195 225 415 146 l 194 227 q 138 342 138 252 q 153 406 138 385 q 184 432 167 426 q 213 438 202 438 q 233 435 225 438 q 665 304 468 351 q 705 279 685 300 q 734 183 734 251 q 670 87 734 88 m 666 141 q 680 183 680 146 q 666 241 680 225 q 656 250 658 250 q 652 251 654 250 q 214 384 454 298 q 203 381 208 384 q 196 370 199 378 q 193 342 193 361 l 193 334 q 216 275 198 283 q 662 142 431 198 l 666 141 m 537 492 q 346 506 442 492 q 141 519 243 519 q 66 597 85 519 q 60 644 60 623 q 82 718 60 699 q 126 738 104 738 q 350 723 239 738 q 530 711 442 711 q 620 715 586 711 l 625 715 q 656 708 640 715 q 707 587 707 685 q 673 509 707 528 q 537 492 648 492 m 537 547 q 646 555 625 547 q 652 587 652 559 q 635 658 652 643 q 625 661 631 661 q 530 656 587 656 q 342 669 438 656 q 129 684 237 684 q 114 644 114 681 q 118 610 114 629 l 119 609 q 141 574 126 574 q 354 560 255 574 q 537 547 446 547 z "},"\\":{"ha":718,"x_min":0,"x_max":772,"o":"m 662 -109 q 701 -92 685 -109 q 718 -50 718 -76 q 701 -9 718 -26 q 468 377 589 99 q 377 614 420 484 q 273 880 320 787 q 153 1043 227 974 q 110 1059 133 1059 q 71 1042 88 1059 q 54 1000 54 1025 q 71 963 56 977 q 201 764 138 902 q 267 581 220 722 q 393 262 320 425 q 621 -91 509 15 q 662 -109 639 -109 m 662 -163 q 583 -132 617 -163 q 345 240 464 -18 q 216 564 269 406 q 126 793 161 728 q 35 922 84 879 q 0 1000 0 954 q 33 1080 0 1047 q 110 1114 66 1114 q 190 1084 157 1114 q 320 907 270 1008 q 429 631 370 807 q 500 435 465 522 q 689 85 605 198 l 692 81 q 738 28 715 52 q 772 -50 772 -4 q 739 -130 772 -98 q 662 -163 707 -163 z "},"_":{"ha":1150,"x_min":15,"x_max":1135,"o":"m 972 -163 q 796 -114 898 -163 q 644 -75 700 -75 q 568 -84 609 -75 q 247 -132 358 -132 q 54 -110 151 -132 q 15 -7 15 -102 q 64 110 15 110 l 71 110 q 252 91 161 91 q 439 111 345 91 q 647 149 617 149 q 829 100 727 149 q 974 60 917 60 q 1069 96 1020 60 q 1090 104 1078 104 q 1135 -7 1135 104 q 1108 -110 1135 -88 q 972 -163 1047 -163 m 972 -109 q 1073 -69 1021 -109 q 1081 -7 1081 -61 q 1078 38 1081 23 q 974 5 1027 5 q 761 69 903 5 q 647 95 704 95 q 534 76 618 95 l 450 58 q 252 37 351 37 q 76 53 164 37 q 69 -7 69 28 q 75 -60 69 -56 q 247 -77 160 -77 q 556 -31 351 -77 q 644 -20 604 -20 q 735 -34 690 -20 q 819 -65 793 -53 q 972 -109 910 -109 z "},"":{"ha":694,"x_min":60,"x_max":633,"o":"m 231 403 q 343 410 288 403 l 347 410 q 419 415 384 415 l 431 415 q 536 407 488 415 l 541 407 q 557 415 549 407 l 559 416 q 579 463 579 434 q 571 492 579 480 l 571 494 q 439 521 552 521 q 332 513 384 521 l 278 509 q 252 507 259 509 q 160 511 201 507 q 133 502 144 511 q 114 456 114 484 q 123 424 114 438 q 146 407 132 410 q 231 403 189 403 m 231 349 q 137 353 160 349 q 75 396 95 362 q 60 456 60 423 q 96 543 60 510 q 157 566 123 566 l 168 566 q 240 562 203 562 l 327 567 q 439 575 381 575 q 556 566 517 575 q 616 522 595 556 q 633 463 633 496 q 595 376 633 411 q 538 351 571 351 l 524 353 q 431 361 484 361 q 353 355 387 361 q 231 349 301 349 z "},"":{"ha":694,"x_min":60,"x_max":633,"o":"m 231 403 q 343 410 288 403 l 347 410 q 419 415 384 415 l 431 415 q 536 407 488 415 l 541 407 q 557 415 549 407 l 559 416 q 579 463 579 434 q 571 492 579 480 l 571 494 q 439 521 552 521 q 332 513 384 521 l 278 509 q 252 507 259 509 q 160 511 201 507 q 133 502 144 511 q 114 456 114 484 q 123 424 114 438 q 146 407 132 410 q 231 403 189 403 m 231 349 q 137 353 160 349 q 75 396 95 362 q 60 456 60 423 q 96 543 60 510 q 157 566 123 566 l 168 566 q 240 562 203 562 l 327 567 q 439 575 381 575 q 556 566 517 575 q 616 522 595 556 q 633 463 633 496 q 595 376 633 411 q 538 351 571 351 l 524 353 q 431 361 484 361 q 353 355 387 361 q 231 349 301 349 z "},"":{"ha":694,"x_min":60,"x_max":633,"o":"m 231 403 q 343 410 288 403 l 347 410 q 419 415 384 415 l 431 415 q 536 407 488 415 l 541 407 q 557 415 549 407 l 559 416 q 579 463 579 434 q 571 492 579 480 l 571 494 q 439 521 552 521 q 332 513 384 521 l 278 509 q 252 507 259 509 q 160 511 201 507 q 133 502 144 511 q 114 456 114 484 q 123 424 114 438 q 146 407 132 410 q 231 403 189 403 m 231 349 q 137 353 160 349 q 75 396 95 362 q 60 456 60 423 q 96 543 60 510 q 157 566 123 566 l 168 566 q 240 562 203 562 l 327 567 q 439 575 381 575 q 556 566 517 575 q 616 522 595 556 q 633 463 633 496 q 595 376 633 411 q 538 351 571 351 l 524 353 q 431 361 484 361 q 353 355 387 361 q 231 349 301 349 z "},"":{"ha":694,"x_min":60,"x_max":633,"o":"m 231 403 q 343 410 288 403 l 347 410 q 419 415 384 415 l 431 415 q 536 407 488 415 l 541 407 q 557 415 549 407 l 559 416 q 579 463 579 434 q 571 492 579 480 l 571 494 q 439 521 552 521 q 332 513 384 521 l 278 509 q 252 507 259 509 q 160 511 201 507 q 133 502 144 511 q 114 456 114 484 q 123 424 114 438 q 146 407 132 410 q 231 403 189 403 m 231 349 q 137 353 160 349 q 75 396 95 362 q 60 456 60 423 q 96 543 60 510 q 157 566 123 566 l 168 566 q 240 562 203 562 l 327 567 q 439 575 381 575 q 556 566 517 575 q 616 522 595 556 q 633 463 633 496 q 595 376 633 411 q 538 351 571 351 l 524 353 q 431 361 484 361 q 353 355 387 361 q 231 349 301 349 z "},"":{"ha":1240,"x_min":60,"x_max":1180,"o":"m 1115 336 q 1104 338 1108 336 q 838 388 975 388 q 589 373 738 388 q 328 359 463 359 q 90 395 208 359 q 60 449 60 403 q 65 509 60 476 q 126 602 83 602 l 134 601 q 377 566 252 566 q 609 581 454 566 q 945 595 738 595 q 1153 544 1019 595 q 1180 488 1180 533 q 1175 427 1180 460 q 1115 336 1157 336 m 1108 395 q 1126 488 1126 433 l 1126 496 q 945 541 1010 540 q 614 526 739 541 q 377 511 488 511 q 133 545 252 511 q 114 449 114 507 l 114 444 q 328 414 220 414 q 583 427 458 414 q 838 442 735 442 q 1108 395 977 442 z "},"":{"ha":1240,"x_min":60,"x_max":1180,"o":"m 1115 336 q 1104 338 1108 336 q 838 388 975 388 q 589 373 738 388 q 328 359 463 359 q 90 395 208 359 q 60 449 60 403 q 65 509 60 476 q 126 602 83 602 l 134 601 q 377 566 252 566 q 609 581 454 566 q 945 595 738 595 q 1153 544 1019 595 q 1180 488 1180 533 q 1175 427 1180 460 q 1115 336 1157 336 m 1108 395 q 1126 488 1126 433 l 1126 496 q 945 541 1010 540 q 614 526 739 541 q 377 511 488 511 q 133 545 252 511 q 114 449 114 507 l 114 444 q 328 414 220 414 q 583 427 458 414 q 838 442 735 442 q 1108 395 977 442 z "},"":{"ha":334,"x_min":60,"x_max":274,"o":"m 153 749 q 197 766 176 749 q 220 891 220 800 q 214 1022 220 949 q 165 1107 208 1095 l 142 1103 q 123 1061 123 1095 q 126 1038 123 1050 q 130 945 130 1016 q 126 869 130 884 q 114 792 114 798 q 153 749 114 749 m 153 694 q 99 712 123 694 q 60 802 60 739 q 73 880 60 814 q 76 945 76 913 q 73 1013 76 978 q 69 1061 69 1038 q 81 1118 69 1097 q 156 1160 106 1160 l 184 1157 q 245 1106 217 1153 q 274 891 274 1059 q 269 810 274 852 q 239 732 264 769 q 153 694 209 694 z "},"":{"ha":700,"x_min":60,"x_max":640,"o":"m 171 751 q 222 769 210 751 q 266 921 262 830 q 288 1042 267 964 l 296 1081 q 240 1104 290 1104 q 191 1088 202 1104 q 182 1059 186 1081 l 176 1039 q 156 924 161 985 q 118 785 156 844 q 114 774 114 780 q 125 761 114 765 q 171 751 146 751 m 464 746 q 528 777 509 746 q 536 818 536 789 l 534 831 q 532 867 532 849 q 547 940 532 910 q 571 1039 566 979 l 571 1040 q 585 1107 578 1089 l 586 1111 q 584 1118 586 1116 q 582 1122 582 1120 q 533 1138 571 1138 q 487 1128 506 1138 l 486 1127 q 472 1097 479 1120 q 461 1029 465 1073 l 461 1028 q 439 951 452 978 q 422 872 422 911 q 424 842 422 857 q 426 808 426 826 q 416 785 426 793 q 406 774 406 777 q 464 746 406 746 m 171 697 q 103 711 136 697 q 60 774 60 731 q 72 815 60 796 q 102 924 102 867 l 102 929 q 133 1092 110 1019 q 240 1158 151 1158 q 289 1151 262 1158 q 333 1123 316 1143 q 350 1080 350 1103 q 339 1028 350 1072 q 320 918 326 971 q 267 739 316 811 q 171 697 239 697 m 464 692 q 354 750 372 692 q 351 774 351 758 q 372 819 351 799 l 370 837 q 368 872 368 854 q 391 972 368 924 q 407 1036 400 994 q 463 1177 418 1157 q 533 1192 494 1192 q 628 1150 601 1192 q 640 1111 640 1133 q 636 1089 640 1100 q 625 1034 629 1062 q 595 917 620 964 q 586 867 586 892 q 588 842 586 854 q 590 818 590 830 q 586 780 590 803 q 540 713 582 746 q 464 692 513 692 z "},"":{"ha":334,"x_min":60,"x_max":274,"o":"m 153 749 q 197 766 176 749 q 220 891 220 800 q 214 1022 220 949 q 165 1107 208 1095 l 142 1103 q 123 1061 123 1095 q 126 1038 123 1050 q 130 945 130 1016 q 126 869 130 884 q 114 792 114 798 q 153 749 114 749 m 153 694 q 99 712 123 694 q 60 802 60 739 q 73 880 60 814 q 76 945 76 913 q 73 1013 76 978 q 69 1061 69 1038 q 81 1118 69 1097 q 156 1160 106 1160 l 184 1157 q 245 1106 217 1153 q 274 891 274 1059 q 269 810 274 852 q 239 732 264 769 q 153 694 209 694 z "},"":{"ha":334,"x_min":60,"x_max":274,"o":"m 153 749 q 197 766 176 749 q 220 891 220 800 q 214 1022 220 949 q 165 1107 208 1095 l 142 1103 q 123 1061 123 1095 q 126 1038 123 1050 q 130 945 130 1016 q 126 869 130 884 q 114 792 114 798 q 153 749 114 749 m 153 694 q 99 712 123 694 q 60 802 60 739 q 73 880 60 814 q 76 945 76 913 q 73 1013 76 978 q 69 1061 69 1038 q 81 1118 69 1097 q 156 1160 106 1160 l 184 1157 q 245 1106 217 1153 q 274 891 274 1059 q 269 810 274 852 q 239 732 264 769 q 153 694 209 694 z "},"":{"ha":334,"x_min":60,"x_max":274,"o":"m 153 749 q 197 766 176 749 q 220 891 220 800 q 214 1022 220 949 q 165 1107 208 1095 l 142 1103 q 123 1061 123 1095 q 126 1038 123 1050 q 130 945 130 1016 q 126 869 130 884 q 114 792 114 798 q 153 749 114 749 m 153 694 q 99 712 123 694 q 60 802 60 739 q 73 880 60 814 q 76 945 76 913 q 73 1013 76 978 q 69 1061 69 1038 q 81 1118 69 1097 q 156 1160 106 1160 l 184 1157 q 245 1106 217 1153 q 274 891 274 1059 q 269 810 274 852 q 239 732 264 769 q 153 694 209 694 z "},"":{"ha":334,"x_min":60,"x_max":274,"o":"m 153 749 q 197 766 176 749 q 220 891 220 800 q 214 1022 220 949 q 165 1107 208 1095 l 142 1103 q 123 1061 123 1095 q 126 1038 123 1050 q 130 945 130 1016 q 126 869 130 884 q 114 792 114 798 q 153 749 114 749 m 153 694 q 99 712 123 694 q 60 802 60 739 q 73 880 60 814 q 76 945 76 913 q 73 1013 76 978 q 69 1061 69 1038 q 81 1118 69 1097 q 156 1160 106 1160 l 184 1157 q 245 1106 217 1153 q 274 891 274 1059 q 269 810 274 852 q 239 732 264 769 q 153 694 209 694 z "},"":{"ha":334,"x_min":60,"x_max":274,"o":"m 153 749 q 197 766 176 749 q 220 891 220 800 q 214 1022 220 949 q 165 1107 208 1095 l 142 1103 q 123 1061 123 1095 q 126 1038 123 1050 q 130 945 130 1016 q 126 869 130 884 q 114 792 114 798 q 153 749 114 749 m 153 694 q 99 712 123 694 q 60 802 60 739 q 73 880 60 814 q 76 945 76 913 q 73 1013 76 978 q 69 1061 69 1038 q 81 1118 69 1097 q 156 1160 106 1160 l 184 1157 q 245 1106 217 1153 q 274 891 274 1059 q 269 810 274 852 q 239 732 264 769 q 153 694 209 694 z "},"":{"ha":334,"x_min":60,"x_max":274,"o":"m 153 -90 q 197 -72 176 -90 q 220 53 220 -38 q 214 184 220 111 q 165 269 208 256 l 142 264 q 123 222 123 256 q 126 199 123 212 q 130 107 130 178 q 126 31 130 46 q 114 -46 114 -41 q 153 -90 114 -90 m 153 -144 q 99 -126 123 -144 q 60 -37 60 -99 q 73 42 60 -24 q 76 107 76 75 q 73 175 76 140 q 69 222 69 199 q 81 279 69 259 q 156 321 106 321 l 184 319 q 245 268 217 315 q 274 53 274 221 q 269 -28 274 14 q 239 -106 264 -69 q 153 -144 209 -144 z "},"":{"ha":334,"x_min":60,"x_max":274,"o":"m 153 749 q 197 766 176 749 q 220 891 220 800 q 214 1022 220 949 q 165 1107 208 1095 l 142 1103 q 123 1061 123 1095 q 126 1038 123 1050 q 130 945 130 1016 q 126 869 130 884 q 114 792 114 798 q 153 749 114 749 m 153 694 q 99 712 123 694 q 60 802 60 739 q 73 880 60 814 q 76 945 76 913 q 73 1013 76 978 q 69 1061 69 1038 q 81 1118 69 1097 q 156 1160 106 1160 l 184 1157 q 245 1106 217 1153 q 274 891 274 1059 q 269 810 274 852 q 239 732 264 769 q 153 694 209 694 z "},"":{"ha":700,"x_min":60,"x_max":640,"o":"m 171 751 q 222 769 210 751 q 266 921 262 830 q 288 1042 267 964 l 296 1081 q 240 1104 290 1104 q 191 1088 202 1104 q 182 1059 186 1081 l 176 1039 q 156 924 161 985 q 118 785 156 844 q 114 774 114 780 q 125 761 114 765 q 171 751 146 751 m 464 746 q 528 777 509 746 q 536 818 536 789 l 534 831 q 532 867 532 849 q 547 940 532 910 q 571 1039 566 979 l 571 1040 q 585 1107 578 1089 l 586 1111 q 584 1118 586 1116 q 582 1122 582 1120 q 533 1138 571 1138 q 487 1128 506 1138 l 486 1127 q 472 1097 479 1120 q 461 1029 465 1073 l 461 1028 q 439 951 452 978 q 422 872 422 911 q 424 842 422 857 q 426 808 426 826 q 416 785 426 793 q 406 774 406 777 q 464 746 406 746 m 171 697 q 103 711 136 697 q 60 774 60 731 q 72 815 60 796 q 102 924 102 867 l 102 929 q 133 1092 110 1019 q 240 1158 151 1158 q 289 1151 262 1158 q 333 1123 316 1143 q 350 1080 350 1103 q 339 1028 350 1072 q 320 918 326 971 q 267 739 316 811 q 171 697 239 697 m 464 692 q 354 750 372 692 q 351 774 351 758 q 372 819 351 799 l 370 837 q 368 872 368 854 q 391 972 368 924 q 407 1036 400 994 q 463 1177 418 1157 q 533 1192 494 1192 q 628 1150 601 1192 q 640 1111 640 1133 q 636 1089 640 1100 q 625 1034 629 1062 q 595 917 620 964 q 586 867 586 892 q 588 842 586 854 q 590 818 590 830 q 586 780 590 803 q 540 713 582 746 q 464 692 513 692 z "},"":{"ha":700,"x_min":60,"x_max":640,"o":"m 171 751 q 222 769 210 751 q 266 921 262 830 q 288 1042 267 964 l 296 1081 q 240 1104 290 1104 q 191 1088 202 1104 q 182 1059 186 1081 l 176 1039 q 156 924 161 985 q 118 785 156 844 q 114 774 114 780 q 125 761 114 765 q 171 751 146 751 m 464 746 q 528 777 509 746 q 536 818 536 789 l 534 831 q 532 867 532 849 q 547 940 532 910 q 571 1039 566 979 l 571 1040 q 585 1107 578 1089 l 586 1111 q 584 1118 586 1116 q 582 1122 582 1120 q 533 1138 571 1138 q 487 1128 506 1138 l 486 1127 q 472 1097 479 1120 q 461 1029 465 1073 l 461 1028 q 439 951 452 978 q 422 872 422 911 q 424 842 422 857 q 426 808 426 826 q 416 785 426 793 q 406 774 406 777 q 464 746 406 746 m 171 697 q 103 711 136 697 q 60 774 60 731 q 72 815 60 796 q 102 924 102 867 l 102 929 q 133 1092 110 1019 q 240 1158 151 1158 q 289 1151 262 1158 q 333 1123 316 1143 q 350 1080 350 1103 q 339 1028 350 1072 q 320 918 326 971 q 267 739 316 811 q 171 697 239 697 m 464 692 q 354 750 372 692 q 351 774 351 758 q 372 819 351 799 l 370 837 q 368 872 368 854 q 391 972 368 924 q 407 1036 400 994 q 463 1177 418 1157 q 533 1192 494 1192 q 628 1150 601 1192 q 640 1111 640 1133 q 636 1089 640 1100 q 625 1034 629 1062 q 595 917 620 964 q 586 867 586 892 q 588 842 586 854 q 590 818 590 830 q 586 780 590 803 q 540 713 582 746 q 464 692 513 692 z "},"":{"ha":700,"x_min":60,"x_max":640,"o":"m 171 -84 q 222 -66 210 -84 q 266 85 262 -5 q 288 206 267 129 l 296 245 q 240 269 290 269 q 191 252 202 269 q 182 224 186 245 l 176 203 q 156 88 161 149 q 118 -50 156 8 q 114 -61 114 -56 q 125 -75 114 -71 q 171 -84 146 -84 m 464 -90 q 528 -58 509 -90 q 536 -18 536 -46 l 534 -4 q 532 31 532 14 q 547 104 532 75 q 571 203 566 144 l 571 205 q 585 271 578 254 l 586 275 q 584 283 586 281 q 582 286 582 285 q 533 302 571 302 q 487 293 506 302 l 486 292 q 472 261 479 285 q 461 194 465 237 l 461 193 q 439 115 452 142 q 422 37 422 76 q 424 6 422 22 q 426 -27 426 -9 q 416 -50 426 -42 q 406 -61 406 -58 q 464 -90 406 -90 m 171 -138 q 103 -125 136 -138 q 60 -61 60 -104 q 72 -20 60 -39 q 102 88 102 31 l 102 94 q 133 256 110 183 q 240 323 151 323 q 289 315 262 323 q 333 288 316 308 q 350 244 350 267 q 339 193 350 236 q 320 83 326 136 q 267 -96 316 -24 q 171 -138 239 -138 m 464 -144 q 354 -85 372 -144 q 351 -61 351 -77 q 372 -16 351 -37 l 370 1 q 368 37 368 19 q 391 137 368 88 q 407 201 400 159 q 463 342 418 321 q 533 357 494 357 q 628 315 601 357 q 640 275 640 297 q 636 254 640 264 q 625 198 629 227 q 595 81 620 129 q 586 31 586 57 q 588 7 586 19 q 590 -18 590 -5 q 586 -56 590 -33 q 540 -122 582 -90 q 464 -144 513 -144 z "},"":{"ha":700,"x_min":60,"x_max":640,"o":"m 171 751 q 222 769 210 751 q 266 921 262 830 q 288 1042 267 964 l 296 1081 q 240 1104 290 1104 q 191 1088 202 1104 q 182 1059 186 1081 l 176 1039 q 156 924 161 985 q 118 785 156 844 q 114 774 114 780 q 125 761 114 765 q 171 751 146 751 m 464 746 q 528 777 509 746 q 536 818 536 789 l 534 831 q 532 867 532 849 q 547 940 532 910 q 571 1039 566 979 l 571 1040 q 585 1107 578 1089 l 586 1111 q 584 1118 586 1116 q 582 1122 582 1120 q 533 1138 571 1138 q 487 1128 506 1138 l 486 1127 q 472 1097 479 1120 q 461 1029 465 1073 l 461 1028 q 439 951 452 978 q 422 872 422 911 q 424 842 422 857 q 426 808 426 826 q 416 785 426 793 q 406 774 406 777 q 464 746 406 746 m 171 697 q 103 711 136 697 q 60 774 60 731 q 72 815 60 796 q 102 924 102 867 l 102 929 q 133 1092 110 1019 q 240 1158 151 1158 q 289 1151 262 1158 q 333 1123 316 1143 q 350 1080 350 1103 q 339 1028 350 1072 q 320 918 326 971 q 267 739 316 811 q 171 697 239 697 m 464 692 q 354 750 372 692 q 351 774 351 758 q 372 819 351 799 l 370 837 q 368 872 368 854 q 391 972 368 924 q 407 1036 400 994 q 463 1177 418 1157 q 533 1192 494 1192 q 628 1150 601 1192 q 640 1111 640 1133 q 636 1089 640 1100 q 625 1034 629 1062 q 595 917 620 964 q 586 867 586 892 q 588 842 586 854 q 590 818 590 830 q 586 780 590 803 q 540 713 582 746 q 464 692 513 692 z "},"":{"ha":726,"x_min":60,"x_max":666,"o":"m 426 332 q 430 342 429 335 l 430 358 q 427 498 427 412 q 396 642 427 591 q 380 655 388 655 q 353 624 370 655 q 339 574 339 587 q 328 528 339 562 q 315 396 315 472 l 315 349 q 376 339 347 346 q 423 332 404 332 l 426 332 m 425 278 q 367 286 397 278 q 308 294 336 293 q 296 293 302 294 q 288 292 290 292 q 267 300 275 292 q 259 321 259 309 l 260 349 q 277 541 260 479 l 285 578 q 302 644 286 600 l 304 647 q 380 709 336 709 q 442 671 415 709 q 481 498 481 606 l 481 464 q 484 359 481 412 l 484 335 q 449 283 476 298 q 425 278 444 278 m 224 1040 l 286 1042 q 381 1050 331 1042 q 445 1057 414 1057 q 522 1047 490 1057 l 529 1046 q 544 1048 541 1046 q 547 1072 547 1050 q 525 1132 547 1112 q 431 1152 503 1152 q 355 1143 396 1152 q 233 1135 315 1135 q 191 1134 199 1135 q 182 1112 182 1133 l 182 1101 q 183 1081 182 1090 q 224 1040 195 1040 m 164 -52 q 195 -4 184 -52 q 220 50 203 30 q 376 122 279 122 q 473 90 425 122 q 505 60 492 81 l 511 31 l 522 9 q 547 -22 522 5 q 576 -41 564 -41 q 590 -30 581 -41 q 612 64 612 -1 q 611 211 612 137 q 605 366 610 285 q 600 525 600 446 q 564 788 600 659 q 384 935 533 935 q 274 907 327 935 q 168 753 195 857 q 137 529 149 682 q 127 285 132 419 q 126 258 127 260 q 122 233 122 245 q 121 209 122 220 q 114 110 114 159 q 127 -9 114 24 q 151 -47 140 -42 q 164 -52 161 -52 m 224 986 q 132 1067 156 986 q 127 1101 127 1082 q 180 1187 127 1176 q 233 1190 187 1190 q 346 1196 292 1190 q 431 1206 391 1206 q 531 1190 484 1206 q 595 1114 578 1175 q 601 1072 601 1096 q 590 1020 601 1040 q 529 991 574 991 q 507 994 518 991 q 445 1002 475 1002 q 392 997 419 1002 q 224 986 342 986 m 164 -106 q 60 110 60 -106 q 66 217 60 174 l 68 231 q 73 270 68 251 q 84 533 81 494 q 117 766 91 678 q 245 954 149 892 q 384 989 302 989 q 616 802 571 989 q 654 525 654 666 q 659 368 654 448 q 666 148 662 323 l 666 64 q 633 -64 666 -22 q 576 -95 609 -95 q 507 -58 540 -95 q 473 -14 477 -26 q 461 9 468 -3 l 458 16 q 450 41 454 39 q 445 43 446 42 q 374 68 414 65 q 266 20 308 68 l 264 19 q 247 -18 254 4 q 164 -106 224 -106 z "},"":{"ha":726,"x_min":60,"x_max":666,"o":"m 426 332 q 430 342 429 335 l 430 358 q 427 498 427 412 q 396 642 427 591 q 380 655 388 655 q 353 624 370 655 q 339 574 339 587 q 328 528 339 562 q 315 396 315 472 l 315 349 q 376 339 347 346 q 423 332 404 332 l 426 332 m 425 278 q 367 286 397 278 q 308 294 336 293 q 296 293 302 294 q 288 292 290 292 q 267 300 275 292 q 259 321 259 309 l 260 349 q 277 541 260 479 l 285 578 q 302 644 286 600 l 304 647 q 380 709 336 709 q 442 671 415 709 q 481 498 481 606 l 481 464 q 484 359 481 412 l 484 335 q 449 283 476 298 q 425 278 444 278 m 224 1040 l 286 1042 q 381 1050 331 1042 q 445 1057 414 1057 q 522 1047 490 1057 l 529 1046 q 544 1048 541 1046 q 547 1072 547 1050 q 525 1132 547 1112 q 431 1152 503 1152 q 355 1143 396 1152 q 233 1135 315 1135 q 191 1134 199 1135 q 182 1112 182 1133 l 182 1101 q 183 1081 182 1090 q 224 1040 195 1040 m 164 -52 q 195 -4 184 -52 q 220 50 203 30 q 376 122 279 122 q 473 90 425 122 q 505 60 492 81 l 511 31 l 522 9 q 547 -22 522 5 q 576 -41 564 -41 q 590 -30 581 -41 q 612 64 612 -1 q 611 211 612 137 q 605 366 610 285 q 600 525 600 446 q 564 788 600 659 q 384 935 533 935 q 274 907 327 935 q 168 753 195 857 q 137 529 149 682 q 127 285 132 419 q 126 258 127 260 q 122 233 122 245 q 121 209 122 220 q 114 110 114 159 q 127 -9 114 24 q 151 -47 140 -42 q 164 -52 161 -52 m 224 986 q 132 1067 156 986 q 127 1101 127 1082 q 180 1187 127 1176 q 233 1190 187 1190 q 346 1196 292 1190 q 431 1206 391 1206 q 531 1190 484 1206 q 595 1114 578 1175 q 601 1072 601 1096 q 590 1020 601 1040 q 529 991 574 991 q 507 994 518 991 q 445 1002 475 1002 q 392 997 419 1002 q 224 986 342 986 m 164 -106 q 60 110 60 -106 q 66 217 60 174 l 68 231 q 73 270 68 251 q 84 533 81 494 q 117 766 91 678 q 245 954 149 892 q 384 989 302 989 q 616 802 571 989 q 654 525 654 666 q 659 368 654 448 q 666 148 662 323 l 666 64 q 633 -64 666 -22 q 576 -95 609 -95 q 507 -58 540 -95 q 473 -14 477 -26 q 461 9 468 -3 l 458 16 q 450 41 454 39 q 445 43 446 42 q 374 68 414 65 q 266 20 308 68 l 264 19 q 247 -18 254 4 q 164 -106 224 -106 z "},"":{"ha":898,"x_min":60,"x_max":838,"o":"m 514 895 q 610 970 581 911 q 644 1077 644 1035 q 636 1126 644 1101 q 629 1137 632 1131 q 622 1142 625 1142 q 605 1145 618 1142 l 598 1145 q 564 1137 581 1145 q 529 1065 529 1112 q 502 1036 529 1036 q 453 1073 487 1036 q 397 1114 430 1100 l 391 1115 q 385 1114 388 1115 q 381 1110 382 1112 q 378 1107 380 1108 q 363 1057 363 1089 q 404 946 363 997 q 514 895 445 895 m 530 5 q 621 14 574 5 q 741 60 704 28 q 777 122 777 92 q 761 187 777 151 q 743 199 754 198 q 682 203 722 203 l 662 202 q 612 208 628 202 q 557 220 585 216 q 430 266 471 236 q 393 349 393 290 q 420 458 393 411 q 502 513 453 513 q 522 509 515 513 l 600 465 q 650 452 624 452 q 765 517 730 454 q 784 601 784 555 q 776 666 784 631 q 696 791 755 751 q 581 822 640 822 q 537 818 559 822 q 370 762 448 803 q 114 378 114 639 q 160 203 114 281 q 331 49 227 92 q 530 5 435 5 m 530 -49 q 307 0 425 -49 q 114 176 189 49 q 60 378 60 266 q 69 479 60 426 q 346 811 117 699 q 442 850 392 836 q 363 911 397 868 q 309 1057 309 979 q 336 1141 309 1107 q 391 1169 358 1169 q 412 1165 401 1169 l 415 1165 q 484 1119 456 1149 q 536 1183 499 1157 l 538 1184 q 598 1199 567 1199 l 627 1196 q 685 1149 662 1194 l 686 1146 q 699 1077 699 1112 q 659 945 699 1020 q 600 876 636 902 q 724 837 665 871 l 726 837 q 827 680 802 784 q 838 601 838 637 q 814 492 838 543 l 812 491 q 665 397 766 408 q 587 411 617 397 l 553 429 l 500 458 q 481 450 492 458 q 448 349 448 416 q 457 315 448 321 q 510 286 469 297 q 568 274 540 279 q 625 260 597 269 q 663 258 639 258 l 681 258 q 753 254 727 258 q 808 213 788 247 l 810 210 q 831 122 831 163 q 780 22 831 68 q 629 -41 728 -23 q 530 -49 579 -49 z "},"":{"ha":898,"x_min":60,"x_max":838,"o":"m 514 895 q 610 970 581 911 q 644 1077 644 1035 q 636 1126 644 1101 q 629 1137 632 1131 q 622 1142 625 1142 q 605 1145 618 1142 l 598 1145 q 564 1137 581 1145 q 529 1065 529 1112 q 502 1036 529 1036 q 453 1073 487 1036 q 397 1114 430 1100 l 391 1115 q 385 1114 388 1115 q 381 1110 382 1112 q 378 1107 380 1108 q 363 1057 363 1089 q 404 946 363 997 q 514 895 445 895 m 530 5 q 621 14 574 5 q 741 60 704 28 q 777 122 777 92 q 761 187 777 151 q 743 199 754 198 q 682 203 722 203 l 662 202 q 612 208 628 202 q 557 220 585 216 q 430 266 471 236 q 393 349 393 290 q 420 458 393 411 q 502 513 453 513 q 522 509 515 513 l 600 465 q 650 452 624 452 q 765 517 730 454 q 784 601 784 555 q 776 666 784 631 q 696 791 755 751 q 581 822 640 822 q 537 818 559 822 q 370 762 448 803 q 114 378 114 639 q 160 203 114 281 q 331 49 227 92 q 530 5 435 5 m 530 -49 q 307 0 425 -49 q 114 176 189 49 q 60 378 60 266 q 69 479 60 426 q 346 811 117 699 q 442 850 392 836 q 363 911 397 868 q 309 1057 309 979 q 336 1141 309 1107 q 391 1169 358 1169 q 412 1165 401 1169 l 415 1165 q 484 1119 456 1149 q 536 1183 499 1157 l 538 1184 q 598 1199 567 1199 l 627 1196 q 685 1149 662 1194 l 686 1146 q 699 1077 699 1112 q 659 945 699 1020 q 600 876 636 902 q 724 837 665 871 l 726 837 q 827 680 802 784 q 838 601 838 637 q 814 492 838 543 l 812 491 q 665 397 766 408 q 587 411 617 397 l 553 429 l 500 458 q 481 450 492 458 q 448 349 448 416 q 457 315 448 321 q 510 286 469 297 q 568 274 540 279 q 625 260 597 269 q 663 258 639 258 l 681 258 q 753 254 727 258 q 808 213 788 247 l 810 210 q 831 122 831 163 q 780 22 831 68 q 629 -41 728 -23 q 530 -49 579 -49 z "},"":{"ha":903,"x_min":60,"x_max":844,"o":"m 350 989 q 278 998 312 989 l 260 1002 q 224 991 243 991 q 187 1000 208 991 q 146 1077 146 1019 q 185 1177 146 1146 q 255 1208 224 1208 q 316 1201 294 1208 q 366 1194 338 1194 q 395 1196 380 1194 q 483 1207 433 1207 l 509 1206 q 575 1207 552 1206 l 581 1207 q 628 1190 609 1207 q 658 1123 658 1168 q 628 1032 658 1069 q 524 1001 605 1001 l 480 1002 q 414 996 438 1001 q 350 989 382 989 m 350 1043 q 400 1048 376 1043 q 503 1057 435 1057 l 533 1057 q 579 1062 562 1057 l 585 1065 l 585 1066 l 586 1066 q 604 1123 604 1088 q 594 1147 604 1141 l 589 1153 l 533 1152 l 483 1153 q 407 1143 439 1153 l 406 1143 q 366 1139 385 1139 q 300 1149 330 1139 q 255 1154 283 1154 l 245 1152 q 201 1077 201 1139 q 224 1046 201 1046 q 235 1052 228 1046 q 252 1058 243 1058 q 293 1050 266 1058 q 350 1043 320 1043 m 583 -92 q 524 -90 555 -92 l 522 -90 q 442 -85 513 -85 l 282 -87 l 184 -85 q 76 -57 107 -85 q 60 -9 60 -41 q 76 81 60 15 l 76 83 q 111 245 88 125 l 114 263 q 146 575 146 418 q 109 777 146 716 l 109 779 q 83 848 83 822 q 111 903 83 878 q 273 967 167 952 l 281 967 q 494 986 391 986 q 582 983 537 986 q 689 951 639 981 q 802 772 802 886 q 741 677 791 711 l 734 673 q 688 661 711 661 q 560 728 636 661 l 559 730 q 435 796 492 796 q 397 788 403 796 q 354 707 354 761 q 372 635 354 670 q 513 571 403 571 l 557 568 q 658 547 608 567 q 739 425 739 511 q 719 349 739 381 l 719 347 q 637 316 699 316 q 581 318 609 316 q 529 320 553 320 q 479 317 510 320 q 426 290 454 315 q 391 195 391 251 q 414 125 391 156 q 488 94 444 94 q 617 141 543 94 q 723 189 667 175 q 736 191 728 191 q 791 179 761 191 q 844 100 844 157 q 765 -47 844 20 q 764 -49 765 -49 q 583 -92 707 -92 m 583 -38 q 731 -5 686 -38 q 789 100 789 45 q 736 136 789 136 q 647 96 689 123 q 488 39 566 39 q 374 88 420 39 q 336 195 336 129 q 388 328 336 273 q 472 372 423 366 q 529 374 507 374 q 584 372 556 374 q 637 370 612 370 q 670 374 661 370 q 685 425 685 382 q 556 514 685 510 l 511 517 q 323 610 370 517 q 300 707 300 656 q 368 834 300 789 q 435 850 393 850 q 484 842 457 850 q 597 769 537 829 q 688 715 659 715 q 703 718 697 715 l 703 719 q 747 779 741 738 q 724 848 747 815 q 661 904 700 882 q 578 929 623 926 q 494 932 536 932 q 296 914 395 932 l 293 914 q 146 863 195 905 q 137 848 137 853 l 137 844 q 142 831 138 840 q 155 806 146 822 q 201 575 201 734 q 164 236 201 412 q 129 68 148 138 q 114 -9 114 7 l 115 -19 q 183 -31 133 -31 q 282 -33 233 -31 l 403 -31 q 530 -35 510 -31 q 583 -38 557 -38 z "},"":{"ha":903,"x_min":60,"x_max":844,"o":"m 350 989 q 278 998 312 989 l 260 1002 q 224 991 243 991 q 187 1000 208 991 q 146 1077 146 1019 q 185 1177 146 1146 q 255 1208 224 1208 q 316 1201 294 1208 q 366 1194 338 1194 q 395 1196 380 1194 q 483 1207 433 1207 l 509 1206 q 575 1207 552 1206 l 581 1207 q 628 1190 609 1207 q 658 1123 658 1168 q 628 1032 658 1069 q 524 1001 605 1001 l 480 1002 q 414 996 438 1001 q 350 989 382 989 m 350 1043 q 400 1048 376 1043 q 503 1057 435 1057 l 533 1057 q 579 1062 562 1057 l 585 1065 l 585 1066 l 586 1066 q 604 1123 604 1088 q 594 1147 604 1141 l 589 1153 l 533 1152 l 483 1153 q 407 1143 439 1153 l 406 1143 q 366 1139 385 1139 q 300 1149 330 1139 q 255 1154 283 1154 l 245 1152 q 201 1077 201 1139 q 224 1046 201 1046 q 235 1052 228 1046 q 252 1058 243 1058 q 293 1050 266 1058 q 350 1043 320 1043 m 583 -92 q 524 -90 555 -92 l 522 -90 q 442 -85 513 -85 l 282 -87 l 184 -85 q 76 -57 107 -85 q 60 -9 60 -41 q 76 81 60 15 l 76 83 q 111 245 88 125 l 114 263 q 146 575 146 418 q 109 777 146 716 l 109 779 q 83 848 83 822 q 111 903 83 878 q 273 967 167 952 l 281 967 q 494 986 391 986 q 582 983 537 986 q 689 951 639 981 q 802 772 802 886 q 741 677 791 711 l 734 673 q 688 661 711 661 q 560 728 636 661 l 559 730 q 435 796 492 796 q 397 788 403 796 q 354 707 354 761 q 372 635 354 670 q 513 571 403 571 l 557 568 q 658 547 608 567 q 739 425 739 511 q 719 349 739 381 l 719 347 q 637 316 699 316 q 581 318 609 316 q 529 320 553 320 q 479 317 510 320 q 426 290 454 315 q 391 195 391 251 q 414 125 391 156 q 488 94 444 94 q 617 141 543 94 q 723 189 667 175 q 736 191 728 191 q 791 179 761 191 q 844 100 844 157 q 765 -47 844 20 q 764 -49 765 -49 q 583 -92 707 -92 m 583 -38 q 731 -5 686 -38 q 789 100 789 45 q 736 136 789 136 q 647 96 689 123 q 488 39 566 39 q 374 88 420 39 q 336 195 336 129 q 388 328 336 273 q 472 372 423 366 q 529 374 507 374 q 584 372 556 374 q 637 370 612 370 q 670 374 661 370 q 685 425 685 382 q 556 514 685 510 l 511 517 q 323 610 370 517 q 300 707 300 656 q 368 834 300 789 q 435 850 393 850 q 484 842 457 850 q 597 769 537 829 q 688 715 659 715 q 703 718 697 715 l 703 719 q 747 779 741 738 q 724 848 747 815 q 661 904 700 882 q 578 929 623 926 q 494 932 536 932 q 296 914 395 932 l 293 914 q 146 863 195 905 q 137 848 137 853 l 137 844 q 142 831 138 840 q 155 806 146 822 q 201 575 201 734 q 164 236 201 412 q 129 68 148 138 q 114 -9 114 7 l 115 -19 q 183 -31 133 -31 q 282 -33 233 -31 l 403 -31 q 530 -35 510 -31 q 583 -38 557 -38 z "},"":{"ha":1063,"x_min":60,"x_max":1004,"o":"m 519 -114 q 563 -104 544 -114 q 578 -56 578 -92 q 570 4 578 -30 q 568 11 568 7 q 530 37 568 34 l 522 38 q 494 30 505 38 l 494 24 q 500 -28 500 11 q 487 -92 500 -77 l 486 -102 q 496 -107 486 -103 q 505 -111 500 -109 q 519 -114 509 -114 m 632 109 q 922 231 837 109 q 948 293 948 277 l 949 321 q 830 568 949 495 q 745 597 781 593 l 692 600 q 544 490 551 600 q 581 430 545 450 q 631 419 604 419 q 699 429 655 419 q 766 435 732 435 q 810 430 792 435 l 811 430 q 848 385 848 415 q 785 307 848 349 q 692 267 734 270 q 642 264 655 264 q 547 278 593 264 l 545 278 q 335 430 419 324 q 270 544 290 480 l 269 547 q 266 581 266 563 q 332 764 266 654 q 363 808 335 774 q 411 840 381 830 l 419 842 q 456 845 438 845 q 537 833 496 845 q 600 823 568 823 q 636 826 617 823 q 675 855 675 844 q 677 875 675 867 l 677 887 q 669 928 677 906 q 549 993 650 978 q 514 996 532 996 q 328 926 438 996 l 327 926 q 195 836 244 880 q 114 627 114 749 q 137 516 114 568 q 189 415 160 464 l 197 403 q 205 388 205 389 q 354 194 262 275 q 632 109 473 109 m 519 -168 q 477 -159 495 -168 q 431 -100 431 -142 q 444 -61 431 -79 l 444 -57 q 446 -28 446 -43 q 444 1 446 -14 l 439 28 q 456 71 439 54 l 467 77 q 321 151 388 102 l 320 152 q 156 362 218 240 l 142 388 q 60 627 60 525 q 156 873 60 768 q 157 875 157 873 q 300 972 212 924 q 514 1050 422 1050 q 557 1047 534 1050 q 718 952 686 1027 q 731 883 731 918 q 712 811 731 830 q 652 774 693 792 q 648 773 650 774 q 600 769 624 769 q 521 781 560 769 q 456 791 488 791 q 430 789 442 791 q 423 787 427 787 q 404 773 412 783 q 385 745 385 749 q 381 739 384 742 q 320 581 320 639 q 376 465 320 529 l 377 464 q 563 330 452 370 q 642 319 601 319 l 686 321 q 755 351 715 324 q 788 380 773 363 q 766 381 781 381 q 709 374 738 381 q 631 365 661 365 q 556 381 591 365 l 555 382 q 490 491 492 418 q 510 567 490 525 q 692 654 552 654 q 856 616 785 654 l 859 614 q 1004 330 1004 522 l 1002 293 q 968 202 1001 255 l 967 199 q 632 54 861 54 l 608 54 q 623 15 621 35 q 632 -56 632 -23 q 628 -99 632 -77 q 594 -149 623 -127 l 590 -152 q 519 -168 557 -168 z "},"":{"ha":1063,"x_min":60,"x_max":1004,"o":"m 519 -114 q 563 -104 544 -114 q 578 -56 578 -92 q 570 4 578 -30 q 568 11 568 7 q 530 37 568 34 l 522 38 q 494 30 505 38 l 494 24 q 500 -28 500 11 q 487 -92 500 -77 l 486 -102 q 496 -107 486 -103 q 505 -111 500 -109 q 519 -114 509 -114 m 632 109 q 922 231 837 109 q 948 293 948 277 l 949 321 q 830 568 949 495 q 745 597 781 593 l 692 600 q 544 490 551 600 q 581 430 545 450 q 631 419 604 419 q 699 429 655 419 q 766 435 732 435 q 810 430 792 435 l 811 430 q 848 385 848 415 q 785 307 848 349 q 692 267 734 270 q 642 264 655 264 q 547 278 593 264 l 545 278 q 335 430 419 324 q 270 544 290 480 l 269 547 q 266 581 266 563 q 332 764 266 654 q 363 808 335 774 q 411 840 381 830 l 419 842 q 456 845 438 845 q 537 833 496 845 q 600 823 568 823 q 636 826 617 823 q 675 855 675 844 q 677 875 675 867 l 677 887 q 669 928 677 906 q 549 993 650 978 q 514 996 532 996 q 328 926 438 996 l 327 926 q 195 836 244 880 q 114 627 114 749 q 137 516 114 568 q 189 415 160 464 l 197 403 q 205 388 205 389 q 354 194 262 275 q 632 109 473 109 m 519 -168 q 477 -159 495 -168 q 431 -100 431 -142 q 444 -61 431 -79 l 444 -57 q 446 -28 446 -43 q 444 1 446 -14 l 439 28 q 456 71 439 54 l 467 77 q 321 151 388 102 l 320 152 q 156 362 218 240 l 142 388 q 60 627 60 525 q 156 873 60 768 q 157 875 157 873 q 300 972 212 924 q 514 1050 422 1050 q 557 1047 534 1050 q 718 952 686 1027 q 731 883 731 918 q 712 811 731 830 q 652 774 693 792 q 648 773 650 774 q 600 769 624 769 q 521 781 560 769 q 456 791 488 791 q 430 789 442 791 q 423 787 427 787 q 404 773 412 783 q 385 745 385 749 q 381 739 384 742 q 320 581 320 639 q 376 465 320 529 l 377 464 q 563 330 452 370 q 642 319 601 319 l 686 321 q 755 351 715 324 q 788 380 773 363 q 766 381 781 381 q 709 374 738 381 q 631 365 661 365 q 556 381 591 365 l 555 382 q 490 491 492 418 q 510 567 490 525 q 692 654 552 654 q 856 616 785 654 l 859 614 q 1004 330 1004 522 l 1002 293 q 968 202 1001 255 l 967 199 q 632 54 861 54 l 608 54 q 623 15 621 35 q 632 -56 632 -23 q 628 -99 632 -77 q 594 -149 623 -127 l 590 -152 q 519 -168 557 -168 z "},"":{"ha":418,"x_min":-28,"x_max":445,"o":"m 349 865 q 389 907 377 865 q 391 932 391 916 l 391 937 q 382 959 391 958 q 339 960 373 960 q 217 968 258 960 q 141 977 176 977 q 47 957 69 977 q 26 898 26 937 q 28 873 26 875 q 43 871 31 871 l 50 872 q 127 882 83 882 q 191 875 159 882 q 286 867 241 867 l 349 865 m 221 54 q 281 156 281 54 l 281 160 q 285 240 283 171 l 279 452 q 259 681 279 621 q 203 726 244 726 q 161 709 184 726 q 114 503 114 678 q 117 426 114 464 l 117 420 q 113 336 113 378 q 121 213 113 275 q 197 62 133 115 q 221 54 210 54 m 350 811 l 349 811 q 180 822 231 811 q 127 827 153 827 q 65 821 98 827 q 43 817 54 817 q 3 826 18 817 q -26 864 -22 841 q -28 898 -28 879 q -23 937 -28 918 q 41 1016 -8 997 q 141 1031 83 1031 q 227 1021 182 1031 q 339 1015 281 1015 q 392 1013 384 1015 q 426 993 408 1009 q 445 928 444 977 q 441 892 445 907 q 350 811 416 812 m 221 0 q 164 20 189 0 q 66 206 81 87 q 58 336 58 271 q 62 423 58 380 q 60 503 60 463 q 104 730 60 669 q 203 780 142 780 q 285 745 252 780 q 334 452 332 708 l 339 240 q 335 155 339 180 q 311 50 335 81 q 264 9 288 19 q 221 0 240 0 z "},"":{"ha":418,"x_min":-28,"x_max":445,"o":"m 349 865 q 389 907 377 865 q 391 932 391 916 l 391 937 q 382 959 391 958 q 339 960 373 960 q 217 968 258 960 q 141 977 176 977 q 47 957 69 977 q 26 898 26 937 q 28 873 26 875 q 43 871 31 871 l 50 872 q 127 882 83 882 q 191 875 159 882 q 286 867 241 867 l 349 865 m 221 54 q 281 156 281 54 l 281 160 q 285 240 283 171 l 279 452 q 259 681 279 621 q 203 726 244 726 q 161 709 184 726 q 114 503 114 678 q 117 426 114 464 l 117 420 q 113 336 113 378 q 121 213 113 275 q 197 62 133 115 q 221 54 210 54 m 350 811 l 349 811 q 180 822 231 811 q 127 827 153 827 q 65 821 98 827 q 43 817 54 817 q 3 826 18 817 q -26 864 -22 841 q -28 898 -28 879 q -23 937 -28 918 q 41 1016 -8 997 q 141 1031 83 1031 q 227 1021 182 1031 q 339 1015 281 1015 q 392 1013 384 1015 q 426 993 408 1009 q 445 928 444 977 q 441 892 445 907 q 350 811 416 812 m 221 0 q 164 20 189 0 q 66 206 81 87 q 58 336 58 271 q 62 423 58 380 q 60 503 60 463 q 104 730 60 669 q 203 780 142 780 q 285 745 252 780 q 334 452 332 708 l 339 240 q 335 155 339 180 q 311 50 335 81 q 264 9 288 19 q 221 0 240 0 z "},"":{"ha":882,"x_min":60,"x_max":822,"o":"m 430 -114 q 473 -104 454 -114 q 488 -56 488 -92 q 480 4 488 -30 q 479 11 479 7 q 441 37 479 34 l 433 38 q 404 30 415 38 l 404 24 q 411 -28 411 11 q 397 -92 411 -77 l 396 -102 q 407 -107 396 -103 q 415 -111 411 -109 q 430 -114 419 -114 m 209 81 q 283 159 259 81 q 326 252 294 195 q 366 349 357 308 q 373 370 368 362 q 414 391 387 391 q 469 359 442 391 q 514 293 479 349 q 543 250 528 271 q 568 203 557 228 q 689 113 610 113 q 765 175 751 117 q 768 198 768 187 q 751 250 768 225 l 738 273 q 722 298 726 297 q 669 363 704 309 l 667 363 q 634 406 650 389 q 600 448 618 423 q 521 528 566 491 q 511 547 513 534 q 519 567 511 559 q 575 643 555 601 l 576 646 q 650 798 621 718 l 650 799 q 669 879 669 844 q 661 913 669 897 q 648 932 652 929 l 628 932 q 519 838 568 932 l 518 836 q 463 723 486 785 q 407 620 446 665 q 362 600 389 600 q 308 627 335 600 q 260 720 267 666 q 258 817 258 746 q 222 977 258 910 q 182 1010 202 1010 q 164 1005 178 1010 q 129 966 130 983 l 127 924 q 136 841 127 884 q 145 690 145 798 q 125 388 145 557 q 114 237 114 290 q 157 103 114 144 q 209 81 186 81 m 430 -168 q 388 -159 406 -168 q 342 -100 342 -141 q 354 -61 342 -77 l 354 -57 q 357 -28 357 -43 q 354 1 357 -14 q 350 28 350 23 q 366 71 350 56 q 433 92 389 92 q 510 65 480 92 q 533 15 532 46 q 543 -56 543 -23 q 538 -99 543 -77 q 506 -148 533 -127 q 430 -168 479 -168 m 209 27 q 123 61 167 27 q 60 237 60 110 q 71 393 60 304 q 79 480 76 438 l 79 481 q 91 690 91 613 q 82 835 91 791 q 73 924 73 879 l 75 967 q 136 1051 77 1013 q 182 1065 157 1065 q 269 1004 233 1065 q 312 817 312 929 q 315 726 312 749 q 346 665 319 692 q 362 654 358 654 q 366 656 365 654 q 411 738 397 692 q 472 864 426 792 q 628 986 537 986 l 650 986 q 711 936 688 986 q 723 879 723 911 q 701 779 723 833 q 623 617 670 694 q 578 549 605 581 q 643 480 613 518 q 676 441 659 458 q 713 393 693 425 q 755 342 742 353 q 787 298 769 332 l 798 279 q 822 198 822 241 q 817 161 822 180 q 720 61 798 83 q 690 58 712 58 q 519 180 578 58 q 496 221 510 201 q 468 263 481 241 q 418 334 425 330 q 372 224 407 285 q 335 142 350 184 q 209 27 297 27 z "},"":{"ha":882,"x_min":60,"x_max":822,"o":"m 430 -114 q 473 -104 454 -114 q 488 -56 488 -92 q 480 4 488 -30 q 479 11 479 7 q 441 37 479 34 l 433 38 q 404 30 415 38 l 404 24 q 411 -28 411 11 q 397 -92 411 -77 l 396 -102 q 407 -107 396 -103 q 415 -111 411 -109 q 430 -114 419 -114 m 209 81 q 283 159 259 81 q 326 252 294 195 q 366 349 357 308 q 373 370 368 362 q 414 391 387 391 q 469 359 442 391 q 514 293 479 349 q 543 250 528 271 q 568 203 557 228 q 689 113 610 113 q 765 175 751 117 q 768 198 768 187 q 751 250 768 225 l 738 273 q 722 298 726 297 q 669 363 704 309 l 667 363 q 634 406 650 389 q 600 448 618 423 q 521 528 566 491 q 511 547 513 534 q 519 567 511 559 q 575 643 555 601 l 576 646 q 650 798 621 718 l 650 799 q 669 879 669 844 q 661 913 669 897 q 648 932 652 929 l 628 932 q 519 838 568 932 l 518 836 q 463 723 486 785 q 407 620 446 665 q 362 600 389 600 q 308 627 335 600 q 260 720 267 666 q 258 817 258 746 q 222 977 258 910 q 182 1010 202 1010 q 164 1005 178 1010 q 129 966 130 983 l 127 924 q 136 841 127 884 q 145 690 145 798 q 125 388 145 557 q 114 237 114 290 q 157 103 114 144 q 209 81 186 81 m 430 -168 q 388 -159 406 -168 q 342 -100 342 -141 q 354 -61 342 -77 l 354 -57 q 357 -28 357 -43 q 354 1 357 -14 q 350 28 350 23 q 366 71 350 56 q 433 92 389 92 q 510 65 480 92 q 533 15 532 46 q 543 -56 543 -23 q 538 -99 543 -77 q 506 -148 533 -127 q 430 -168 479 -168 m 209 27 q 123 61 167 27 q 60 237 60 110 q 71 393 60 304 q 79 480 76 438 l 79 481 q 91 690 91 613 q 82 835 91 791 q 73 924 73 879 l 75 967 q 136 1051 77 1013 q 182 1065 157 1065 q 269 1004 233 1065 q 312 817 312 929 q 315 726 312 749 q 346 665 319 692 q 362 654 358 654 q 366 656 365 654 q 411 738 397 692 q 472 864 426 792 q 628 986 537 986 l 650 986 q 711 936 688 986 q 723 879 723 911 q 701 779 723 833 q 623 617 670 694 q 578 549 605 581 q 643 480 613 518 q 676 441 659 458 q 713 393 693 425 q 755 342 742 353 q 787 298 769 332 l 798 279 q 822 198 822 241 q 817 161 822 180 q 720 61 798 83 q 690 58 712 58 q 519 180 578 58 q 496 221 510 201 q 468 263 481 241 q 418 334 425 330 q 372 224 407 285 q 335 142 350 184 q 209 27 297 27 z "},"":{"ha":742,"x_min":60,"x_max":682,"o":"m 308 -114 q 351 -104 332 -114 q 366 -56 366 -92 q 358 4 366 -30 q 357 11 357 7 q 319 37 357 34 l 311 38 q 282 30 293 38 l 282 24 q 289 -28 289 11 q 275 -92 289 -77 l 274 -102 q 285 -107 274 -103 q 293 -111 289 -109 q 308 -114 297 -114 m 458 109 q 594 121 567 109 q 628 191 628 129 q 627 211 628 199 q 625 244 625 222 q 620 294 625 273 q 496 327 609 327 q 467 326 481 327 q 445 324 452 324 q 400 342 412 324 q 393 363 393 351 l 397 445 q 393 612 393 544 l 393 633 q 396 747 396 682 l 397 796 q 396 879 397 853 q 361 941 393 918 q 334 952 345 951 l 305 954 q 259 951 282 954 l 208 952 q 152 945 178 952 q 121 869 121 936 q 115 765 121 848 l 114 739 q 119 662 114 703 q 125 518 125 621 l 123 487 q 127 342 123 399 l 126 331 q 125 300 126 315 q 123 270 123 285 q 127 222 123 247 q 132 186 132 198 q 157 123 132 129 l 159 122 q 232 111 186 111 l 260 113 l 458 109 m 308 -168 q 266 -159 283 -168 q 220 -100 220 -141 q 232 -61 220 -77 l 232 -57 q 235 -28 235 -43 q 232 1 235 -14 q 228 28 228 23 q 233 57 228 46 l 232 57 q 138 72 175 57 q 77 184 80 91 q 73 213 76 201 q 69 270 69 237 q 71 302 69 288 q 72 331 72 317 q 73 343 72 338 q 69 457 69 399 l 71 518 q 65 658 71 609 q 60 741 60 700 l 61 768 q 66 869 66 849 q 71 916 66 902 q 138 997 88 983 q 208 1006 170 1006 l 255 1005 q 305 1008 281 1008 l 338 1006 q 391 985 363 1005 q 450 883 445 948 q 452 827 452 864 q 448 612 450 674 q 450 479 448 552 l 452 444 l 449 378 q 496 381 472 381 q 612 368 571 381 q 671 309 661 351 q 680 244 680 281 q 681 214 680 225 q 682 191 682 202 q 613 69 682 91 q 502 54 575 54 l 396 54 q 411 15 410 35 q 420 -56 420 -23 q 416 -99 420 -77 q 384 -148 411 -127 q 308 -168 357 -168 z "},"":{"ha":742,"x_min":60,"x_max":682,"o":"m 308 -114 q 351 -104 332 -114 q 366 -56 366 -92 q 358 4 366 -30 q 357 11 357 7 q 319 37 357 34 l 311 38 q 282 30 293 38 l 282 24 q 289 -28 289 11 q 275 -92 289 -77 l 274 -102 q 285 -107 274 -103 q 293 -111 289 -109 q 308 -114 297 -114 m 458 109 q 594 121 567 109 q 628 191 628 129 q 627 211 628 199 q 625 244 625 222 q 620 294 625 273 q 496 327 609 327 q 467 326 481 327 q 445 324 452 324 q 400 342 412 324 q 393 363 393 351 l 397 445 q 393 612 393 544 l 393 633 q 396 747 396 682 l 397 796 q 396 879 397 853 q 361 941 393 918 q 334 952 345 951 l 305 954 q 259 951 282 954 l 208 952 q 152 945 178 952 q 121 869 121 936 q 115 765 121 848 l 114 739 q 119 662 114 703 q 125 518 125 621 l 123 487 q 127 342 123 399 l 126 331 q 125 300 126 315 q 123 270 123 285 q 127 222 123 247 q 132 186 132 198 q 157 123 132 129 l 159 122 q 232 111 186 111 l 260 113 l 458 109 m 308 -168 q 266 -159 283 -168 q 220 -100 220 -141 q 232 -61 220 -77 l 232 -57 q 235 -28 235 -43 q 232 1 235 -14 q 228 28 228 23 q 233 57 228 46 l 232 57 q 138 72 175 57 q 77 184 80 91 q 73 213 76 201 q 69 270 69 237 q 71 302 69 288 q 72 331 72 317 q 73 343 72 338 q 69 457 69 399 l 71 518 q 65 658 71 609 q 60 741 60 700 l 61 768 q 66 869 66 849 q 71 916 66 902 q 138 997 88 983 q 208 1006 170 1006 l 255 1005 q 305 1008 281 1008 l 338 1006 q 391 985 363 1005 q 450 883 445 948 q 452 827 452 864 q 448 612 450 674 q 450 479 448 552 l 452 444 l 449 378 q 496 381 472 381 q 612 368 571 381 q 671 309 661 351 q 680 244 680 281 q 681 214 680 225 q 682 191 682 202 q 613 69 682 91 q 502 54 575 54 l 396 54 q 411 15 410 35 q 420 -56 420 -23 q 416 -99 420 -77 q 384 -148 411 -127 q 308 -168 357 -168 z "},"":{"ha":739,"x_min":60,"x_max":680,"o":"m 487 95 q 524 111 506 95 q 575 271 566 153 q 585 335 576 292 q 614 656 612 492 q 621 770 614 718 q 625 845 625 807 l 624 883 q 591 967 620 933 q 549 991 568 991 q 507 962 529 991 q 467 845 473 907 q 461 732 461 783 l 464 639 q 452 499 464 568 q 410 448 442 448 q 361 498 377 448 q 347 576 347 534 q 320 840 347 711 q 255 956 293 956 q 203 928 236 956 q 138 789 151 873 q 126 609 126 697 q 114 194 125 358 q 115 161 114 165 q 118 152 117 156 q 165 103 127 103 q 237 160 202 103 q 273 237 260 197 q 298 256 279 256 q 321 243 312 256 q 387 159 346 203 q 450 106 433 111 q 487 95 477 95 m 311 -114 q 354 -104 335 -114 q 369 -56 369 -92 q 361 4 369 -30 q 359 11 359 7 q 321 37 359 34 l 313 38 q 285 30 296 38 l 285 24 q 292 -28 292 11 q 278 -92 292 -77 l 277 -102 q 288 -107 277 -103 q 296 -111 292 -109 q 311 -114 300 -114 m 487 41 q 305 172 406 41 q 165 49 248 49 q 107 69 137 49 q 60 195 60 100 l 60 197 q 72 609 71 359 q 85 798 72 701 q 165 967 99 899 q 255 1010 208 1010 q 373 850 339 1010 q 401 575 401 716 q 404 548 401 562 q 410 637 410 593 l 407 732 q 414 854 407 784 q 461 990 422 925 l 463 993 q 549 1046 502 1046 q 631 1004 590 1046 q 678 886 673 963 l 680 845 q 675 766 680 796 q 669 655 671 735 q 639 324 666 475 q 629 266 633 297 q 562 72 618 127 q 487 41 530 41 m 311 -168 q 269 -159 286 -168 q 222 -100 222 -141 q 235 -61 222 -77 l 235 -57 q 237 -28 237 -43 q 235 1 237 -14 q 231 28 231 23 q 247 71 231 56 q 313 92 270 92 q 391 65 361 92 q 414 15 412 46 q 423 -56 423 -23 q 419 -99 423 -77 q 387 -148 414 -127 q 311 -168 359 -168 z "},"":{"ha":739,"x_min":60,"x_max":680,"o":"m 487 95 q 524 111 506 95 q 575 271 566 153 q 585 335 576 292 q 614 656 612 492 q 621 770 614 718 q 625 845 625 807 l 624 883 q 591 967 620 933 q 549 991 568 991 q 507 962 529 991 q 467 845 473 907 q 461 732 461 783 l 464 639 q 452 499 464 568 q 410 448 442 448 q 361 498 377 448 q 347 576 347 534 q 320 840 347 711 q 255 956 293 956 q 203 928 236 956 q 138 789 151 873 q 126 609 126 697 q 114 194 125 358 q 115 161 114 165 q 118 152 117 156 q 165 103 127 103 q 237 160 202 103 q 273 237 260 197 q 298 256 279 256 q 321 243 312 256 q 387 159 346 203 q 450 106 433 111 q 487 95 477 95 m 311 -114 q 354 -104 335 -114 q 369 -56 369 -92 q 361 4 369 -30 q 359 11 359 7 q 321 37 359 34 l 313 38 q 285 30 296 38 l 285 24 q 292 -28 292 11 q 278 -92 292 -77 l 277 -102 q 288 -107 277 -103 q 296 -111 292 -109 q 311 -114 300 -114 m 487 41 q 305 172 406 41 q 165 49 248 49 q 107 69 137 49 q 60 195 60 100 l 60 197 q 72 609 71 359 q 85 798 72 701 q 165 967 99 899 q 255 1010 208 1010 q 373 850 339 1010 q 401 575 401 716 q 404 548 401 562 q 410 637 410 593 l 407 732 q 414 854 407 784 q 461 990 422 925 l 463 993 q 549 1046 502 1046 q 631 1004 590 1046 q 678 886 673 963 l 680 845 q 675 766 680 796 q 669 655 671 735 q 639 324 666 475 q 629 266 633 297 q 562 72 618 127 q 487 41 530 41 m 311 -168 q 269 -159 286 -168 q 222 -100 222 -141 q 235 -61 222 -77 l 235 -57 q 237 -28 237 -43 q 235 1 237 -14 q 231 28 231 23 q 247 71 231 56 q 313 92 270 92 q 391 65 361 92 q 414 15 412 46 q 423 -56 423 -23 q 419 -99 423 -77 q 387 -148 414 -127 q 311 -168 359 -168 z "},"":{"ha":883,"x_min":60,"x_max":823,"o":"m 414 -68 l 327 -66 q 252 -62 290 -66 q 99 50 155 -50 q 60 165 60 119 q 96 260 60 212 q 241 331 148 331 q 323 320 281 331 q 381 313 354 315 q 408 285 408 311 q 391 233 408 263 q 372 180 372 193 q 415 164 372 164 q 582 293 582 164 q 549 410 582 361 q 441 488 514 456 q 374 522 400 506 q 266 708 266 594 q 345 859 266 793 q 491 928 403 905 q 288 1123 288 989 q 300 1160 289 1141 q 397 1203 324 1203 q 422 1200 412 1203 q 560 1114 503 1176 l 567 1108 q 739 1165 674 1165 q 818 1114 793 1165 q 823 1076 823 1099 q 789 993 823 1034 q 693 928 754 952 l 694 928 q 804 876 770 913 q 823 829 823 854 q 736 718 823 772 q 681 700 709 700 q 610 735 642 700 l 591 750 q 537 762 576 762 q 486 753 502 762 q 473 730 477 749 q 602 614 473 667 q 742 473 693 579 q 774 315 774 406 l 772 262 q 669 15 768 142 q 507 -64 613 -54 q 414 -68 460 -68 m 600 962 q 678 981 633 962 q 746 1026 723 1000 q 769 1076 769 1053 q 739 1111 769 1111 q 576 1051 682 1109 q 563 1048 570 1048 q 544 1057 553 1048 q 524 1076 534 1066 q 522 1077 522 1076 q 407 1149 475 1127 q 362 1145 373 1149 q 342 1122 346 1137 q 490 985 343 1032 q 600 962 560 962 m 414 -14 q 502 -9 458 -14 q 625 49 586 -3 q 718 264 712 159 l 720 315 q 693 450 720 393 q 582 564 654 537 l 581 564 q 419 730 419 632 l 419 738 q 445 789 427 774 q 537 817 476 817 q 650 772 613 817 q 681 754 666 754 q 707 764 693 754 l 708 764 q 769 829 769 803 q 765 840 769 834 q 685 873 742 864 l 685 875 q 590 884 636 884 q 378 815 476 884 q 320 708 320 768 q 404 568 320 623 q 463 537 434 551 q 593 442 549 500 q 636 293 636 384 q 524 126 636 172 q 415 110 484 110 q 317 180 317 110 q 345 260 317 214 l 346 262 l 312 267 q 241 277 275 277 q 140 228 175 277 q 114 165 114 194 q 146 76 114 136 q 259 -8 189 0 q 335 -12 293 -12 l 414 -14 z "},"":{"ha":883,"x_min":60,"x_max":823,"o":"m 414 -68 l 327 -66 q 252 -62 290 -66 q 99 50 155 -50 q 60 165 60 119 q 96 260 60 212 q 241 331 148 331 q 323 320 281 331 q 381 313 354 315 q 408 285 408 311 q 391 233 408 263 q 372 180 372 193 q 415 164 372 164 q 582 293 582 164 q 549 410 582 361 q 441 488 514 456 q 374 522 400 506 q 266 708 266 594 q 345 859 266 793 q 491 928 403 905 q 288 1123 288 989 q 300 1160 289 1141 q 397 1203 324 1203 q 422 1200 412 1203 q 560 1114 503 1176 l 567 1108 q 739 1165 674 1165 q 818 1114 793 1165 q 823 1076 823 1099 q 789 993 823 1034 q 693 928 754 952 l 694 928 q 804 876 770 913 q 823 829 823 854 q 736 718 823 772 q 681 700 709 700 q 610 735 642 700 l 591 750 q 537 762 576 762 q 486 753 502 762 q 473 730 477 749 q 602 614 473 667 q 742 473 693 579 q 774 315 774 406 l 772 262 q 669 15 768 142 q 507 -64 613 -54 q 414 -68 460 -68 m 600 962 q 678 981 633 962 q 746 1026 723 1000 q 769 1076 769 1053 q 739 1111 769 1111 q 576 1051 682 1109 q 563 1048 570 1048 q 544 1057 553 1048 q 524 1076 534 1066 q 522 1077 522 1076 q 407 1149 475 1127 q 362 1145 373 1149 q 342 1122 346 1137 q 490 985 343 1032 q 600 962 560 962 m 414 -14 q 502 -9 458 -14 q 625 49 586 -3 q 718 264 712 159 l 720 315 q 693 450 720 393 q 582 564 654 537 l 581 564 q 419 730 419 632 l 419 738 q 445 789 427 774 q 537 817 476 817 q 650 772 613 817 q 681 754 666 754 q 707 764 693 754 l 708 764 q 769 829 769 803 q 765 840 769 834 q 685 873 742 864 l 685 875 q 590 884 636 884 q 378 815 476 884 q 320 708 320 768 q 404 568 320 623 q 463 537 434 551 q 593 442 549 500 q 636 293 636 384 q 524 126 636 172 q 415 110 484 110 q 317 180 317 110 q 345 260 317 214 l 346 262 l 312 267 q 241 277 275 277 q 140 228 175 277 q 114 165 114 194 q 146 76 114 136 q 259 -8 189 0 q 335 -12 293 -12 l 414 -14 z "},"":{"ha":1031,"x_min":60,"x_max":971,"o":"m 381 -27 l 380 -27 q 229 23 297 -27 q 126 157 167 69 q 77 326 85 237 q 76 427 76 340 q 72 609 76 552 q 68 682 68 644 q 64 780 68 731 q 60 861 60 810 q 104 977 60 936 q 227 1017 148 1017 q 326 989 302 1017 q 381 865 381 945 q 366 732 381 810 q 354 617 357 665 q 346 519 351 559 q 338 416 338 448 q 343 353 338 385 l 343 351 q 384 305 349 305 q 487 433 456 305 l 492 450 q 518 576 507 513 q 656 920 551 804 q 774 982 709 982 q 803 979 795 982 q 894 845 894 955 q 857 731 894 781 l 856 728 q 830 642 830 701 q 876 464 830 557 l 905 407 q 971 201 971 289 q 962 92 971 126 q 861 20 940 20 q 751 73 799 20 q 684 191 709 119 q 381 -27 583 -22 m 378 27 q 640 225 553 30 q 661 281 652 254 q 686 301 666 300 q 711 279 704 301 q 727 236 719 258 l 727 233 q 792 109 746 164 q 861 75 823 75 q 910 106 903 75 q 917 201 917 118 q 857 381 917 274 q 776 642 776 524 q 815 765 776 722 q 840 845 840 799 q 773 928 840 924 q 697 884 734 928 q 572 568 602 780 q 544 433 555 460 l 540 420 q 384 251 499 251 q 310 284 336 251 q 283 416 283 317 q 292 526 283 463 q 300 620 294 545 q 315 764 305 720 q 327 865 327 815 q 289 948 327 921 q 283 954 285 951 q 269 960 281 958 q 227 963 256 963 q 114 861 114 963 q 118 785 114 812 q 122 682 122 757 q 126 613 123 647 q 130 446 130 553 l 132 330 q 175 182 140 251 l 175 180 q 378 27 247 27 m 674 985 l 673 985 q 505 996 555 985 q 452 1001 477 1001 q 389 993 422 1001 q 368 990 377 990 q 327 998 340 990 q 298 1038 302 1013 q 296 1070 296 1053 q 300 1111 296 1092 q 365 1188 315 1171 q 465 1204 407 1204 q 551 1195 505 1204 q 663 1188 605 1188 q 715 1185 708 1188 q 769 1100 769 1175 q 765 1066 769 1081 q 674 985 741 985 m 671 1039 q 712 1080 700 1039 q 715 1105 715 1089 l 715 1111 q 706 1133 715 1131 q 663 1134 697 1134 q 541 1142 581 1134 q 465 1150 500 1150 q 372 1131 393 1150 q 350 1070 350 1111 q 353 1046 350 1048 q 368 1044 355 1044 l 374 1046 q 452 1055 407 1055 q 514 1048 483 1055 q 610 1040 566 1040 l 671 1039 z "},"":{"ha":1031,"x_min":60,"x_max":971,"o":"m 381 -27 l 380 -27 q 229 23 297 -27 q 126 157 167 69 q 77 326 85 237 q 76 427 76 340 q 72 609 76 552 q 68 682 68 644 q 64 780 68 731 q 60 861 60 810 q 104 977 60 936 q 227 1017 148 1017 q 326 989 302 1017 q 381 865 381 945 q 366 732 381 810 q 354 617 357 665 q 346 519 351 559 q 338 416 338 448 q 343 353 338 385 l 343 351 q 384 305 349 305 q 487 433 456 305 l 492 450 q 518 576 507 513 q 656 920 551 804 q 774 982 709 982 q 803 979 795 982 q 894 845 894 955 q 857 731 894 781 l 856 728 q 830 642 830 701 q 876 464 830 557 l 905 407 q 971 201 971 289 q 962 92 971 126 q 861 20 940 20 q 751 73 799 20 q 684 191 709 119 q 381 -27 583 -22 m 378 27 q 640 225 553 30 q 661 281 652 254 q 686 301 666 300 q 711 279 704 301 q 727 236 719 258 l 727 233 q 792 109 746 164 q 861 75 823 75 q 910 106 903 75 q 917 201 917 118 q 857 381 917 274 q 776 642 776 524 q 815 765 776 722 q 840 845 840 799 q 773 928 840 924 q 697 884 734 928 q 572 568 602 780 q 544 433 555 460 l 540 420 q 384 251 499 251 q 310 284 336 251 q 283 416 283 317 q 292 526 283 463 q 300 620 294 545 q 315 764 305 720 q 327 865 327 815 q 289 948 327 921 q 283 954 285 951 q 269 960 281 958 q 227 963 256 963 q 114 861 114 963 q 118 785 114 812 q 122 682 122 757 q 126 613 123 647 q 130 446 130 553 l 132 330 q 175 182 140 251 l 175 180 q 378 27 247 27 m 674 985 l 673 985 q 505 996 555 985 q 452 1001 477 1001 q 389 993 422 1001 q 368 990 377 990 q 327 998 340 990 q 298 1038 302 1013 q 296 1070 296 1053 q 300 1111 296 1092 q 365 1188 315 1171 q 465 1204 407 1204 q 551 1195 505 1204 q 663 1188 605 1188 q 715 1185 708 1188 q 769 1100 769 1175 q 765 1066 769 1081 q 674 985 741 985 m 671 1039 q 712 1080 700 1039 q 715 1105 715 1089 l 715 1111 q 706 1133 715 1131 q 663 1134 697 1134 q 541 1142 581 1134 q 465 1150 500 1150 q 372 1131 393 1150 q 350 1070 350 1111 q 353 1046 350 1048 q 368 1044 355 1044 l 374 1046 q 452 1055 407 1055 q 514 1048 483 1055 q 610 1040 566 1040 l 671 1039 z "},"":{"ha":952,"x_min":60,"x_max":892,"o":"m 524 944 q 602 963 556 944 q 670 1008 647 982 q 693 1058 693 1035 q 663 1093 693 1093 q 500 1034 606 1092 q 486 1029 492 1029 q 467 1038 476 1029 q 446 1057 457 1047 q 445 1058 446 1058 q 331 1131 397 1109 q 283 1126 297 1131 q 266 1103 270 1120 q 412 967 267 1015 q 524 944 484 944 m 784 -33 q 800 -28 792 -33 q 833 8 829 -14 q 838 62 838 39 l 837 95 q 768 247 836 187 q 624 286 719 282 q 488 331 495 289 q 483 359 483 349 q 547 467 483 407 q 593 503 574 491 q 730 635 707 572 q 743 693 743 670 q 666 808 743 776 q 415 852 578 848 l 410 852 q 338 854 400 854 l 275 853 q 160 819 216 848 q 114 712 114 798 q 182 635 118 648 q 244 629 212 629 l 308 631 q 441 605 384 631 q 477 557 477 589 q 392 467 477 506 l 354 448 q 199 361 274 415 q 134 239 134 315 q 172 170 134 202 q 365 80 247 106 q 487 43 404 72 q 643 1 590 9 q 738 -23 690 -7 q 784 -33 764 -33 m 784 -87 q 719 -75 754 -87 q 635 -53 677 -61 q 469 -8 568 -42 q 353 27 412 12 q 137 129 221 56 q 80 239 80 178 q 168 406 80 340 q 350 507 247 463 q 422 553 414 538 q 401 563 418 557 q 308 576 357 576 l 244 575 q 171 582 205 575 q 60 707 69 604 l 60 711 q 136 868 60 829 q 271 907 202 901 q 338 909 297 909 q 416 906 393 909 l 429 906 q 212 1105 212 966 q 224 1142 212 1122 q 320 1185 248 1185 q 346 1183 336 1185 q 484 1096 427 1158 l 491 1089 q 663 1147 598 1146 q 741 1096 718 1147 q 747 1058 747 1081 q 712 974 747 1015 q 560 894 659 913 q 688 857 636 882 q 798 693 798 807 q 781 616 798 661 q 621 457 753 536 q 583 426 606 448 q 537 359 537 382 l 538 351 q 625 340 552 343 q 802 289 749 335 q 891 96 890 213 l 892 64 q 886 -1 892 35 q 825 -77 878 -52 q 784 -87 806 -87 z "},"":{"ha":952,"x_min":60,"x_max":892,"o":"m 524 944 q 602 963 556 944 q 670 1008 647 982 q 693 1058 693 1035 q 663 1093 693 1093 q 500 1034 606 1092 q 486 1029 492 1029 q 467 1038 476 1029 q 446 1057 457 1047 q 445 1058 446 1058 q 331 1131 397 1109 q 283 1126 297 1131 q 266 1103 270 1120 q 412 967 267 1015 q 524 944 484 944 m 784 -33 q 800 -28 792 -33 q 833 8 829 -14 q 838 62 838 39 l 837 95 q 768 247 836 187 q 624 286 719 282 q 488 331 495 289 q 483 359 483 349 q 547 467 483 407 q 593 503 574 491 q 730 635 707 572 q 743 693 743 670 q 666 808 743 776 q 415 852 578 848 l 410 852 q 338 854 400 854 l 275 853 q 160 819 216 848 q 114 712 114 798 q 182 635 118 648 q 244 629 212 629 l 308 631 q 441 605 384 631 q 477 557 477 589 q 392 467 477 506 l 354 448 q 199 361 274 415 q 134 239 134 315 q 172 170 134 202 q 365 80 247 106 q 487 43 404 72 q 643 1 590 9 q 738 -23 690 -7 q 784 -33 764 -33 m 784 -87 q 719 -75 754 -87 q 635 -53 677 -61 q 469 -8 568 -42 q 353 27 412 12 q 137 129 221 56 q 80 239 80 178 q 168 406 80 340 q 350 507 247 463 q 422 553 414 538 q 401 563 418 557 q 308 576 357 576 l 244 575 q 171 582 205 575 q 60 707 69 604 l 60 711 q 136 868 60 829 q 271 907 202 901 q 338 909 297 909 q 416 906 393 909 l 429 906 q 212 1105 212 966 q 224 1142 212 1122 q 320 1185 248 1185 q 346 1183 336 1185 q 484 1096 427 1158 l 491 1089 q 663 1147 598 1146 q 741 1096 718 1147 q 747 1058 747 1081 q 712 974 747 1015 q 560 894 659 913 q 688 857 636 882 q 798 693 798 807 q 781 616 798 661 q 621 457 753 536 q 583 426 606 448 q 537 359 537 382 l 538 351 q 625 340 552 343 q 802 289 749 335 q 891 96 890 213 l 892 64 q 886 -1 892 35 q 825 -77 878 -52 q 784 -87 806 -87 z "},"<":{"ha":621,"x_min":60,"x_max":562,"o":"m 465 190 q 418 202 438 190 q 247 358 319 264 q 243 363 245 359 q 178 435 241 366 q 109 488 144 472 l 104 490 q 60 564 60 518 q 125 656 60 629 l 126 656 q 425 784 282 705 q 472 795 446 795 q 549 750 521 795 q 562 704 562 730 q 517 627 562 654 q 331 537 457 591 q 372 491 353 515 q 511 359 433 411 q 556 288 556 331 q 519 210 556 235 q 465 190 491 190 m 465 244 q 488 254 473 244 q 502 288 502 263 q 483 313 502 302 q 328 458 395 370 q 266 528 298 495 q 258 547 258 536 q 274 572 258 563 q 507 704 507 666 q 502 723 507 713 q 472 741 492 741 q 450 735 461 741 q 142 605 304 655 q 114 564 114 595 q 132 537 114 548 q 216 475 178 515 q 283 400 254 435 q 445 250 363 301 q 465 244 457 244 z "},">":{"ha":708,"x_min":60,"x_max":648,"o":"m 149 95 q 72 140 99 95 q 60 183 60 159 q 104 264 60 243 q 277 404 197 312 q 372 476 302 435 q 446 528 412 499 l 387 560 q 206 623 278 618 l 205 623 q 119 715 119 633 q 206 804 119 798 l 208 804 q 359 772 289 802 q 495 708 430 743 q 624 614 579 669 l 627 610 q 648 534 648 572 q 625 456 648 487 q 491 339 570 382 q 372 240 419 293 q 194 106 293 152 q 149 95 172 95 m 149 149 q 171 155 160 149 q 331 277 252 193 q 463 385 384 336 q 464 387 464 385 q 581 487 533 423 q 594 534 594 511 q 581 582 594 557 q 490 651 543 627 l 469 661 q 339 722 407 694 q 203 750 271 750 q 174 715 174 750 q 206 677 174 677 l 209 677 q 412 608 293 673 l 438 594 q 517 534 514 553 q 509 515 517 522 q 499 505 502 507 q 487 491 492 495 q 399 429 448 456 q 316 368 355 403 q 130 217 231 269 q 114 183 114 208 q 118 167 114 175 q 149 149 129 149 z "},"":{"ha":781,"x_min":60,"x_max":722,"o":"m 505 247 q 529 259 513 247 q 533 263 530 259 q 541 292 541 273 q 524 316 541 304 q 296 465 408 377 q 285 487 285 475 q 311 514 285 510 q 637 593 475 525 q 667 628 667 604 q 647 663 667 651 q 632 667 640 667 l 624 666 q 301 589 453 594 q 201 625 201 589 q 228 671 201 640 q 349 757 277 722 l 357 760 q 393 772 378 772 q 425 774 399 774 q 456 810 456 774 q 419 849 456 849 q 306 819 362 849 q 205 750 250 789 q 130 656 160 711 q 114 597 114 628 q 191 460 114 532 q 484 252 313 345 q 505 247 496 247 m 505 193 q 460 203 480 193 q 153 419 281 300 q 60 597 60 509 q 168 791 60 697 q 422 903 296 903 q 510 810 510 891 q 420 720 510 726 q 278 644 349 712 q 300 643 288 643 q 602 715 442 648 q 632 722 617 722 q 677 708 656 722 q 722 628 722 678 q 656 541 722 568 q 384 467 522 486 q 551 362 467 408 q 595 292 595 334 q 564 215 595 237 q 505 193 532 193 z "},"":{"ha":834,"x_min":60,"x_max":774,"o":"m 709 456 q 718 472 716 467 q 720 479 720 477 q 715 500 720 488 q 566 662 656 595 l 564 662 l 534 686 q 399 810 456 741 q 378 828 388 825 q 359 831 368 831 q 351 829 357 831 q 338 821 346 827 q 269 750 305 785 q 267 749 269 749 q 170 642 214 699 q 115 519 127 589 l 114 509 q 121 483 114 491 q 138 472 127 475 l 149 471 q 170 476 159 471 q 186 495 183 483 q 264 640 202 581 l 277 652 q 296 661 285 661 q 305 659 300 661 q 323 636 320 652 q 332 369 332 502 l 332 297 q 339 272 332 281 q 370 263 346 263 q 407 296 407 263 l 407 298 q 395 647 407 473 q 410 673 395 663 q 422 675 416 675 q 438 670 430 675 l 495 624 q 651 463 591 557 q 667 447 659 450 q 678 444 674 444 q 700 448 693 444 q 709 456 707 452 m 764 525 q 774 479 774 500 q 753 423 774 453 q 727 400 745 411 q 678 389 709 389 q 644 397 663 389 q 605 433 624 406 q 463 581 551 519 l 461 581 l 453 589 q 461 297 461 442 l 461 296 q 370 209 452 209 q 278 297 282 209 l 278 369 q 273 567 278 468 q 240 486 247 532 q 239 483 239 484 q 194 427 229 445 q 148 416 171 416 l 145 416 l 130 418 q 125 419 127 418 q 60 510 60 441 l 60 511 l 61 526 l 61 529 q 126 675 76 610 q 231 789 174 735 q 298 859 266 823 l 300 859 q 359 886 327 886 q 441 845 407 886 q 566 730 494 781 l 567 730 l 598 705 q 762 526 699 633 l 764 525 z "},"":{"ha":730,"x_min":60,"x_max":670,"o":"m 289 152 q 244 165 266 152 q 198 245 198 195 q 347 430 198 304 q 426 505 393 471 q 345 513 385 507 q 148 526 241 525 q 60 617 60 536 q 148 708 60 701 l 149 708 q 353 696 248 708 l 392 690 l 381 699 q 342 728 355 718 q 315 748 328 739 q 294 760 302 757 l 283 765 q 199 715 259 715 q 176 718 186 715 q 111 806 111 739 q 129 875 111 840 q 252 951 171 951 l 278 949 q 393 907 334 945 l 406 901 q 617 731 526 834 q 670 598 670 674 l 670 587 q 591 416 658 491 q 469 294 534 351 q 380 209 412 245 l 372 199 q 289 152 335 152 m 289 206 q 324 228 308 206 l 332 237 q 432 334 368 278 q 551 452 496 389 l 551 453 q 616 593 606 513 q 576 693 616 652 l 576 694 q 378 853 491 791 q 326 883 345 873 q 255 897 298 897 q 176 848 205 897 q 165 806 165 826 q 201 769 165 773 q 228 778 218 769 q 237 800 237 787 q 267 823 247 823 q 376 770 311 823 l 426 732 q 492 674 445 723 q 500 655 500 666 q 498 644 500 650 q 471 628 490 628 q 345 642 408 633 q 145 654 243 654 q 114 617 114 654 q 121 591 114 601 q 151 581 127 582 q 353 567 245 579 q 484 553 418 559 q 506 537 499 552 q 509 526 509 532 q 382 389 509 500 q 256 259 313 330 q 252 245 252 252 q 273 212 252 224 q 289 206 281 206 z "},"":{"ha":755,"x_min":60,"x_max":696,"o":"m 490 194 q 404 217 449 194 q 335 266 357 224 q 156 473 278 323 l 84 563 q 60 628 60 593 q 83 688 60 661 q 155 716 107 716 q 216 690 190 716 l 294 593 q 278 812 281 703 l 278 815 q 327 894 283 875 q 370 903 347 903 q 461 815 452 903 q 487 521 465 667 l 500 399 q 517 473 507 414 q 562 533 524 514 q 605 544 583 544 q 631 540 618 544 q 696 450 696 518 l 696 448 q 608 241 685 315 q 490 194 555 194 m 490 248 q 571 282 532 248 q 642 452 632 340 q 614 488 642 481 q 605 490 610 490 q 586 484 597 490 q 571 465 572 479 q 530 349 557 372 q 487 321 503 321 q 473 326 480 321 q 450 351 452 338 l 433 513 q 407 812 411 662 q 396 842 406 836 q 370 849 387 849 q 332 814 335 849 q 358 521 336 666 l 359 505 q 343 476 359 486 l 332 475 q 311 484 320 475 l 175 654 q 155 662 167 662 q 114 628 114 662 q 126 598 114 612 l 198 509 l 199 509 l 199 507 q 377 301 321 355 q 382 293 381 298 q 415 270 392 271 l 425 267 q 490 248 460 248 z "},"":{"ha":684,"x_min":0,"x_max":738,"o":"m 109 -109 q 144 -97 127 -109 q 164 -65 161 -85 q 201 30 174 -11 q 208 43 205 37 q 214 52 210 49 q 307 260 264 142 q 370 426 361 406 q 675 986 476 675 q 684 1013 684 998 q 655 1063 684 1047 q 627 1072 642 1072 q 576 1042 595 1072 q 213 334 334 665 q 163 207 168 213 q 157 194 159 201 q 153 183 156 187 l 151 176 q 117 113 130 134 q 54 -49 61 27 q 95 -107 54 -94 l 109 -109 m 109 -163 q 79 -159 91 -163 q 0 -47 0 -130 q 1 -26 0 -35 q 71 142 20 64 q 100 198 87 170 q 115 233 106 217 q 161 353 123 248 q 530 1072 285 689 q 627 1126 566 1126 q 682 1109 655 1126 q 738 1013 738 1077 q 722 956 738 982 q 449 471 533 656 l 419 404 l 358 241 q 258 19 312 115 q 218 -75 224 -42 q 177 -140 210 -118 q 109 -163 144 -163 z "},"":{"ha":684,"x_min":0,"x_max":738,"o":"m 109 -109 q 144 -97 127 -109 q 164 -65 161 -85 q 201 30 174 -11 q 208 43 205 37 q 214 52 210 49 q 307 260 264 142 q 370 426 361 406 q 675 986 476 675 q 684 1013 684 998 q 655 1063 684 1047 q 627 1072 642 1072 q 576 1042 595 1072 q 213 334 334 665 q 163 207 168 213 q 157 194 159 201 q 153 183 156 187 l 151 176 q 117 113 130 134 q 54 -49 61 27 q 95 -107 54 -94 l 109 -109 m 109 -163 q 79 -159 91 -163 q 0 -47 0 -130 q 1 -26 0 -35 q 71 142 20 64 q 100 198 87 170 q 115 233 106 217 q 161 353 123 248 q 530 1072 285 689 q 627 1126 566 1126 q 682 1109 655 1126 q 738 1013 738 1077 q 722 956 738 982 q 449 471 533 656 l 419 404 l 358 241 q 258 19 312 115 q 218 -75 224 -42 q 177 -140 210 -118 q 109 -163 144 -163 z "},"":{"ha":334,"x_min":60,"x_max":274,"o":"m 153 749 q 197 766 176 749 q 220 891 220 800 q 214 1022 220 949 q 165 1107 208 1095 l 142 1103 q 123 1061 123 1095 q 126 1038 123 1050 q 130 945 130 1016 q 126 869 130 884 q 114 792 114 798 q 153 749 114 749 m 153 694 q 99 712 123 694 q 60 802 60 739 q 73 880 60 814 q 76 945 76 913 q 73 1013 76 978 q 69 1061 69 1038 q 81 1118 69 1097 q 156 1160 106 1160 l 184 1157 q 245 1106 217 1153 q 274 891 274 1059 q 269 810 274 852 q 239 732 264 769 q 153 694 209 694 z "},"":{"ha":700,"x_min":60,"x_max":640,"o":"m 171 751 q 222 769 210 751 q 266 921 262 830 q 288 1042 267 964 l 296 1081 q 240 1104 290 1104 q 191 1088 202 1104 q 182 1059 186 1081 l 176 1039 q 156 924 161 985 q 118 785 156 844 q 114 774 114 780 q 125 761 114 765 q 171 751 146 751 m 464 746 q 528 777 509 746 q 536 818 536 789 l 534 831 q 532 867 532 849 q 547 940 532 910 q 571 1039 566 979 l 571 1040 q 585 1107 578 1089 l 586 1111 q 584 1118 586 1116 q 582 1122 582 1120 q 533 1138 571 1138 q 487 1128 506 1138 l 486 1127 q 472 1097 479 1120 q 461 1029 465 1073 l 461 1028 q 439 951 452 978 q 422 872 422 911 q 424 842 422 857 q 426 808 426 826 q 416 785 426 793 q 406 774 406 777 q 464 746 406 746 m 171 697 q 103 711 136 697 q 60 774 60 731 q 72 815 60 796 q 102 924 102 867 l 102 929 q 133 1092 110 1019 q 240 1158 151 1158 q 289 1151 262 1158 q 333 1123 316 1143 q 350 1080 350 1103 q 339 1028 350 1072 q 320 918 326 971 q 267 739 316 811 q 171 697 239 697 m 464 692 q 354 750 372 692 q 351 774 351 758 q 372 819 351 799 l 370 837 q 368 872 368 854 q 391 972 368 924 q 407 1036 400 994 q 463 1177 418 1157 q 533 1192 494 1192 q 628 1150 601 1192 q 640 1111 640 1133 q 636 1089 640 1100 q 625 1034 629 1062 q 595 917 620 964 q 586 867 586 892 q 588 842 586 854 q 590 818 590 830 q 586 780 590 803 q 540 713 582 746 q 464 692 513 692 z "},"":{"ha":1185,"x_min":60,"x_max":1126,"o":"m 203 16 q 146 33 178 16 q 87 100 114 49 q 60 199 60 152 l 60 206 q 144 288 72 277 q 161 290 152 290 q 260 273 231 290 q 321 168 321 237 q 285 56 321 103 q 203 16 255 16 m 203 71 q 243 90 224 71 q 267 168 267 122 q 183 235 267 235 l 163 236 q 153 233 157 233 q 114 199 118 231 q 136 125 114 165 q 203 71 164 71 m 1036 14 q 967 45 997 14 q 914 208 914 99 l 916 240 q 941 286 917 270 q 987 300 962 300 q 1035 279 1013 300 l 1040 274 q 1107 205 1084 248 q 1126 126 1126 168 q 1120 92 1126 109 q 1036 14 1097 14 m 1036 68 q 1069 107 1057 68 l 1069 109 q 1072 126 1072 117 q 1058 182 1072 140 q 1012 227 1043 210 q 1000 239 1005 232 q 987 245 994 245 q 970 241 972 245 q 968 208 968 237 q 1005 83 968 121 l 1006 83 q 1036 68 1019 68 m 631 0 q 541 46 579 0 q 492 164 492 104 q 505 218 492 193 q 594 274 529 271 l 604 273 l 614 274 q 655 262 636 274 q 708 168 696 235 q 722 103 722 129 q 712 56 722 79 q 680 16 703 33 q 631 0 656 0 m 631 54 q 650 61 640 54 q 663 79 659 68 q 667 103 667 90 q 656 153 667 115 l 655 156 q 625 216 647 201 q 612 220 620 220 l 600 218 l 594 220 q 547 164 547 217 q 582 81 547 123 l 583 81 q 631 54 604 54 z "},"":{"ha":758,"x_min":60,"x_max":699,"o":"m 499 94 q 414 159 431 94 q 366 307 399 229 q 183 176 290 233 q 148 168 167 168 q 103 182 126 168 q 60 258 60 208 q 72 300 60 277 q 121 342 85 328 l 136 349 q 293 484 202 389 q 281 507 290 492 q 258 560 266 537 q 229 631 241 583 l 203 682 q 163 755 163 707 q 172 795 163 774 q 251 844 194 844 q 408 658 339 844 l 423 621 q 509 718 498 697 q 532 760 519 738 q 610 807 557 807 q 650 798 629 807 q 699 719 699 776 q 689 680 699 700 q 571 521 652 600 l 500 446 q 526 382 515 407 q 586 183 586 245 q 499 94 586 98 m 499 148 q 532 182 532 148 q 477 361 525 250 q 442 453 442 439 q 450 472 442 464 l 533 559 q 640 703 598 623 q 644 719 644 712 q 610 753 644 753 q 581 735 587 753 l 555 689 q 526 651 551 680 q 414 547 437 547 q 391 563 397 547 l 357 637 q 251 789 298 789 q 217 755 217 789 q 233 727 217 736 q 248 713 241 724 l 279 652 l 281 647 q 300 594 290 614 q 307 583 304 590 l 330 533 q 353 479 353 492 q 346 460 353 468 q 201 328 275 385 q 141 292 163 300 q 114 258 114 277 q 130 228 114 237 q 148 222 140 222 q 159 225 153 222 q 354 372 279 288 q 374 381 363 381 q 399 365 391 381 q 468 170 446 263 q 499 148 471 148 z "},"":{"ha":750,"x_min":60,"x_max":690,"o":"m 392 878 q 264 823 264 878 q 277 783 264 806 q 448 709 313 709 l 453 709 q 513 715 481 709 q 563 750 544 722 q 570 779 570 764 q 564 806 570 792 l 564 807 q 529 853 555 837 q 392 878 473 878 m 340 609 q 278 587 308 609 q 239 521 252 557 q 202 430 221 475 q 159 324 179 377 l 157 323 q 114 153 114 221 q 142 35 114 88 q 205 -35 149 22 q 259 -77 229 -60 q 373 -103 313 -103 q 549 -62 468 -103 q 632 45 612 -26 q 636 81 636 65 q 547 221 636 159 l 543 222 q 477 258 514 250 q 463 252 471 258 q 448 227 454 245 q 423 180 441 208 q 388 164 412 164 q 372 168 380 164 q 320 250 320 191 q 384 397 320 293 q 434 473 419 456 q 454 519 454 498 q 448 545 454 533 q 397 593 429 576 q 340 609 366 609 m 392 932 q 552 902 486 932 q 616 825 595 883 q 624 779 624 800 q 610 724 624 750 q 457 655 574 655 l 448 655 q 228 758 282 655 q 210 823 210 792 q 392 932 210 932 m 340 663 q 422 642 380 663 q 494 572 465 620 q 509 519 509 548 q 475 438 509 479 q 431 370 465 426 l 431 369 q 374 250 374 277 q 384 222 374 228 l 396 244 q 479 312 422 312 l 484 312 q 579 264 538 301 q 690 81 690 186 q 684 31 690 58 q 576 -110 663 -58 l 575 -111 q 373 -157 480 -157 q 235 -126 301 -157 q 167 -73 208 -114 q 96 7 114 -22 q 60 153 60 65 q 109 345 60 232 q 153 452 130 399 l 187 538 q 240 627 206 589 l 244 629 q 340 663 289 663 z "},"":{"ha":468,"x_min":60,"x_max":408,"o":"m 189 595 q 164 567 167 593 l 165 551 q 169 515 165 530 q 172 450 172 499 l 171 434 q 174 270 171 342 l 174 237 q 157 68 174 138 q 134 -3 148 15 q 114 -58 114 -41 q 117 -75 114 -65 q 136 -97 121 -85 q 190 -109 152 -109 q 241 -95 217 -109 q 273 -49 267 -76 q 279 23 279 -14 l 279 30 q 286 227 281 127 q 290 406 290 301 q 285 532 290 484 q 222 590 285 572 q 189 595 205 595 m 248 916 q 127 857 163 916 q 118 817 118 838 q 156 742 118 774 q 225 715 189 715 q 266 723 245 715 q 331 776 319 742 q 342 795 338 788 q 347 807 346 803 q 354 836 354 819 q 338 886 354 865 q 248 916 316 916 m 184 650 q 237 643 212 650 q 339 537 335 613 q 345 406 345 487 q 340 224 345 300 l 334 19 q 326 -60 334 -18 q 273 -140 316 -109 l 270 -142 q 190 -163 232 -163 q 66 -94 92 -163 q 60 -58 60 -87 q 87 26 60 -26 q 91 31 90 30 q 95 41 92 33 q 102 71 98 49 l 103 77 q 106 87 104 85 q 119 237 119 144 q 117 418 117 359 l 117 490 l 111 545 q 110 562 111 556 q 113 591 110 586 q 184 650 129 643 m 248 970 q 400 887 365 970 q 408 836 408 867 q 397 787 408 810 q 382 757 392 772 q 342 703 369 724 q 284 671 315 682 q 225 661 254 661 q 121 700 170 661 q 64 817 64 747 q 80 883 64 852 q 248 970 127 970 z "},"":{"ha":1130,"x_min":87,"x_max":1043,"o":"m 620 109 q 699 133 667 117 l 768 163 q 863 218 825 189 q 851 235 863 220 q 838 255 840 251 q 837 258 837 255 q 826 271 830 264 q 693 403 757 353 q 620 475 655 438 l 618 471 q 621 161 618 339 q 620 109 621 125 m 913 285 l 922 305 q 962 442 945 373 q 974 567 974 494 q 971 618 974 594 l 971 624 q 956 678 963 662 q 955 681 956 680 q 954 685 954 682 q 882 779 930 730 l 846 808 q 631 926 709 906 q 637 838 636 882 q 623 567 637 784 q 712 494 655 552 q 913 285 830 392 m 537 109 l 537 186 q 534 448 534 316 l 500 423 q 489 415 490 415 q 488 414 488 415 q 399 327 452 384 q 279 214 343 262 q 411 149 335 178 q 483 118 438 138 l 488 117 l 488 115 q 537 109 507 110 m 220 270 q 245 288 244 285 q 342 381 293 326 q 435 473 385 431 q 537 545 529 545 q 544 652 537 581 q 552 823 552 769 q 549 892 552 857 q 546 928 547 926 q 545 936 545 929 q 366 892 476 936 q 297 852 321 869 l 296 850 q 236 791 243 803 l 231 784 q 186 707 197 734 q 184 701 186 701 q 155 548 155 633 q 164 438 155 502 q 189 324 175 345 q 191 319 189 321 q 218 273 202 296 l 220 270 m 598 39 q 583 41 587 39 l 563 41 q 492 45 522 41 q 437 64 463 52 q 399 81 411 77 q 385 87 388 85 q 130 288 191 151 q 95 433 104 347 q 87 544 87 484 q 146 779 87 674 q 551 1004 264 985 q 726 962 643 1004 q 1035 651 997 830 q 1043 557 1043 604 q 1016 378 1043 473 q 956 222 987 274 q 913 172 936 190 q 787 98 857 123 l 785 96 l 780 95 q 598 39 677 39 z "},"":{"ha":1120,"x_min":87,"x_max":1034,"o":"m 495 703 l 490 703 q 448 711 468 703 q 389 784 391 731 q 422 852 389 823 q 496 882 454 882 q 545 854 519 882 q 567 798 567 833 q 495 703 567 707 m 528 208 q 562 212 543 208 q 600 237 582 217 q 618 283 618 258 q 564 377 618 343 q 530 387 548 387 q 496 377 514 387 l 491 376 q 454 286 454 349 q 528 208 454 208 m 808 146 q 972 368 937 231 q 994 549 994 456 q 989 632 994 583 q 916 787 977 716 q 914 788 916 788 q 818 867 865 849 q 718 907 770 886 q 540 944 621 944 q 393 914 477 944 q 315 868 334 894 l 302 840 q 297 776 297 818 q 391 602 297 655 q 494 582 439 582 l 543 582 q 635 564 593 582 q 736 492 701 540 q 770 434 757 461 q 825 224 825 342 q 808 146 825 176 m 612 57 q 429 81 499 57 q 296 140 359 104 q 273 152 285 146 q 187 206 227 172 q 88 510 88 311 l 87 583 q 121 738 87 685 q 153 789 125 743 q 228 867 180 834 q 274 898 240 876 q 316 925 308 920 q 530 986 408 981 q 724 949 616 986 q 875 883 833 911 q 998 730 958 818 q 1034 544 1034 647 q 859 130 1032 258 q 750 73 810 91 q 612 57 696 57 z "},"":{"ha":1203,"x_min":87,"x_max":1116,"o":"m 623 439 q 537 498 567 439 q 511 594 511 543 q 551 674 511 654 q 591 690 567 690 q 614 691 602 690 q 640 692 627 692 q 701 657 680 692 q 722 583 722 623 q 682 463 722 496 q 623 439 654 439 m 868 94 q 939 182 917 94 q 907 225 922 191 q 898 240 901 239 l 899 240 q 842 312 861 279 q 812 362 841 317 q 776 397 799 378 l 765 401 q 746 426 746 406 q 748 458 746 435 q 788 532 750 480 q 834 563 806 563 q 884 545 850 562 q 952 511 918 528 q 954 510 954 511 q 999 492 986 498 q 1024 480 1012 486 l 1025 486 q 1059 648 1059 562 q 1029 793 1059 723 q 974 868 1020 836 l 956 883 q 811 947 895 940 l 796 921 q 734 807 768 875 l 734 806 q 718 759 724 781 q 692 736 712 736 q 663 742 677 741 q 654 739 658 741 q 645 736 650 738 q 632 734 640 734 q 610 746 618 734 q 594 762 608 750 q 563 817 581 773 q 536 869 545 849 q 517 906 528 888 q 331 802 426 876 q 330 800 330 802 q 214 624 229 736 q 208 518 208 571 l 264 518 q 312 522 311 522 q 313 524 313 522 l 384 537 l 399 537 q 442 500 426 537 q 457 484 450 490 q 484 437 484 457 q 467 385 484 412 q 454 364 458 373 q 449 353 449 355 q 433 307 439 331 q 369 197 399 197 q 350 205 359 197 q 217 327 289 271 q 171 372 193 347 l 171 368 q 332 187 171 281 q 361 170 358 170 q 410 142 384 152 q 517 134 450 134 q 600 132 559 134 l 711 117 q 766 110 742 111 q 818 101 789 109 q 868 94 846 94 m 872 39 q 818 47 845 39 q 761 56 781 56 l 652 72 q 506 81 579 81 l 480 80 q 380 95 430 80 q 312 134 357 104 q 206 208 233 186 q 115 357 121 269 q 121 404 115 381 q 87 461 87 449 q 100 496 87 488 q 127 508 114 503 q 155 515 141 513 l 155 541 q 267 822 155 734 q 495 956 397 922 q 564 989 495 989 l 612 987 q 686 990 658 987 q 787 1002 751 1002 q 940 966 878 1002 q 1027 899 960 954 q 1028 898 1028 899 q 1078 826 1059 878 q 1116 648 1116 739 q 1080 476 1116 571 l 1073 457 q 1081 429 1081 442 q 1061 366 1081 407 l 1061 363 q 1040 302 1053 346 q 997 189 1019 227 q 954 79 979 119 q 872 39 929 39 z "},"":{"ha":970,"x_min":60,"x_max":910,"o":"m 730 43 q 822 56 800 43 q 856 126 856 64 q 854 146 856 134 q 853 179 853 157 q 848 229 853 208 q 739 262 837 262 l 673 259 q 628 277 642 259 q 621 298 621 288 l 625 380 q 621 547 621 480 l 621 548 q 624 699 624 616 l 625 762 l 624 947 q 384 1029 624 1029 q 274 1002 327 1029 q 168 849 195 952 q 127 380 138 738 q 126 353 127 355 q 122 328 122 340 q 121 304 122 315 q 114 205 114 254 q 164 43 114 52 q 195 91 184 43 l 195 92 q 212 133 202 115 q 260 491 260 448 q 277 636 260 574 l 285 673 q 302 739 286 694 l 304 742 q 380 804 336 804 q 442 766 415 804 q 481 593 481 701 l 492 229 q 496 157 492 182 q 500 123 499 141 q 506 81 500 94 q 526 58 515 58 l 528 57 q 601 46 555 46 l 629 47 l 730 43 m 730 -11 q 623 -7 628 -11 l 601 -8 q 507 7 544 -8 q 446 119 449 26 q 442 148 445 136 q 438 229 438 172 q 427 594 427 502 q 396 736 427 686 q 380 750 388 750 q 353 719 370 750 q 339 669 339 682 q 328 623 339 656 q 315 491 315 567 q 277 201 315 444 q 260 110 263 114 q 247 77 254 96 q 164 -11 224 -11 q 60 205 60 -11 q 66 312 60 269 l 68 326 q 73 365 68 346 l 75 403 q 115 863 84 747 q 245 1048 149 987 q 384 1084 302 1084 q 564 1065 461 1084 q 678 951 675 1040 l 680 730 q 675 547 678 616 q 680 381 675 480 l 677 313 q 724 316 700 316 q 840 302 799 316 q 899 244 888 286 q 907 179 907 216 q 909 149 907 160 q 910 126 910 137 q 841 4 910 26 q 730 -11 803 -11 z "},"|":{"ha":411,"x_min":60,"x_max":351,"o":"m 240 -171 q 138 -121 172 -170 q 85 22 95 -52 q 80 130 80 76 l 80 165 q 77 387 80 305 q 76 510 76 448 q 83 741 76 600 q 88 869 88 822 q 62 1088 88 981 q 60 1107 60 1097 q 95 1168 60 1143 q 167 1188 122 1188 q 231 1174 199 1188 q 274 1130 263 1160 q 307 859 307 1004 q 300 666 307 762 q 294 528 294 570 q 298 209 298 324 l 297 133 q 303 40 297 90 q 342 -64 309 -9 q 351 -92 351 -77 q 346 -114 351 -103 q 267 -168 326 -156 q 240 -171 252 -171 m 240 -117 l 258 -115 q 297 -92 293 -106 q 250 38 256 -28 q 244 137 244 87 l 244 209 q 240 526 244 323 q 246 667 240 572 q 252 856 252 761 q 251 941 252 875 q 221 1116 250 1006 q 205 1127 220 1120 q 167 1134 190 1134 q 151 1133 157 1134 q 114 1105 114 1124 l 114 1103 q 141 879 141 1004 q 137 738 141 799 q 130 510 130 598 l 132 388 q 134 165 134 305 l 133 127 q 140 24 133 80 q 183 -91 146 -31 q 240 -117 202 -117 z "},"^":{"ha":776,"x_min":60,"x_max":716,"o":"m 625 655 q 652 667 642 655 q 662 689 662 678 q 648 719 662 707 q 476 994 511 853 q 407 1105 439 1105 q 369 1082 385 1105 l 319 1002 q 122 719 231 857 q 114 697 114 709 q 118 682 114 690 q 132 666 122 673 q 152 659 142 659 q 176 671 165 659 q 369 949 277 798 q 392 963 377 963 q 418 944 410 963 q 605 662 457 804 q 625 655 612 655 m 625 601 q 567 624 590 601 q 385 875 435 751 q 218 637 307 747 q 152 605 190 605 q 68 661 100 605 q 60 699 60 680 q 80 754 60 727 q 273 1032 186 887 l 323 1111 q 407 1160 359 1160 q 477 1120 450 1160 q 534 987 517 1059 q 560 921 544 951 q 686 758 616 827 q 716 689 716 728 q 694 632 716 658 q 625 601 666 601 z "},"":{"ha":616,"x_min":60,"x_max":556,"o":"m 297 802 q 382 852 372 814 q 388 894 388 876 q 387 920 387 917 q 357 998 374 981 q 342 1008 350 1004 q 321 1015 334 1013 q 315 1015 320 1015 q 296 1016 311 1016 l 296 1015 q 256 967 282 1015 q 237 865 239 917 q 255 807 237 815 q 297 802 275 802 m 289 747 q 225 762 248 747 l 208 776 q 184 834 184 808 q 183 882 183 846 q 208 987 187 936 q 209 991 208 990 q 247 1048 225 1024 q 250 1052 248 1050 q 267 1063 252 1054 q 294 1070 270 1065 l 330 1069 q 396 1036 365 1066 q 399 1033 397 1034 q 400 1031 400 1032 q 422 993 412 1015 q 423 989 423 991 q 425 985 423 987 q 442 903 442 937 q 289 747 442 747 m 278 681 q 481 773 397 682 q 492 806 490 784 q 500 901 500 857 q 448 1080 500 1009 q 311 1138 395 1138 q 160 1047 213 1138 q 118 932 122 978 q 114 871 114 886 q 138 761 114 811 q 205 696 161 711 q 278 681 248 681 m 278 627 q 85 741 140 629 q 60 869 60 799 q 114 1074 60 979 q 311 1192 183 1192 q 490 1114 419 1192 q 556 899 556 1027 q 538 766 556 830 q 468 688 529 734 q 278 627 378 627 z "},"":{"ha":898,"x_min":60,"x_max":838,"o":"m 530 126 q 621 134 574 126 q 741 181 704 149 q 777 243 777 213 q 761 308 777 271 q 743 320 754 319 q 682 324 722 324 l 662 323 q 612 328 628 323 q 556 341 585 336 q 495 355 528 346 q 393 469 393 382 q 420 579 393 532 q 502 633 453 633 q 522 629 515 633 l 600 586 q 650 572 624 572 q 765 637 730 575 q 784 722 784 675 q 776 787 784 751 q 696 911 755 872 q 581 943 640 943 q 537 939 559 943 q 370 883 448 924 q 114 499 114 760 q 160 324 114 401 q 331 170 227 213 q 530 126 435 126 m 430 -87 q 473 -77 454 -87 q 488 -28 488 -65 q 480 31 488 -3 q 479 38 479 34 q 441 64 479 61 l 433 65 q 404 57 415 65 l 404 52 q 411 -1 411 38 q 397 -65 411 -50 l 396 -75 q 407 -80 396 -76 q 415 -84 411 -81 q 430 -87 419 -87 m 368 99 q 307 121 338 109 q 114 297 189 170 q 60 499 60 387 q 69 600 60 547 q 346 932 117 819 q 529 993 431 975 q 581 997 555 997 q 724 958 655 997 l 726 958 q 827 800 802 905 q 838 722 838 758 q 814 613 838 663 l 812 612 q 665 518 766 529 q 587 532 617 518 q 583 532 585 532 q 574 538 581 533 q 500 579 568 543 q 481 571 492 579 q 448 469 448 537 q 457 435 448 442 q 510 407 469 418 q 568 395 540 400 q 625 381 597 389 q 663 378 639 378 l 681 378 q 753 374 727 378 q 808 334 788 368 l 810 331 q 831 243 831 283 q 780 143 831 189 q 629 80 728 98 q 530 72 579 72 l 526 72 q 533 42 532 58 q 543 -28 543 4 q 538 -72 543 -50 q 506 -121 533 -100 q 430 -141 479 -141 q 388 -132 406 -141 q 342 -73 342 -114 q 354 -34 342 -50 l 354 -30 q 357 -1 357 -16 q 354 28 357 14 q 350 56 350 50 q 366 98 350 83 l 368 99 z "},"":{"ha":898,"x_min":60,"x_max":838,"o":"m 530 126 q 621 134 574 126 q 741 181 704 149 q 777 243 777 213 q 761 308 777 271 q 743 320 754 319 q 682 324 722 324 l 662 323 q 612 328 628 323 q 556 341 585 336 q 495 355 528 346 q 393 469 393 382 q 420 579 393 532 q 502 633 453 633 q 522 629 515 633 l 600 586 q 650 572 624 572 q 765 637 730 575 q 784 722 784 675 q 776 787 784 751 q 696 911 755 872 q 581 943 640 943 q 537 939 559 943 q 370 883 448 924 q 114 499 114 760 q 160 324 114 401 q 331 170 227 213 q 530 126 435 126 m 430 -87 q 473 -77 454 -87 q 488 -28 488 -65 q 480 31 488 -3 q 479 38 479 34 q 441 64 479 61 l 433 65 q 404 57 415 65 l 404 52 q 411 -1 411 38 q 397 -65 411 -50 l 396 -75 q 407 -80 396 -76 q 415 -84 411 -81 q 430 -87 419 -87 m 368 99 q 307 121 338 109 q 114 297 189 170 q 60 499 60 387 q 69 600 60 547 q 346 932 117 819 q 529 993 431 975 q 581 997 555 997 q 724 958 655 997 l 726 958 q 827 800 802 905 q 838 722 838 758 q 814 613 838 663 l 812 612 q 665 518 766 529 q 587 532 617 518 q 583 532 585 532 q 574 538 581 533 q 500 579 568 543 q 481 571 492 579 q 448 469 448 537 q 457 435 448 442 q 510 407 469 418 q 568 395 540 400 q 625 381 597 389 q 663 378 639 378 l 681 378 q 753 374 727 378 q 808 334 788 368 l 810 331 q 831 243 831 283 q 780 143 831 189 q 629 80 728 98 q 530 72 579 72 l 526 72 q 533 42 532 58 q 543 -28 543 4 q 538 -72 543 -50 q 506 -121 533 -100 q 430 -141 479 -141 q 388 -132 406 -141 q 342 -73 342 -114 q 354 -34 342 -50 l 354 -30 q 357 -1 357 -16 q 354 28 357 14 q 350 56 350 50 q 366 98 350 83 l 368 99 z "}}}
